<svg width="1440" height="1024" viewBox="0 0 1440 1024" fill="none" xmlns="http://www.w3.org/2000/svg">
<g clip-path="url(#clip0)">
<path opacity="0.02" d="M835.152 355.761C713.19 266.621 737.132 161.332 764.348 119.83L1138.42 -528.082L3367.78 759.039L2993.71 1406.95C2971.37 1451.27 2892.16 1524.65 2753.98 1463.6C2581.26 1387.28 2550.18 1451.26 2496.56 1486.62C2442.95 1521.98 2374.68 1548.89 2258.33 1429.05C2141.99 1309.21 2013.37 1217.4 1855.31 1250.98C1728.87 1277.85 1643.44 1239.83 1613.82 1222.74C1584.21 1205.64 1508.57 1150.66 1468.62 1027.72C1418.67 874.056 1274.85 808.574 1112.89 767.732C950.939 726.891 940.106 654.319 943.922 590.204C947.738 526.09 987.605 467.186 835.152 355.761Z" fill="black"/>
<path d="M893.097 49.8722C807.084 -49.7069 848.061 -134.363 879.301 -164.244L1323.89 -640.701L2963.29 889.042L2518.71 1365.5C2491.06 1398.73 2409.44 1445.46 2304.15 1366.54C2172.54 1267.88 2133.62 1316.08 2081.18 1335.57C2028.73 1355.06 1965.52 1364.5 1890.3 1239.97C1815.07 1115.44 1723.93 1012.28 1583.21 1009.77C1470.63 1007.76 1405.59 958.738 1383.81 938.419C1362.03 918.099 1308.63 856.597 1298.84 744.428C1286.61 604.218 1177.4 520.427 1047.97 453.989C918.54 387.552 923.587 323.838 939.405 270.176C955.223 216.513 1000.61 174.346 893.097 49.8722Z" fill="black"/>
<path d="M893.097 49.8722C807.084 -49.7069 848.061 -134.363 879.301 -164.244L1323.89 -640.701L2963.29 889.042L2518.71 1365.5C2491.06 1398.73 2409.44 1445.46 2304.15 1366.54C2172.54 1267.88 2133.62 1316.08 2081.18 1335.57C2028.73 1355.06 1965.52 1364.5 1890.3 1239.97C1815.07 1115.44 1723.93 1012.28 1583.21 1009.77C1470.63 1007.76 1405.59 958.738 1383.81 938.419C1362.03 918.099 1308.63 856.597 1298.84 744.428C1286.61 604.218 1177.4 520.427 1047.97 453.989C918.54 387.552 923.587 323.838 939.405 270.176C955.223 216.513 1000.61 174.346 893.097 49.8722Z" fill="url(#paint0_linear)"/>
<path d="M1012.18 -684.381C978.033 -811.458 1051.75 -869.867 1092.88 -883.187L1700.43 -1118.86L2511.36 971.63L1903.81 1207.31C1864.46 1225.21 1770.63 1231.79 1710.15 1114.93C1634.55 968.852 1578.53 995.322 1522.84 990.065C1467.14 984.807 1406.11 965.815 1392.53 820.963C1378.95 676.111 1341.75 543.585 1216.13 480.121C1115.63 429.35 1078.38 356.916 1067.61 329.148C1056.83 301.38 1035.5 222.773 1075.47 117.512C1125.43 -14.0635 1063.53 -137.012 975.88 -253.128C888.226 -369.245 920.48 -424.423 958.062 -465.865C995.645 -507.307 1054.86 -525.535 1012.18 -684.381Z" fill="black"/>
<path d="M1012.18 -684.381C978.033 -811.458 1051.75 -869.867 1092.88 -883.187L1700.43 -1118.86L2511.36 971.63L1903.81 1207.31C1864.46 1225.21 1770.63 1231.79 1710.15 1114.93C1634.55 968.852 1578.53 995.322 1522.84 990.065C1467.14 984.807 1406.11 965.815 1392.53 820.963C1378.95 676.111 1341.75 543.585 1216.13 480.121C1115.63 429.35 1078.38 356.916 1067.61 329.148C1056.83 301.38 1035.5 222.773 1075.47 117.512C1125.43 -14.0635 1063.53 -137.012 975.88 -253.128C888.226 -369.245 920.48 -424.423 958.062 -465.865C995.645 -507.307 1054.86 -525.535 1012.18 -684.381Z" fill="url(#paint1_linear)"/>
<path d="M1250 -114.851C1196.82 -235.21 1260.74 -304.207 1299.34 -323.661L1863.7 -649.493L2984.84 1292.37L2820.48 1468.2C2784.33 1491.91 2692.62 1512.76 2614.97 1406.53C2517.92 1273.74 2466.61 1308.46 2410.76 1311.79C2354.92 1315.11 1965.5 1405.83 1856.13 1304.6C1749.36 1205.78 1763.52 1048.26 1629.67 1004.75C1522.59 969.952 1474.69 904.068 1459.8 878.275C1444.91 852.481 1411.8 778.063 1435.2 667.927C1464.45 530.257 1384.48 418.223 1280.09 316.879C1175.71 215.536 1199.14 156.074 1229.95 109.371C1260.75 62.6686 1316.48 35.5978 1250 -114.851Z" fill="black"/>
<path d="M1250 -114.851C1196.82 -235.21 1260.74 -304.207 1299.34 -323.661L1863.7 -649.493L2984.84 1292.37L2820.48 1468.2C2784.33 1491.91 2692.62 1512.76 2614.97 1406.53C2517.92 1273.74 2466.61 1308.46 2410.76 1311.79C2354.92 1315.11 1965.5 1405.83 1856.13 1304.6C1749.36 1205.78 1763.52 1048.26 1629.67 1004.75C1522.59 969.952 1474.69 904.068 1459.8 878.275C1444.91 852.481 1411.8 778.063 1435.2 667.927C1464.45 530.257 1384.48 418.223 1280.09 316.879C1175.71 215.536 1199.14 156.074 1229.95 109.371C1260.75 62.6686 1316.48 35.5978 1250 -114.851Z" fill="url(#paint2_linear)"/>
</g>
<defs>
<linearGradient id="paint0_linear" x1="75.9585" y1="-432.529" x2="2067.03" y2="1172.73" gradientUnits="userSpaceOnUse">
<stop stop-color="#396AFC"/>
<stop offset="0.505208" stop-color="#2948FF"/>
<stop offset="1" stop-color="#00F0FF"/>
</linearGradient>
<linearGradient id="paint1_linear" x1="1129.72" y1="-782.302" x2="1804.14" y2="1727.95" gradientUnits="userSpaceOnUse">
<stop stop-color="#5F679C"/>
<stop offset="0.0001" stop-color="#5F679C"/>
<stop offset="0.505208" stop-color="#0085FF"/>
<stop offset="1" stop-color="#00F0FF"/>
</linearGradient>
<linearGradient id="paint2_linear" x1="1814.13" y1="-621.042" x2="2100.27" y2="2097.26" gradientUnits="userSpaceOnUse">
<stop stop-color="#217BCE"/>
<stop offset="0.505208" stop-color="#00F0FF"/>
<stop offset="1" stop-color="#8B9BC1"/>
</linearGradient>
<clipPath id="clip0">
<rect width="1440" height="1024" fill="white"/>
</clipPath>
</defs>
</svg>
