<svg width="196" height="193" viewBox="0 0 196 193" fill="none" xmlns="http://www.w3.org/2000/svg">
<g clip-path="url(#clip0)">
<path d="M25.4653 112.765H170.534V160.999H25.4653V112.765Z" fill="#FFBDBC"/>
<path d="M81.8033 151.148C82.2516 151.316 82.7121 151.396 83.165 151.396C84.7077 151.396 86.1616 150.471 86.7431 148.967L87.8445 146.119H95.7231L96.8103 148.956C97.5568 150.904 99.7653 151.886 101.743 151.152C103.722 150.417 104.72 148.242 103.974 146.294L95.8548 125.111C95.8414 125.076 95.828 125.042 95.8135 125.008C95.1439 123.405 93.5756 122.371 91.8161 122.371H91.8119C90.051 122.372 88.4822 123.41 87.8154 125.015C87.8035 125.044 87.792 125.072 87.7809 125.101L79.588 146.284C78.8357 148.229 79.8276 150.407 81.8033 151.148ZM92.834 138.58H90.7607L91.8024 135.887L92.834 138.58Z" fill="#020288"/>
<path d="M112.834 122.37C110.721 122.37 109.006 124.058 109.006 126.14V147.625C109.006 149.707 110.721 151.394 112.834 151.394C114.948 151.394 116.663 149.707 116.663 147.625V126.14C116.663 124.058 114.948 122.37 112.834 122.37Z" fill="#020288"/>
<path d="M179.908 9.25098H16.0923C7.21908 9.25098 0 16.389 0 25.1629V167.837C0 176.611 7.21908 183.749 16.0923 183.749H179.908C188.781 183.749 196 176.611 196 167.837V25.1629C196 16.389 188.781 9.25098 179.908 9.25098ZM7.65625 25.1629C7.65625 20.546 11.4407 16.79 16.0923 16.79H179.908C184.559 16.79 188.344 20.546 188.344 25.1629V41.8386H7.65625V25.1629ZM188.344 167.837C188.344 172.454 184.559 176.21 179.908 176.21H16.0923C11.4407 176.21 7.65625 172.454 7.65625 167.837V49.3776H188.344V167.837Z" fill="#020288"/>
<path d="M31.4081 25.5449H25.4653C23.3511 25.5449 21.6372 27.2325 21.6372 29.3145C21.6372 31.3964 23.3511 33.084 25.4653 33.084H31.4077C33.522 33.084 35.2359 31.3964 35.2359 29.3145C35.2359 27.2325 33.5224 25.5449 31.4081 25.5449Z" fill="#020288"/>
<path d="M51.0181 25.5449H45.0757C42.9614 25.5449 41.2476 27.2325 41.2476 29.3145C41.2476 31.3964 42.9614 33.084 45.0757 33.084H51.0181C53.1324 33.084 54.8462 31.3964 54.8462 29.3145C54.8462 27.2325 53.1324 25.5449 51.0181 25.5449Z" fill="#020288"/>
<path d="M70.6284 25.5449H64.686C62.5718 25.5449 60.8579 27.2325 60.8579 29.3145C60.8579 31.3964 62.5718 33.084 64.686 33.084H70.6284C72.7427 33.084 74.4566 31.3964 74.4566 29.3145C74.4566 27.2325 72.7427 25.5449 70.6284 25.5449Z" fill="#020288"/>
<path d="M170.534 25.5449H110.001C107.888 25.5449 106.173 27.2325 106.173 29.3145C106.173 31.3964 107.888 33.084 110.001 33.084H170.534C172.648 33.084 174.363 31.3964 174.363 29.3145C174.363 27.2325 172.648 25.5449 170.534 25.5449Z" fill="#020288"/>
<path d="M44.8722 96.8015C45.3343 96.9817 45.8105 97.0669 46.2791 97.0669C47.8034 97.0669 49.2451 96.1637 49.84 94.683L58.9115 72.1013C59.6894 70.1656 58.7258 67.9751 56.7597 67.2095C54.7947 66.4439 52.5698 67.3924 51.792 69.3284L42.7204 91.9101C41.943 93.8454 42.9065 96.0359 44.8722 96.8015Z" fill="#020288"/>
<path d="M71.1286 81.8388L66.1601 90.3312C65.1047 92.1353 65.7344 94.44 67.5662 95.4792C68.1683 95.8207 68.8252 95.9832 69.4733 95.9828C70.7975 95.9828 72.0853 95.3054 72.7939 94.0943L78.8856 83.6817C79.5788 82.4966 79.5658 81.0347 78.8515 79.8617L72.7598 69.8577C71.6726 68.0721 69.321 67.4923 67.508 68.5632C65.695 69.6338 65.1062 71.949 66.1934 73.7347L71.1286 81.8388Z" fill="#020288"/>
<path d="M29.2421 94.0947C29.9507 95.3058 31.2385 95.9832 32.5626 95.9832C33.2107 95.9832 33.868 95.8207 34.4698 95.4796C36.3019 94.4403 36.9313 92.1356 35.8759 90.3315L30.9073 81.8391L35.8418 73.7354C36.929 71.9498 36.3406 69.6345 34.5272 68.564C32.7138 67.4927 30.363 68.0724 29.2754 69.8584L23.1837 79.8624C22.4694 81.0355 22.4564 82.4973 23.1496 83.6824L29.2421 94.0947Z" fill="#020288"/>
<path d="M102.882 98.6958H170.534C172.648 98.6958 174.362 97.0082 174.362 94.9263C174.362 92.8444 172.648 91.1567 170.534 91.1567H102.882C100.768 91.1567 99.0537 92.8444 99.0537 94.9263C99.0537 97.0082 100.768 98.6958 102.882 98.6958Z" fill="#020288"/>
<path d="M102.882 80.1499H170.534C172.648 80.1499 174.362 78.4623 174.362 76.3804C174.362 74.2985 172.648 72.6108 170.534 72.6108H102.882C100.768 72.6108 99.0537 74.2985 99.0537 76.3804C99.0537 78.4623 100.768 80.1499 102.882 80.1499Z" fill="#020288"/>
</g>
<defs>
<clipPath id="clip0">
<rect width="196" height="193" fill="white"/>
</clipPath>
</defs>
</svg>
