<svg width="535" height="374" viewBox="0 0 535 374" fill="none" xmlns="http://www.w3.org/2000/svg">
<g clip-path="url(#clip0)">
<path opacity="0.1" d="M504.62 212.241C486.704 235.475 493.664 269.419 505.049 296.603C508.86 305.704 513.172 315.334 511.563 325.094C509.597 337.03 499.154 345.757 488.189 350.382C468.202 358.814 444.284 356.805 425.918 345.151C410.047 335.079 398.681 318.701 382.539 309.088C355.525 293.001 321.14 299.076 291.807 310.157C271.054 317.997 248.365 328.193 227.744 320C213.234 314.235 203.204 300.202 197.739 285.328C195.101 278.147 193.186 270.374 188.147 264.682C185.152 261.298 181.243 258.896 177.238 256.87C140.671 238.376 94.4868 248.28 58.9692 227.767C34.9819 213.914 19.6253 187.782 12.8259 160.532C6.0265 133.283 6.81848 104.711 8.54482 76.6481C9.77163 56.7052 11.9728 35.4141 24.4651 20.0222C37.6801 3.7397 60.36 -2.31482 80.8596 0.779979C101.359 3.87477 119.94 14.9051 136.287 27.8969C156.717 44.1338 175.664 64.3527 200.748 70.93C217.83 75.4091 235.799 72.959 253.417 72.1106C282.87 70.6921 312.336 73.8465 341.626 77.3005C369.667 80.6071 397.911 84.2464 424.624 93.5511C443.528 100.136 458.684 112.088 476.534 120.439C488.17 125.882 500.858 127.385 511.874 134.318C525.445 142.858 537.886 157.712 534.409 175.094C531.104 191.62 514.129 199.909 504.62 212.241Z" fill="#FFCCD9"/>
<path d="M349.655 71.2605C349.655 71.2605 320.856 62.5602 318.954 87.307C317.051 112.054 326.565 152.813 318.954 165.914C311.343 179.016 284.184 197.944 298.477 199.64C312.77 201.336 319.905 203.762 315.624 212.496C311.343 221.231 288.985 229.479 293.742 235.787C298.499 242.095 300.877 249.859 296.12 257.623C291.363 265.387 274.714 270.239 277.568 275.576C280.423 280.914 290.888 283.825 285.655 289.648C280.423 295.471 265.254 308.716 271.173 308.644" stroke="#535461" stroke-width="3" stroke-miterlimit="10"/>
<path d="M391.725 54.7732H330.992C327.585 54.7732 324.823 57.5908 324.823 61.0665V83.0479C324.823 86.5236 327.585 89.3412 330.992 89.3412H391.725C395.133 89.3412 397.895 86.5236 397.895 83.0479V61.0665C397.895 57.5908 395.133 54.7732 391.725 54.7732Z" fill="#84D9EF"/>
<path opacity="0.1" d="M392.07 84.0359H330.647V84.684H392.07V84.0359Z" fill="black"/>
<path opacity="0.3" d="M392.07 60.1746H330.647V83.94H392.07V60.1746Z" fill="black"/>
<path opacity="0.1" d="M344.944 81.1951C349.623 81.1951 353.416 77.326 353.416 72.5531C353.416 67.7803 349.623 63.9111 344.944 63.9111C340.265 63.9111 336.472 67.7803 336.472 72.5531C336.472 77.326 340.265 81.1951 344.944 81.1951Z" fill="black"/>
<path opacity="0.1" d="M377.773 81.1951C382.452 81.1951 386.245 77.326 386.245 72.5531C386.245 67.7803 382.452 63.9111 377.773 63.9111C373.094 63.9111 369.301 67.7803 369.301 72.5531C369.301 77.326 373.094 81.1951 377.773 81.1951Z" fill="black"/>
<path d="M367.712 89.3403H355.004V96.904H367.712V89.3403Z" fill="#FFBB52"/>
<path d="M387.834 94.7424H334.883V137.952H387.834V94.7424Z" fill="#84D9EF"/>
<path d="M388.893 146.594H333.824V151.996H388.893V146.594Z" fill="#FFBB52"/>
<path d="M342.826 164.959V171.44V181.162V186.564V189.805H352.357V186.564V181.162V171.44V164.959V157.397H342.826V164.959Z" fill="#84D9EF"/>
<path d="M371.419 157.397V164.959V171.44V181.162V186.564V189.805H380.951V186.564V181.162V171.44V164.959V157.397H371.419Z" fill="#84D9EF"/>
<path d="M327.671 104.465V114.456C325.055 114.923 322.618 116.121 320.631 117.918C318.788 119.659 317.355 121.802 316.439 124.188C315.272 127.25 314.575 130.478 314.375 133.757C314.076 138.045 314.272 142.355 314.961 146.596H304.371C303.93 141.435 304.023 136.242 304.648 131.101C305.148 126.853 306.295 122.709 308.047 118.821C311.115 112.257 315.479 108.696 319.313 106.761C321.91 105.407 324.758 104.624 327.671 104.465Z" fill="#84D9EF"/>
<path opacity="0.3" d="M352.357 157.397H342.826V164.959H352.357V157.397Z" fill="black"/>
<path opacity="0.3" d="M352.357 171.44H342.826V181.162H352.357V171.44Z" fill="black"/>
<path opacity="0.3" d="M352.357 186.564H342.826V189.804H352.357V186.564Z" fill="black"/>
<path opacity="0.3" d="M380.951 157.397H371.419V164.959H380.951V157.397Z" fill="black"/>
<path opacity="0.3" d="M380.951 171.44H371.419V181.162H380.951V171.44Z" fill="black"/>
<path opacity="0.3" d="M380.951 186.564H371.419V189.804H380.951V186.564Z" fill="black"/>
<path opacity="0.3" d="M327.671 104.465V114.456C325.055 114.923 322.618 116.121 320.631 117.918L319.313 106.761C321.91 105.407 324.758 104.624 327.671 104.465Z" fill="black"/>
<path opacity="0.3" d="M316.439 124.188C315.271 127.25 314.575 130.478 314.375 133.757L304.648 131.101C305.148 126.852 306.295 122.709 308.047 118.821L316.439 124.188Z" fill="black"/>
<path d="M395.046 104.465V114.456C397.662 114.923 400.1 116.121 402.087 117.918C403.929 119.659 405.362 121.802 406.278 124.188C407.446 127.25 408.142 130.478 408.342 133.757C408.642 138.045 408.445 142.355 407.756 146.596H418.346C418.788 141.435 418.695 136.242 418.069 131.101C417.57 126.853 416.423 122.709 414.67 118.821C411.602 112.257 407.238 108.696 403.405 106.761C400.807 105.407 397.959 104.624 395.046 104.465Z" fill="#84D9EF"/>
<path opacity="0.3" d="M395.046 104.465V114.456C397.662 114.923 400.1 116.121 402.087 117.918L403.405 106.761C400.807 105.407 397.959 104.624 395.046 104.465Z" fill="black"/>
<path opacity="0.3" d="M406.278 124.188C407.446 127.25 408.142 130.478 408.342 133.757L418.069 131.101C417.569 126.852 416.423 122.709 414.67 118.821L406.278 124.188Z" fill="black"/>
<path opacity="0.1" d="M367.712 89.3403H355.004V90.2356H367.712V89.3403Z" fill="black"/>
<path opacity="0.1" d="M388.775 102.441V120.532C388.142 119.835 387.79 118.919 387.791 117.968V105.003C387.79 104.053 388.142 103.138 388.775 102.441Z" fill="black"/>
<path opacity="0.1" d="M335.072 103.634V117.177C335.008 118.033 334.66 118.842 334.084 119.468V101.343C334.66 101.969 335.008 102.778 335.072 103.634Z" fill="black"/>
<path opacity="0.1" d="M385.187 137.953H337.532V138.593H385.187V137.953Z" fill="black"/>
<path opacity="0.1" d="M359.769 151.997H336.472V152.493H359.769V151.997Z" fill="black"/>
<path opacity="0.1" d="M385.187 151.997H361.889V152.493H385.187V151.997Z" fill="black"/>
<path d="M342.717 22.783H339.071V54.7734H342.717V22.783Z" fill="#84D9EF"/>
<path d="M384.533 22.783H380.886V54.7734H384.533V22.783Z" fill="#84D9EF"/>
<path opacity="0.1" d="M340.773 27.2468C343.055 27.2468 344.906 25.3593 344.906 23.031C344.906 20.7027 343.055 18.8152 340.773 18.8152C338.49 18.8152 336.64 20.7027 336.64 23.031C336.64 25.3593 338.49 27.2468 340.773 27.2468Z" fill="black"/>
<path d="M340.773 26.9987C343.055 26.9987 344.906 25.1112 344.906 22.7829C344.906 20.4546 343.055 18.5671 340.773 18.5671C338.49 18.5671 336.64 20.4546 336.64 22.7829C336.64 25.1112 338.49 26.9987 340.773 26.9987Z" fill="#FFBB52"/>
<path opacity="0.1" d="M382.831 27.2468C385.114 27.2468 386.964 25.3593 386.964 23.031C386.964 20.7027 385.114 18.8152 382.831 18.8152C380.549 18.8152 378.698 20.7027 378.698 23.031C378.698 25.3593 380.549 27.2468 382.831 27.2468Z" fill="black"/>
<path d="M382.831 26.9987C385.114 26.9987 386.964 25.1112 386.964 22.7829C386.964 20.4546 385.114 18.5671 382.831 18.5671C380.549 18.5671 378.698 20.4546 378.698 22.7829C378.698 25.1112 380.549 26.9987 382.831 26.9987Z" fill="#FFBB52"/>
<path opacity="0.5" d="M296.834 208.127C295.208 209.788 294.838 212.068 294.26 214.183C292.61 220.221 288.727 225.791 283.315 229.881C279.351 232.878 274.036 236.196 274.976 240.667C275.201 241.735 275.794 242.732 275.95 243.809C276.625 248.472 269.636 250.929 266.931 255.01C264.916 258.05 265.455 261.816 266.053 265.278C266.786 269.516 267.673 274.037 271.082 277.157C272.001 277.999 273.098 278.73 273.739 279.745C275.177 282.02 273.928 285.001 275.235 287.334C276.977 290.444 282.466 290.579 285.652 288.482C288.837 286.384 290.309 282.936 291.721 279.704C295.536 270.966 300.226 262.199 308.156 255.837C315.758 249.736 326.818 245.003 328.122 236.123C328.682 232.316 327.265 228.143 329.429 224.789C330.452 223.204 332.161 222.029 333.319 220.514C336.768 216.002 334.2 209.474 329.15 206.269C321.524 201.431 303.467 201.353 296.834 208.127Z" fill="#DEE3F3"/>
<path d="M430.491 45.9022L396.892 56.6108L398.168 60.7792L431.768 50.0705L430.491 45.9022Z" fill="#FFBB52"/>
<path d="M445.45 208.137C445.45 208.137 427.029 204.379 422.117 199.368C417.205 194.358 395.1 185.589 392.644 191.852C390.188 198.116 359.487 219.411 380.364 223.169C401.241 226.927 429.486 228.179 435.626 225.674C441.766 223.169 445.45 208.137 445.45 208.137Z" fill="#A8A8A8"/>
<path opacity="0.2" d="M380.364 220.842C401.241 224.6 429.485 225.853 435.626 223.347C440.302 221.439 443.551 212.272 444.836 208.006C445.225 208.091 445.45 208.137 445.45 208.137C445.45 208.137 441.766 223.169 435.626 225.674C429.485 228.18 401.241 226.927 380.364 223.169C374.338 222.084 372.614 219.537 373.263 216.313C373.779 218.416 375.878 220.035 380.364 220.842Z" fill="black"/>
<path d="M486.358 44.3195C486.029 43.4852 485.506 42.7455 484.833 42.1645C479.891 37.569 471.896 38.9621 465.759 36.1549C464.345 35.5083 462.895 34.6112 461.36 34.857C459.216 35.2003 457.223 37.6896 455.354 36.5851L455.488 37.001C455.443 36.9787 455.398 36.9563 455.354 36.93C455.812 38.3536 456.27 39.7772 456.728 41.2008C457.256 42.8405 457.813 44.5279 458.839 45.8932C457.321 47.2433 456.16 48.9601 455.461 50.8864C454.761 52.8127 454.547 54.8871 454.836 56.9198C455.126 58.9525 455.911 60.8787 457.119 62.5221C458.327 64.1656 459.92 65.4738 461.752 66.3272C461.816 66.4701 461.881 66.6137 461.943 66.7586C462.001 66.7854 462.061 66.8085 462.12 66.8344C462.527 67.7895 462.832 68.7871 463.027 69.8094C461.436 70.0337 458.663 71.8279 455.936 74.4776L450.481 74.2873C446.957 74.1674 443.546 72.9847 440.681 70.8887L424.37 58.9271C423.207 59.0435 422.112 59.5374 421.245 60.3361C419.219 58.1835 417.5 55.9344 417.647 54.6171C417.647 54.6171 410.062 40.1357 407.303 47.3764C404.545 54.6171 412.475 62.2026 412.475 62.2026L417.506 68.8504C417.307 70.0157 417.182 71.1926 417.13 72.3741C423.336 79.6148 445.057 86.166 445.057 86.166L448.444 86.3332C448.451 86.3967 448.457 86.4503 448.463 86.503C448.255 87.4096 448.154 88.3381 448.16 89.2691C448.162 89.4029 448.165 89.543 448.167 89.683C448.166 89.7748 448.159 89.8672 448.16 89.9588C448.333 101.509 449.884 136.851 449.884 136.851C450.186 136.714 450.498 136.588 450.815 136.47L450.574 139.609C450.574 139.609 436.093 141.678 425.404 145.816C414.716 149.953 414.371 154.78 414.371 154.78V197.374C411.318 198.972 406.501 201.073 404.028 199.949C401.344 198.729 399.87 199.754 399.604 200.824V200.824C399.549 201.034 399.545 201.255 399.592 201.467L399.595 201.48C399.618 201.575 399.652 201.667 399.698 201.753L399.708 201.773C399.758 201.863 399.819 201.945 399.89 202.018C400.925 203.052 423.336 212.017 428.508 210.637C428.667 210.595 428.824 210.541 428.976 210.477C429.026 210.455 429.07 210.428 429.118 210.405C429.214 210.359 429.311 210.314 429.4 210.26C429.453 210.228 429.501 210.189 429.552 210.154C429.629 210.101 429.708 210.05 429.781 209.991C429.831 209.95 429.876 209.903 429.924 209.86C429.991 209.799 430.058 209.74 430.12 209.675C430.166 209.627 430.206 209.574 430.249 209.524C430.307 209.455 430.367 209.387 430.421 209.314C430.461 209.261 430.496 209.204 430.533 209.149C430.585 209.071 430.638 208.995 430.686 208.913C430.719 208.857 430.748 208.797 430.779 208.739C430.826 208.652 430.872 208.566 430.915 208.475C430.942 208.417 430.966 208.356 430.991 208.296C431.033 208.201 431.074 208.105 431.111 208.005C431.132 207.947 431.151 207.886 431.172 207.826C431.208 207.721 431.243 207.615 431.275 207.506C431.292 207.449 431.306 207.391 431.322 207.334C431.353 207.217 431.384 207.1 431.411 206.981C431.423 206.928 431.433 206.874 431.445 206.82C431.471 206.693 431.497 206.565 431.519 206.435C431.527 206.387 431.534 206.338 431.542 206.29C431.564 206.151 431.584 206.012 431.602 205.87C431.607 205.83 431.611 205.789 431.615 205.749C431.633 205.597 431.648 205.446 431.66 205.293C431.663 205.261 431.665 205.229 431.668 205.197C431.68 205.033 431.69 204.87 431.697 204.705C431.698 204.683 431.699 204.661 431.7 204.639C431.707 204.464 431.712 204.288 431.714 204.113L431.715 204.08C431.707 202.023 431.484 199.972 431.049 197.964L432.3 161.676C439.072 161.784 445.844 161.529 452.59 160.914L453.332 178.227C453.332 178.227 453.332 189.605 457.125 194.777C460.37 199.203 464.121 218.779 465.135 224.333C463.741 227.043 461.076 230.394 456.435 230.291C456.435 230.291 447.702 229.521 448.195 231.971L448.196 231.975C448.21 232.039 448.228 232.102 448.251 232.163L448.257 232.179C448.284 232.249 448.315 232.318 448.351 232.384L448.359 232.398C448.394 232.461 448.435 232.526 448.48 232.593C448.489 232.607 448.498 232.62 448.508 232.634C448.559 232.706 448.614 232.78 448.678 232.857L448.694 232.875C448.752 232.944 448.816 233.015 448.885 233.088C448.904 233.108 448.923 233.128 448.943 233.148C449.021 233.229 449.103 233.31 449.195 233.394C453.677 237.532 479.88 238.221 479.88 238.221L479.88 238.205L479.88 238.195L479.88 238.143L479.88 238.128C479.88 238.102 479.879 238.068 479.879 238.032L479.879 238.018C479.863 236.821 479.708 230.538 478.138 225.809H478.501C478.501 225.809 474.709 190.984 471.606 186.847C471.606 186.847 470.781 168.484 472.642 156.976C472.756 156.934 472.872 156.892 472.985 156.849C481.677 153.538 482.294 145.383 481.398 139.391C483.043 139.93 484.018 140.299 484.018 140.299C484.018 140.299 483.988 140.038 483.932 139.577C483.987 139.598 484.018 139.609 484.018 139.609C484.018 139.609 483.852 138.515 483.579 136.805C482.958 132.107 481.753 123.896 480.47 120.02C480.263 119.168 480.065 118.439 479.88 117.887C479.14 115.558 478.631 113.158 478.362 110.725C478.011 107.572 477.833 104.401 477.83 101.227C477.858 96.9865 478.177 92.7528 478.783 88.5572C479.309 84.8927 479.783 80.7249 479.743 77.8146C479.779 76.801 479.71 75.7864 479.536 74.7877C479.075 72.639 477.043 71.2417 474.93 70.3527C474.794 70.2955 474.655 70.2484 474.518 70.1952C474.569 69.3808 474.636 68.4579 474.724 67.4849C474.977 67.6638 475.264 67.7883 475.566 67.8507C475.868 67.9131 476.179 67.9121 476.481 67.8478C477.389 67.645 478.04 66.8718 478.621 66.1444C481.677 62.316 484.815 58.3255 485.988 53.5698C486.457 51.4457 486.674 49.2718 486.635 47.0948C486.635 46.9759 486.635 46.8566 486.635 46.737C486.681 45.9209 486.587 45.1028 486.358 44.3195Z" fill="url(#paint0_linear)"/>
<path d="M458.535 62.9819C458.535 62.9819 463.165 70.0657 462.173 73.4389C461.181 76.8121 473.086 74.7882 473.086 74.7882C473.086 74.7882 473.416 61.6326 475.731 58.5967C478.046 55.5608 458.535 62.9819 458.535 62.9819Z" fill="#F7C4A7"/>
<path d="M427.947 67.5358C427.947 67.5358 418.356 59.4401 418.687 56.4042C418.687 56.4042 411.412 42.2366 408.766 49.3204C406.121 56.4042 413.727 63.8253 413.727 63.8253L422.986 76.3062L427.947 67.5358Z" fill="#F7C4A7"/>
<path d="M418.191 194.538C418.191 194.538 409.262 200.272 405.625 198.586C401.987 196.899 400.664 199.598 401.656 200.61C402.648 201.622 424.143 210.392 429.104 209.043C434.064 207.693 431.541 196.644 431.541 196.644L418.191 194.538Z" fill="#535461"/>
<path d="M465.48 219.163C465.48 219.163 463.33 228.439 455.89 228.27C455.89 228.27 444.646 227.258 448.945 231.306C453.244 235.354 478.377 236.029 478.377 236.029C478.377 236.029 478.377 222.198 473.747 219.163C469.118 216.127 465.48 219.163 465.48 219.163Z" fill="#535461"/>
<path d="M451.921 153.722L452.913 177.334C452.913 177.334 452.913 188.466 456.551 193.526C460.189 198.586 464.488 223.885 464.488 223.885H477.054C477.054 223.885 473.416 189.815 470.44 185.767C470.44 185.767 469.117 155.746 473.747 148.999L451.921 153.722Z" fill="#575988"/>
<path opacity="0.1" d="M451.921 153.722L452.913 177.334C452.913 177.334 452.913 188.466 456.551 193.526C460.189 198.586 464.488 223.885 464.488 223.885H477.054C477.054 223.885 473.416 189.815 470.44 185.767C470.44 185.767 469.117 155.746 473.747 148.999L451.921 153.722Z" fill="black"/>
<path d="M478.046 132.471C478.046 132.471 485.652 151.023 471.763 156.42C457.874 161.818 432.741 161.143 432.741 161.143L431.419 200.272C431.419 200.272 415.876 202.296 415.545 197.237V154.397C415.545 154.397 415.876 149.674 426.128 145.626C436.379 141.578 450.268 139.554 450.268 139.554L450.929 130.784L478.046 132.471Z" fill="#575988"/>
<path opacity="0.1" d="M465.859 71.3529C468.501 71.055 471.173 71.4404 473.629 72.4734C475.656 73.3432 477.605 74.7101 478.046 76.8123C478.569 79.302 477.989 84.8854 477.324 89.6087C476.259 97.0149 476.124 104.529 476.921 111.971C477.262 115.069 477.732 117.772 478.377 118.978C480.361 122.688 482.345 140.229 482.345 140.229C482.345 140.229 460.52 131.796 449.607 136.856C449.607 136.856 448.119 102.28 447.953 90.9799C447.825 82.2299 458.701 72.2584 462.338 71.9211C464.47 71.7234 463.741 71.5771 465.859 71.3529Z" fill="black"/>
<path d="M465.859 70.6781C468.501 70.3802 471.173 70.7656 473.629 71.7986C475.656 72.6684 477.605 74.0353 478.046 76.1375C478.569 78.6272 477.989 84.2106 477.324 88.9339C476.259 96.3401 476.124 103.855 476.921 111.296C477.179 113.675 477.666 116.022 478.377 118.303C479.865 122.857 482.345 139.554 482.345 139.554C482.345 139.554 460.52 131.121 449.607 136.181C449.607 136.181 448.119 101.605 447.953 90.3051C447.825 81.5551 458.701 71.5836 462.338 71.2463C464.47 71.0486 463.741 70.9023 465.859 70.6781Z" fill="#E14B5A"/>
<path opacity="0.1" d="M471.763 89.2932L448.284 87.9439C448.284 87.9439 446.789 76.2021 450.179 76.3227L473.416 77.1496C473.416 77.1496 478.377 83.2214 471.763 89.2932Z" fill="black"/>
<path d="M471.763 88.6184L444.977 87.2691C444.977 87.2691 424.143 80.86 418.191 73.7762C418.191 73.7762 418.522 61.2953 425.135 60.6206L440.78 72.3229C443.514 74.3687 446.79 75.5273 450.179 75.6479L473.417 76.4748C473.417 76.4748 478.377 82.5466 471.763 88.6184Z" fill="#E14B5A"/>
<path opacity="0.1" d="M472.92 64.4999C473.313 61.3012 474.735 60.2402 475.731 58.9341C478.046 55.8982 458.535 63.3193 458.535 63.3193C459.541 64.9003 460.423 66.5599 461.173 68.2825C462.731 69.0143 464.426 69.3926 466.141 69.3911C469.018 69.3911 470.862 66.2323 472.92 64.4999Z" fill="black"/>
<path d="M466.141 69.0539C472.716 69.0539 478.046 63.617 478.046 56.9102C478.046 50.2035 472.716 44.7666 466.141 44.7666C459.566 44.7666 454.236 50.2035 454.236 56.9102C454.236 63.617 459.566 69.0539 466.141 69.0539Z" fill="#F7C4A7"/>
<path opacity="0.1" d="M458.623 48.3982C457.355 46.9858 456.746 45.1015 456.171 43.2786L454.853 39.1002C456.645 40.1808 458.557 37.7454 460.613 37.4096C462.085 37.1691 463.476 38.0467 464.832 38.6794C470.718 41.4256 478.387 40.0628 483.127 44.5587C483.775 45.1304 484.276 45.8538 484.589 46.6669C484.81 47.4383 484.9 48.2425 484.855 49.0447C484.893 51.1738 484.685 53.3 484.235 55.3793C483.109 60.032 480.1 63.936 477.169 67.6814C476.612 68.393 475.987 69.1495 475.116 69.3479C473.414 69.7356 472.098 67.8594 471.439 66.2126C470.567 64.0314 469.924 61.7621 469.521 59.4427C469.418 58.4507 469.153 57.4834 468.735 56.5815C467.71 54.7285 465.184 52.9751 463.648 51.5397C462.139 50.129 460.034 49.9694 458.623 48.3982Z" fill="black"/>
<path d="M458.623 48.061C457.355 46.6487 456.746 44.7644 456.171 42.9414L454.853 38.7631C456.645 39.8436 458.557 37.4082 460.613 37.0724C462.085 36.8319 463.476 37.7096 464.832 38.3422C470.718 41.0885 478.387 39.7256 483.127 44.2215C483.775 44.7932 484.276 45.5167 484.589 46.3298C484.81 47.1012 484.9 47.9053 484.855 48.7076C484.893 50.8366 484.685 52.9628 484.235 55.0422C483.109 59.6949 480.1 63.5989 477.169 67.3442C476.612 68.0558 475.987 68.8123 475.116 69.0108C473.414 69.3984 472.098 67.5222 471.439 65.8755C470.567 63.6943 469.924 61.425 469.521 59.1056C469.418 58.1135 469.153 57.1462 468.735 56.2443C467.71 54.3913 465.184 52.6379 463.648 51.2026C462.139 49.7918 460.034 49.6322 458.623 48.061Z" fill="#632652"/>
<path d="M469.283 60.4521C469.831 60.4521 470.275 59.4704 470.275 58.2595C470.275 57.0486 469.831 56.0669 469.283 56.0669C468.735 56.0669 468.291 57.0486 468.291 58.2595C468.291 59.4704 468.735 60.4521 469.283 60.4521Z" fill="#F7C4A7"/>
<path opacity="0.1" d="M475.235 116.785C475.235 116.785 474.574 118.809 471.267 118.472C467.96 118.134 458.37 117.46 458.37 118.472" fill="black"/>
<path opacity="0.5" d="M448.945 230.969C448.491 230.611 448.155 230.12 447.983 229.561C447.896 230 448.162 230.569 448.945 231.306C453.244 235.354 478.377 236.029 478.377 236.029C478.377 236.029 478.377 235.909 478.373 235.691C478.214 235.687 453.231 235.004 448.945 230.969Z" fill="white"/>
<path opacity="0.5" d="M429.104 208.368C424.143 209.717 402.648 200.947 401.656 199.935C401.524 199.798 401.429 199.628 401.381 199.442C401.324 199.644 401.319 199.858 401.367 200.063C401.415 200.268 401.515 200.456 401.656 200.61C402.648 201.622 424.143 210.392 429.104 209.043C431.657 208.348 432.226 205.085 432.178 202.08C432.13 204.882 431.466 207.725 429.104 208.368Z" fill="white"/>
<path d="M240.462 234.221C239.302 227.639 238.59 220.984 238.332 214.302V214.302C238.105 208.799 236.213 203.503 232.917 199.14C229.621 194.777 225.083 191.562 219.924 189.935C218.045 189.345 215.974 188.794 213.689 188.299C193.649 183.958 187.562 187.748 186.87 188.247C186.286 187.158 185.779 186.029 185.353 184.867C185.319 184.749 185.287 184.629 185.255 184.509C189.22 180.195 191.637 174.637 192.109 168.742C195.452 165.285 197.405 161.113 197.405 156.622C197.405 152.76 195.959 149.134 193.428 145.995V139.9C193.428 136.414 192.755 132.963 191.447 129.742C190.14 126.522 188.223 123.595 185.806 121.13C183.39 118.666 180.521 116.71 177.364 115.376C174.207 114.042 170.823 113.356 167.405 113.356H165.295C161.878 113.356 158.494 114.042 155.336 115.376C152.179 116.71 149.31 118.666 146.894 121.13C144.478 123.595 142.561 126.522 141.253 129.742C139.945 132.963 139.272 136.414 139.272 139.9V146.48C136.991 149.353 135.724 152.925 135.674 156.622C135.674 161.019 137.548 165.108 140.763 168.523C141.202 174.634 143.729 180.394 147.905 184.8C148.045 185.796 148.19 186.87 148.332 188.001L112.478 195.736C112.478 195.736 98.655 196.315 89.7552 215.051C82.2209 230.913 67.2232 271.69 62.7982 283.83H62.7982L62.7982 283.83C61.9963 286.03 61.541 287.291 61.541 287.291C61.541 287.291 61.6878 287.139 61.9694 286.881C61.6909 287.648 61.541 288.063 61.541 288.063C61.541 288.063 61.7587 287.839 62.1722 287.47C61.5442 292.55 61.4546 301.27 67.9791 302.357C73.4483 303.268 87.5358 303.642 98.1816 303.795V303.805H98.9199C105.974 303.902 111.342 303.902 111.342 303.902V303.805H225.808V302.609C225.81 301.522 225.595 300.446 225.178 299.446C225.233 299.381 225.286 299.316 225.337 299.251C225.95 300.076 226.357 301.04 226.525 302.06C226.512 302.16 226.494 302.259 226.471 302.357C226.471 302.357 226.495 302.295 226.539 302.178C226.566 302.497 226.543 302.818 226.471 303.129C226.471 303.129 241.157 264.53 241 241.483C241.043 239.051 240.862 236.619 240.462 234.221ZM148.92 193.213C148.73 192.112 148.609 191 148.556 189.884L148.557 189.853C148.684 190.937 148.806 192.061 148.92 193.213ZM104.43 276.12V285.32L98.7771 286.551L104.43 276.12Z" fill="url(#paint1_linear)"/>
<path d="M165.763 117.068H165.763C172.664 117.068 179.283 119.865 184.164 124.843C189.044 129.821 191.786 136.573 191.786 143.613V154.936H139.74V143.613C139.74 136.573 142.481 129.821 147.362 124.843C152.242 119.865 158.861 117.068 165.763 117.068Z" fill="#E14B5A"/>
<path d="M165.945 179.439C182.327 179.439 195.607 170.131 195.607 158.649C195.607 147.167 182.327 137.859 165.945 137.859C149.563 137.859 136.282 147.167 136.282 158.649C136.282 170.131 149.563 179.439 165.945 179.439Z" fill="#E14B5A"/>
<path d="M146.928 178.789C146.928 178.789 153.115 211.831 146.928 220.741C140.741 229.651 165.854 233.178 165.854 233.178L191.877 223.526L195.516 199.765C195.516 199.765 179.684 190.67 182.96 172.292L146.928 178.789Z" fill="#F7C4A7"/>
<path d="M223.723 290.166C223.723 290.166 225.361 297.405 216.444 298.705C211.178 299.495 205.823 299.43 200.577 298.512L198.61 280.328H219.355L223.723 290.166Z" fill="#F7C4A7"/>
<path d="M66.2456 280.899C66.2456 280.899 62.3077 297.22 71.2246 298.705C80.1416 300.19 112.898 300.19 112.898 300.19V280.884L98.0692 284.115L84.1451 270.489L66.2456 280.899Z" fill="#F7C4A7"/>
<path opacity="0.1" d="M148.839 189.463L113.99 196.981C113.99 196.981 100.705 197.538 92.1524 215.543C83.5994 233.549 65.0376 284.968 65.0376 284.968C65.0376 284.968 80.8697 268.633 99.4315 286.082L111.806 263.25L109.076 299.447H204.979V282.369C204.979 282.369 224.997 293.321 223.541 299.447C223.541 299.447 240.67 254.427 236.986 233.966C235.871 227.641 235.188 221.245 234.94 214.824V214.824C234.721 209.535 232.903 204.445 229.736 200.252C226.568 196.06 222.206 192.969 217.249 191.406C215.443 190.839 213.452 190.31 211.257 189.834C190.694 185.379 185.416 189.834 185.416 189.834C185.416 189.834 181.433 203.055 181.504 209.046C181.595 216.75 170.767 221.855 170.767 221.855C170.767 221.855 154.753 217.957 154.025 214.801C153.297 211.645 147.565 193.175 148.839 189.463Z" fill="black"/>
<path d="M148.839 188.72L113.99 196.238C113.99 196.238 100.705 196.795 92.1524 214.801C83.5994 232.807 65.0376 284.226 65.0376 284.226C65.0376 284.226 80.8697 267.89 99.4315 285.339L111.806 262.507L109.076 298.704H204.979V281.627C204.979 281.627 224.997 292.579 223.541 298.704C223.541 298.704 240.67 253.684 236.986 233.224C235.871 226.899 235.188 220.503 234.94 214.081V214.081C234.721 208.793 232.903 203.703 229.736 199.51C226.568 195.317 222.206 192.227 217.249 190.663C215.443 190.097 213.452 189.567 211.257 189.092C190.694 184.637 185.416 189.092 185.416 189.092C185.416 189.092 181.433 202.312 181.504 208.304C181.595 216.008 170.767 221.112 170.767 221.112C170.767 221.112 154.753 217.214 154.025 214.058C153.297 210.903 147.565 192.433 148.839 188.72Z" fill="#575988"/>
<path opacity="0.1" d="M184.455 187.143C182.991 182.915 182.663 178.364 183.505 173.963L147.474 180.46C147.474 180.46 147.994 183.238 148.582 187.399C150.91 189.864 153.706 191.82 156.799 193.148C159.891 194.476 163.217 195.148 166.572 195.124C169.928 195.1 173.243 194.38 176.318 193.008C179.392 191.636 182.16 189.641 184.455 187.143Z" fill="black"/>
<path d="M190.603 168.209C190.603 174.851 188.036 181.226 183.46 185.951C178.883 190.677 172.665 193.372 166.154 193.452C159.642 193.533 153.362 190.992 148.675 186.382C143.987 181.771 141.27 175.462 141.112 168.821C141.106 168.617 141.104 168.413 141.104 168.209C141.104 163.482 142.404 158.85 144.856 154.839C147.309 150.829 150.816 147.601 154.979 145.523C155.721 145.154 156.484 144.821 157.266 144.525C161.34 142.997 165.734 142.581 170.014 143.318C170.016 143.32 170.02 143.32 170.023 143.32C175.505 144.272 180.512 147.081 184.236 151.294C187.96 155.506 190.184 160.876 190.548 166.536C190.584 167.089 190.603 167.647 190.603 168.209Z" fill="#F7C4A7"/>
<g opacity="0.1">
<path opacity="0.1" d="M157.231 145.117C157.243 145.109 157.254 145.101 157.266 145.095C156.483 145.39 155.721 145.723 154.979 146.093C150.816 148.171 147.309 151.399 144.856 155.409C142.404 159.42 141.104 164.052 141.104 168.779C141.104 168.983 141.106 169.187 141.112 169.391C141.881 169.371 142.637 169.185 143.332 168.848C149.366 165.976 152.986 157.186 154.407 151.057C154.917 148.863 155.404 146.39 157.231 145.117Z" fill="black"/>
<path opacity="0.1" d="M176.175 145.826C174.217 144.908 172.148 144.257 170.023 143.89C171.766 144.299 173.323 145.296 174.441 146.721C174.989 147.481 175.443 148.307 175.794 149.18C172.5 147.711 168.933 146.99 165.339 147.066C161.745 147.142 158.21 148.013 154.979 149.62C156.533 153.093 161.35 154.989 164.565 156.256C168.086 157.643 171.649 158.911 175.253 160.06C174.192 159.18 173.131 158.301 172.07 157.424C174.465 157.812 176.86 158.201 179.256 158.59C179.334 157.131 179.164 155.669 178.755 154.268C180.123 155.4 181.957 155.779 183.451 156.741C186.251 158.541 187.416 162.016 188.943 165.012C189.296 165.837 189.849 166.557 190.548 167.106C190.253 162.568 188.762 158.195 186.232 154.449C183.702 150.703 180.228 147.724 176.175 145.826Z" fill="black"/>
</g>
<path d="M157.231 144.547C157.243 144.539 157.254 144.531 157.266 144.524C156.483 144.82 155.721 145.152 154.979 145.523C150.816 147.601 147.309 150.828 144.856 154.839C142.404 158.849 141.104 163.482 141.104 168.209C141.104 168.413 141.106 168.617 141.112 168.821C141.881 168.8 142.637 168.615 143.332 168.277C149.366 165.406 152.986 156.616 154.407 150.487C154.917 148.293 155.404 145.82 157.231 144.547Z" fill="#632652"/>
<path d="M176.175 145.256C174.217 144.338 172.148 143.687 170.023 143.32C171.766 143.729 173.323 144.726 174.441 146.151C174.989 146.911 175.443 147.737 175.794 148.61C172.5 147.141 168.933 146.42 165.339 146.496C161.745 146.572 158.21 147.443 154.979 149.05C156.533 152.523 161.35 154.418 164.565 155.686C168.086 157.073 171.649 158.341 175.253 159.49C174.192 158.61 173.131 157.731 172.07 156.854C174.465 157.242 176.86 157.63 179.256 158.02C179.334 156.561 179.164 155.099 178.755 153.698C180.123 154.83 181.957 155.209 183.451 156.171C186.251 157.971 187.416 161.446 188.943 164.442C189.296 165.267 189.849 165.987 190.548 166.536C190.253 161.998 188.762 157.625 186.232 153.879C183.702 150.133 180.228 147.154 176.175 145.256Z" fill="#632652"/>
<path opacity="0.1" d="M138.284 164.045C138.284 164.045 163.761 131.746 193.241 164.045L190.693 156.806C190.693 156.806 176.863 136.201 167.036 140.656C157.209 145.111 147.565 148.267 147.565 148.267L138.284 164.045Z" fill="black"/>
<path d="M138.284 163.475C138.284 163.475 163.761 131.176 193.241 163.475L190.693 156.236C190.693 156.236 176.863 135.631 167.036 140.086C157.209 144.541 147.565 147.697 147.565 147.697L138.284 163.475Z" fill="#E14B5A"/>
<path opacity="0.1" d="M117.356 233.085C117.356 233.085 111.897 247.935 119.54 261.301C127.183 274.666 112.807 280.235 112.807 280.235" fill="black"/>
<path opacity="0.1" d="M205.798 219.72C205.798 219.72 215.261 231.971 209.073 242.923C202.886 253.875 203.25 280.234 203.25 280.234" fill="black"/>
<path d="M108.985 291.187H214.169C216.486 291.187 218.707 292.125 220.345 293.796C221.984 295.467 222.904 297.733 222.904 300.097H100.25C100.25 297.733 101.171 295.467 102.809 293.796C104.447 292.125 106.669 291.187 108.985 291.187H108.985Z" fill="#535461"/>
<path d="M124.808 229.93H198.347C203.267 229.93 207.986 231.923 211.465 235.472C214.944 239.021 216.899 243.835 216.899 248.854V293.229H106.256V248.854C106.256 243.835 108.21 239.021 111.69 235.472C115.169 231.923 119.888 229.93 124.808 229.93Z" fill="#535461"/>
<path d="M161.486 271.046C165.104 271.046 168.037 268.054 168.037 264.363C168.037 260.673 165.104 257.681 161.486 257.681C157.868 257.681 154.935 260.673 154.935 264.363C154.935 268.054 157.868 271.046 161.486 271.046Z" fill="white"/>
<path opacity="0.1" d="M139.74 148.901C139.74 148.901 164.78 123.373 191.786 148.436" stroke="black" stroke-miterlimit="10"/>
<path d="M198.113 147.275H195.598V161.812H198.113V147.275Z" fill="#6A5C99"/>
<path d="M192.245 156.681C194.542 156.681 196.745 157.612 198.37 159.269C199.994 160.926 200.907 163.174 200.907 165.517V166.087C200.907 168.431 199.994 170.678 198.37 172.335C196.745 173.993 194.542 174.923 192.245 174.923V156.681Z" fill="#FFD037"/>
<path d="M192.524 155.826H192.524C191.444 155.826 190.568 156.719 190.568 157.821V173.783C190.568 174.885 191.444 175.779 192.524 175.779H192.524C193.605 175.779 194.48 174.885 194.48 173.783V157.821C194.48 156.719 193.605 155.826 192.524 155.826Z" fill="#6A5C99"/>
<path d="M133.156 162.097H135.67V147.56H133.156V162.097Z" fill="#6A5C99"/>
<path d="M139.023 175.208C136.726 175.208 134.523 174.278 132.898 172.62C131.274 170.963 130.361 168.716 130.361 166.372V165.802C130.361 163.459 131.274 161.211 132.898 159.554C134.523 157.897 136.726 156.966 139.023 156.966V175.208Z" fill="#FFD037"/>
<path d="M138.744 176.063H138.744C139.824 176.063 140.7 175.17 140.7 174.068V158.106C140.7 157.004 139.824 156.111 138.744 156.111H138.744C137.663 156.111 136.788 157.004 136.788 158.106V174.068C136.788 175.17 137.663 176.063 138.744 176.063Z" fill="#6A5C99"/>
<path d="M195.3 131.737C191.895 124.515 184.479 115.783 168.492 115.086L168.493 115.066L168.301 115.075L168.289 115.075L168.289 115.076L162.625 115.351L162.625 115.38C146.744 116.125 139.362 124.823 135.968 132.022C133.711 136.899 132.513 142.216 132.457 147.609L134.413 147.56L136.368 147.514C136.454 142.708 137.539 137.974 139.553 133.627C143.864 124.595 151.797 119.79 163.129 119.347L163.129 119.344L168.139 119.061L168.138 119.062C179.471 119.505 187.404 124.31 191.715 133.342C193.729 137.689 194.814 142.423 194.9 147.229L196.855 147.275L198.811 147.324C198.755 141.931 197.557 136.614 195.3 131.737Z" fill="#FFD037"/>
<path d="M284.651 300.214H17.8931V373.271H284.651V300.214Z" fill="#D6D6E3"/>
<path opacity="0.1" d="M284.651 305.131H17.8931V314.615H284.651V305.131Z" fill="black"/>
<path d="M302.542 299.16H0V308.644H302.542V299.16Z" fill="#D6D6E3"/>
<path d="M207.166 275.576C207.166 275.576 218.583 296.927 247.124 291.104C275.666 285.281 261.871 344.964 261.871 344.964C261.871 344.964 257.201 373.435 260.487 373.272" stroke="#535461" stroke-width="3" stroke-miterlimit="10"/>
</g>
<defs>
<linearGradient id="paint0_linear" x1="443.097" y1="238.221" x2="443.097" y2="34.8155" gradientUnits="userSpaceOnUse">
<stop stop-color="#808080" stop-opacity="0.25"/>
<stop offset="0.53514" stop-color="#808080" stop-opacity="0.12"/>
<stop offset="1" stop-color="#808080" stop-opacity="0.1"/>
</linearGradient>
<linearGradient id="paint1_linear" x1="63890.8" y1="131909" x2="63890.8" y2="57082.6" gradientUnits="userSpaceOnUse">
<stop stop-color="#808080" stop-opacity="0.25"/>
<stop offset="0.53514" stop-color="#808080" stop-opacity="0.12"/>
<stop offset="1" stop-color="#808080" stop-opacity="0.1"/>
</linearGradient>
<clipPath id="clip0">
<rect width="535" height="374" fill="white"/>
</clipPath>
</defs>
</svg>
