<svg width="233" height="195" viewBox="0 0 233 195" fill="none" xmlns="http://www.w3.org/2000/svg">
<g clip-path="url(#clip0)">
<path d="M123.74 18.2812H192.912V146.25H134.662V109.688H105.537V88.3594L90.9746 82.2656L105.537 57.7805V33.5156L123.74 18.2812Z" fill="#FFDECF"/>
<path d="M160.146 3.04688C152.33 3.30574 144.585 4.4022 137.101 6.3065C101.205 14.8996 90.9746 44.9117 90.9746 44.9117C90.9746 44.9117 145.476 48.7798 160.146 33.1809C162.555 30.6934 163.844 27.5766 163.787 24.375V51.7969H167.428C173.459 51.7969 178.35 55.8896 178.35 60.9375V70.7521C178.232 74.2497 176.078 77.4781 172.579 79.3958C169.344 81.3165 167.424 84.4303 167.428 87.7494V91.4062L192.912 106.641L213.3 86.5042C223.648 76.2716 229.324 63.2985 229.318 49.8926C229.318 24.0209 204.257 3.04688 173.344 3.04688H160.146Z" fill="#50575E"/>
<path d="M98.2559 195V185.859L134.662 140.156C154.92 139.766 174.819 135.604 192.912 127.969L229.318 164.985V195H98.2559Z" fill="#FFCCD9"/>
<path d="M141.943 195V181.292L174.709 164.531L207.475 181.292V195H141.943Z" fill="#FFADAD"/>
<path d="M73.5807 67.7081C57.9409 80.7956 57.9409 102.017 73.5807 115.104L52.9848 132.341C26.0161 109.719 26.0161 73.0936 52.9848 50.4712L73.5807 67.7081Z" fill="#00C3FF"/>
<path d="M192.912 60.9375C192.912 77.7652 176.613 91.4062 156.506 91.4062C136.399 91.4062 120.1 77.7652 120.1 60.9375C120.1 44.1098 136.399 30.4688 156.506 30.4688C176.613 30.4688 192.912 44.1098 192.912 60.9375Z" fill="#9CCC65"/>
<path d="M52.9846 50.4712C26.0159 73.0937 26.0159 109.719 52.9846 132.341L32.3906 149.576C-5.93553 117.428 -5.93553 65.3842 32.3906 33.2358L52.9846 50.4712Z" fill="#91E8ED"/>
<path d="M149.225 74.3865L135.729 63.0917L140.877 58.7832L149.225 65.7696L172.135 46.5957L177.283 50.9042L149.225 74.3865Z" fill="white"/>
<path d="M196.553 107.756L216.077 88.4665C226.968 77.6849 232.948 64.0261 232.959 49.9075C232.975 36.6682 226.696 23.9659 215.51 14.6036C204.323 5.24131 189.145 -0.013364 173.326 2.55261e-05H160.066C151.944 0.270793 143.897 1.40444 136.118 3.37569C98.686 12.3303 87.9134 42.7842 87.4726 44.0756L86.2602 47.6372L90.6688 47.9422C91.0332 47.9705 95.4009 48.268 101.896 48.3602V57.062L86.0967 83.6269L101.896 90.2429V112.734H131.021V139.243L94.6152 184.946V195H101.896V186.773L136.642 143.154C144.955 142.995 153.228 142.128 161.33 140.564L170.339 163.197L138.303 179.583V195H145.584V183.001L174.709 168.102L203.834 183.001V195H211.115V179.583L177.742 162.52L168.407 139.084C176.472 137.19 184.337 134.744 191.922 131.771L225.678 166.076V195H232.959V163.892L196.553 126.878V107.756ZM189.271 126.064C173.306 132.486 155.989 136.212 138.303 137.034V112.734H143.341L154.918 106.108L150.812 101.08L141.088 106.641H109.178V86.4759L95.8524 80.9014L109.178 58.5006V48.3632C112.433 48.3171 115.935 48.2115 119.572 47.9972C113.78 59.5167 116.137 72.7769 125.687 82.3847C135.236 91.9939 150.385 96.35 164.975 93.6825L189.271 108.207V126.064ZM123.74 60.9375C123.74 45.7924 138.409 33.5156 156.506 33.5156C174.602 33.5156 189.271 45.7924 189.271 60.9375C189.271 76.0826 174.602 88.3594 156.506 88.3594C138.418 88.343 123.76 76.0752 123.74 60.9375ZM173.449 91.2635C188.676 85.3259 197.85 72.0613 196.419 58.0543C194.987 44.0473 183.256 32.2793 167.045 28.5927C150.835 24.9047 133.601 30.0835 123.893 41.5568C114.649 42.2843 105.358 42.4688 96.0817 42.1103C100.048 34.1702 111.915 15.5052 138.105 9.23587C145.264 7.41191 152.67 6.35562 160.146 6.09378H173.326C187.215 6.08039 200.54 10.6924 210.361 18.9121C220.183 27.1318 225.694 38.2838 225.678 49.9075C225.667 62.5844 220.299 74.8478 210.521 84.53L192.301 102.53L173.449 91.2635Z" fill="black"/>
<path d="M34.9646 35.3901L29.813 31.0786C-9.93701 64.4172 -9.93701 118.395 29.813 151.734L34.9611 147.427C-1.93937 116.465 -1.93937 66.3527 34.9611 35.393L34.9646 35.3901Z" fill="black"/>
<path d="M50.4107 48.3169C22.0181 72.1295 22.0181 110.683 50.4107 134.495L55.5587 130.187C30.0104 108.753 30.0104 74.0591 55.5587 52.6254L50.4107 48.3169Z" fill="black"/>
<path d="M71.0065 65.5537C53.9731 79.8404 53.9731 102.972 71.0065 117.258L76.1546 112.95C61.9547 101.045 61.9547 81.767 76.1546 69.8622L71.0065 65.5537Z" fill="black"/>
</g>
<defs>
<clipPath id="clip0">
<rect width="233" height="195" fill="white"/>
</clipPath>
</defs>
</svg>
