<svg width="121" height="112" viewBox="0 0 121 112" fill="none" xmlns="http://www.w3.org/2000/svg">
<path d="M56.7188 49H69.9531V52.5H56.7188V49Z" fill="#0071BC"/>
<path d="M56.7188 56H69.9531V59.5H56.7188V56Z" fill="#0071BC"/>
<path d="M56.7188 63H69.9531V66.5H56.7188V63Z" fill="#0071BC"/>
<path d="M88.8594 49H96.4219V52.5H88.8594V49Z" fill="#0071BC"/>
<path d="M88.8594 56H96.4219V59.5H88.8594V56Z" fill="#0071BC"/>
<path d="M88.8594 63H96.4219V66.5H88.8594V63Z" fill="#0071BC"/>
<path d="M69.9531 40.25H73.7344V49H69.9531V40.25Z" fill="#0071BC"/>
<path d="M77.5156 40.25H81.2969V49H77.5156V40.25Z" fill="#0071BC"/>
<path d="M85.0781 40.25H88.8594V49H85.0781V40.25Z" fill="#0071BC"/>
<path d="M69.9531 66.5H73.7344V75.25H69.9531V66.5Z" fill="#0071BC"/>
<path d="M77.5156 66.5H81.2969V75.25H77.5156V66.5Z" fill="#0071BC"/>
<path d="M85.0781 66.5H88.8594V75.25H85.0781V66.5Z" fill="#0071BC"/>
<path d="M83.1875 20.9999H58.6094V17.4999H82.4048L91.304 9.2627L93.9773 11.7372L84.5242 20.4872C84.1697 20.8154 83.6889 20.9998 83.1875 20.9999Z" fill="#6CBBC7"/>
<path d="M98.3125 8.75C98.3125 6.817 96.6196 5.25 94.5312 5.25C92.4429 5.25 90.75 6.817 90.75 8.75C90.75 10.683 92.4429 12.25 94.5312 12.25C96.6196 12.25 98.3125 10.683 98.3125 8.75Z" fill="#FFB8B8"/>
<path d="M83.7414 102.737L78.6235 98H58.6094V94.5H79.4062C79.9076 94.5001 80.3884 94.6845 80.7429 95.0127L86.4148 100.263L83.7414 102.737Z" fill="#6CBBC7"/>
<path d="M90.75 103.25C90.75 101.317 89.0571 99.75 86.9688 99.75C84.8804 99.75 83.1875 101.317 83.1875 103.25C83.1875 105.183 84.8804 106.75 86.9688 106.75C89.0571 106.75 90.75 105.183 90.75 103.25Z" fill="#FFB8B8"/>
<path d="M105.875 96.25H102.094V87.5H60.5V84H103.984C104.486 84 104.967 84.1844 105.321 84.5126C105.676 84.8408 105.875 85.2859 105.875 85.75V96.25Z" fill="#6CBBC7"/>
<path d="M107.766 98C107.766 96.067 106.073 94.5 103.984 94.5C101.896 94.5 100.203 96.067 100.203 98C100.203 99.933 101.896 101.5 103.984 101.5C106.073 101.5 107.766 99.933 107.766 98Z" fill="#FFB8B8"/>
<path d="M98.3125 31.4999H60.5V27.9999H97.5298L104.538 21.5127L107.212 23.9872L99.6492 30.9872C99.2947 31.3154 98.8139 31.4998 98.3125 31.4999Z" fill="#6CBBC7"/>
<path d="M111.547 21C111.547 19.067 109.854 17.5 107.766 17.5C105.677 17.5 103.984 19.067 103.984 21C103.984 22.933 105.677 24.5 107.766 24.5C109.854 24.5 111.547 22.933 111.547 21Z" fill="#FFB8B8"/>
<path d="M58.6094 38.5H111.547V42H58.6094V38.5Z" fill="#6CBBC7"/>
<path d="M115.328 40.25C115.328 38.317 113.635 36.75 111.547 36.75C109.459 36.75 107.766 38.317 107.766 40.25C107.766 42.183 109.459 43.75 111.547 43.75C113.635 43.75 115.328 42.183 115.328 40.25Z" fill="#FFB8B8"/>
<path d="M58.6094 73.5H113.438V77H58.6094V73.5Z" fill="#6CBBC7"/>
<path d="M115.328 75.25C115.328 73.317 113.635 71.75 111.547 71.75C109.459 71.75 107.766 73.317 107.766 75.25C107.766 77.183 109.459 78.75 111.547 78.75C113.635 78.75 115.328 77.183 115.328 75.25Z" fill="#FFB8B8"/>
<path d="M49.1563 3.5C45.9771 3.50521 42.9059 4.56884 40.5038 6.49662C38.1018 8.4244 36.529 11.0877 36.0729 14H35.9219C32.9916 13.9969 30.1103 14.6951 27.5575 16.0268C25.0047 17.3586 22.8673 19.2786 21.3527 21.6005C19.8381 23.9224 18.9978 26.5674 18.9133 29.2786C18.8289 31.9898 19.5031 34.6751 20.8706 37.074C16.7738 37.7565 12.9931 39.5628 10.0189 42.2586C7.04479 44.9544 5.01446 48.4153 4.19134 52.1922C3.36821 55.9692 3.79028 59.888 5.40278 63.4402C7.01529 66.9924 9.74381 70.0141 13.2344 72.1133V75.25C13.2389 77.729 14.1902 80.1267 15.9201 82.0192C17.65 83.9117 20.0471 85.1772 22.6875 85.5919V87.5C22.6908 90.2839 23.887 92.9528 26.0136 94.9213C28.1403 96.8898 31.0237 97.997 34.0313 98H36.0729C36.5487 101.065 38.2617 103.849 40.8668 105.792C43.4719 107.735 46.7755 108.691 50.1123 108.47C53.449 108.248 56.571 106.864 58.8493 104.596C61.1276 102.329 62.3931 99.3465 62.3907 96.25V15.75C62.3866 12.5023 60.991 9.3886 58.5099 7.0921C56.0289 4.79559 52.665 3.50376 49.1563 3.5Z" fill="#FFB8B8"/>
<path d="M68.0625 47.25H90.75V68.25H68.0625V47.25Z" fill="#6CBBC7"/>
<path d="M57.2066 6.04956C58.1336 10.9869 58.6029 15.9886 58.6094 21C58.6094 48.7375 44.6493 73.4438 22.8955 89.4745C23.3939 91.8711 24.7776 94.0326 26.8094 95.5882C28.8413 97.1437 31.3945 97.9964 34.0313 98H36.0729C36.5488 101.065 38.2617 103.849 40.8668 105.792C43.4719 107.735 46.7755 108.692 50.1123 108.47C53.449 108.248 56.571 106.864 58.8493 104.596C61.1277 102.329 62.3931 99.3466 62.3907 96.25V15.75C62.389 13.8733 61.9205 12.0221 61.0215 10.3399C60.1225 8.65766 58.8172 7.18964 57.2066 6.04956Z" fill="#FFADAD"/>
<path d="M37.8125 78.75C35.3063 78.7473 32.9035 77.8245 31.1314 76.1842C29.3592 74.5438 28.3623 72.3198 28.3594 70V68.25H32.1406V70C32.1406 71.3924 32.7382 72.7277 33.8019 73.7123C34.8656 74.6969 36.3082 75.25 37.8125 75.25C39.3168 75.25 40.7594 74.6969 41.8231 73.7123C42.8868 72.7277 43.4844 71.3924 43.4844 70V68.25H47.2656V70C47.2627 72.3198 46.2658 74.5438 44.4936 76.1842C42.7215 77.8245 40.3187 78.7473 37.8125 78.75Z" fill="#B22639"/>
<path d="M39.7031 64.75H35.9219V61.25C35.9219 59.8576 35.3243 58.5223 34.2606 57.5377C33.1969 56.5531 31.7543 56 30.25 56C28.7457 56 27.3031 56.5531 26.2394 57.5377C25.1757 58.5223 24.5781 59.8576 24.5781 61.25V64.75H20.7969V61.25C20.7969 58.9294 21.7928 56.7038 23.5656 55.0628C25.3384 53.4219 27.7429 52.5 30.25 52.5C32.7571 52.5 35.1616 53.4219 36.9344 55.0628C38.7072 56.7038 39.7031 58.9294 39.7031 61.25V64.75Z" fill="#B22639"/>
<path d="M41.5938 52.5H39.7031V49H41.5938C43.5994 49 45.523 48.2625 46.9412 46.9497C48.3595 45.637 49.1562 43.8565 49.1562 42C49.1562 40.1435 48.3595 38.363 46.9412 37.0503C45.523 35.7375 43.5994 35 41.5938 35H39.7031V31.5H41.5938C44.6023 31.5 47.4876 32.6062 49.615 34.5754C51.7424 36.5445 52.9375 39.2152 52.9375 42C52.9375 44.7848 51.7424 47.4555 49.615 49.4246C47.4876 51.3938 44.6023 52.5 41.5938 52.5Z" fill="#B22639"/>
<path d="M45.375 98H43.4844V94.5H45.375C46.8793 94.5 48.3219 93.9469 49.3856 92.9623C50.4493 91.9777 51.0469 90.6424 51.0469 89.25C51.0469 87.8576 50.4493 86.5223 49.3856 85.5377C48.3219 84.5531 46.8793 84 45.375 84H43.4844V80.5H45.375C47.8821 80.5 50.2866 81.4219 52.0594 83.0628C53.8322 84.7038 54.8281 86.9294 54.8281 89.25C54.8281 91.5706 53.8322 93.7962 52.0594 95.4372C50.2866 97.0781 47.8821 98 45.375 98Z" fill="#B22639"/>
<path d="M44.3625 27.9999C43.2361 28.0029 42.1201 27.7991 41.0794 27.4001C40.0386 27.0011 39.0937 26.415 38.2993 25.6757L36.4751 23.9872L39.1503 21.5127L40.9736 23.201C41.8743 24.0257 43.091 24.4869 44.358 24.4837C45.6249 24.4806 46.839 24.0133 47.7348 23.184C48.6306 22.3547 49.1353 21.2309 49.1386 20.0582C49.1419 18.8855 48.6436 17.7593 47.7524 16.9257L45.9282 15.2372L48.6035 12.7627L50.4267 14.451C51.6258 15.5611 52.4423 16.9754 52.773 18.515C53.1037 20.0546 52.9338 21.6504 52.2847 23.1007C51.6356 24.5509 50.5365 25.7904 49.1264 26.6625C47.7163 27.5345 46.0584 28 44.3625 27.9999Z" fill="#B22639"/>
<path d="M62.3906 71.75H58.6094V68.25C58.6064 65.9302 57.6095 63.7062 55.8374 62.0658C54.0652 60.4255 51.6625 59.5027 49.1562 59.5H47.2656V56H49.1562C52.665 56.0038 56.0288 57.2956 58.5099 59.5921C60.9909 61.8886 62.3866 65.0023 62.3906 68.25V71.75Z" fill="#B22639"/>
<path d="M68.0625 65.4358V68.25H90.75V50.2147C84.044 56.3009 76.398 61.4306 68.0625 65.4358Z" fill="#518C95"/>
<path d="M75.625 54.25H83.1875V61.25H75.625V54.25Z" fill="#0071BC"/>
<path d="M75.8413 61.2499H83.1876V56.3757C80.8271 58.1053 78.3784 59.73 75.8413 61.2499Z" fill="#005A97"/>
</svg>
