<svg width="173" height="174" viewBox="0 0 173 174" fill="none" xmlns="http://www.w3.org/2000/svg">
<path fill-rule="evenodd" clip-rule="evenodd" d="M8.94828 12H86.5V162H8.94828C4.00628 162 0 157.971 0 153V21C0 16.0294 4.00628 12 8.94828 12Z" fill="#464F5D"/>
<path d="M92.4653 168V6C92.4653 2.68629 89.7945 0 86.4998 0C83.2051 0 80.5343 2.68629 80.5343 6V168C80.5343 171.314 83.2051 174 86.4998 174C89.7945 174 92.4653 171.314 92.4653 168Z" fill="#BDC3C7"/>
<path fill-rule="evenodd" clip-rule="evenodd" d="M11.9312 45.0002C10.6473 45.0002 9.50749 44.1739 9.1015 42.9489C8.6955 41.7238 9.11444 40.3749 10.1415 39.6002L18.89 33.0002L10.1415 26.4002C8.82367 25.4061 8.55659 23.5257 9.54499 22.2002C10.5334 20.8747 12.403 20.6061 13.7208 21.6002L25.6519 30.6002C26.403 31.1667 26.845 32.0559 26.845 33.0002C26.845 33.9444 26.403 34.8336 25.6519 35.4002L13.7208 44.4002C13.2045 44.7896 12.5766 45.0002 11.9312 45.0002Z" fill="#65DDB9"/>
<path fill-rule="evenodd" clip-rule="evenodd" d="M47.7243 45H35.7933C34.146 45 32.8105 43.6569 32.8105 42C32.8105 40.3431 34.146 39 35.7933 39H47.7243C49.3717 39 50.7071 40.3431 50.7071 42C50.7071 43.6569 49.3717 45 47.7243 45Z" fill="#65DDB9"/>
<path fill-rule="evenodd" clip-rule="evenodd" d="M20.8793 63H11.931C10.2837 63 8.94824 61.6569 8.94824 60C8.94824 58.3431 10.2837 57 11.931 57H20.8793C22.5266 57 23.862 58.3431 23.862 60C23.862 61.6569 22.5266 63 20.8793 63Z" fill="#65DDB9"/>
<path fill-rule="evenodd" clip-rule="evenodd" d="M20.8793 75.0005H11.931C10.2837 75.0005 8.94824 73.6573 8.94824 72.0005C8.94824 70.3436 10.2837 69.0005 11.931 69.0005H20.8793C22.5266 69.0005 23.862 70.3436 23.862 72.0005C23.862 73.6573 22.5266 75.0005 20.8793 75.0005Z" fill="#65DDB9"/>
<path fill-rule="evenodd" clip-rule="evenodd" d="M20.8793 87H11.931C10.2837 87 8.94824 85.6568 8.94824 84C8.94824 82.3431 10.2837 81 11.931 81H20.8793C22.5266 81 23.862 82.3431 23.862 84C23.862 85.6568 22.5266 87 20.8793 87Z" fill="#65DDB9"/>
<path fill-rule="evenodd" clip-rule="evenodd" d="M20.8793 99H11.931C10.2837 99 8.94824 97.6568 8.94824 96C8.94824 94.3431 10.2837 93 11.931 93H20.8793C22.5266 93 23.862 94.3431 23.862 96C23.862 97.6568 22.5266 99 20.8793 99Z" fill="#65DDB9"/>
<path fill-rule="evenodd" clip-rule="evenodd" d="M20.8793 111H11.931C10.2837 111 8.94824 109.657 8.94824 108C8.94824 106.343 10.2837 105 11.931 105H20.8793C22.5266 105 23.862 106.343 23.862 108C23.862 109.657 22.5266 111 20.8793 111Z" fill="#65DDB9"/>
<path fill-rule="evenodd" clip-rule="evenodd" d="M20.8793 123H11.931C10.2837 123 8.94824 121.657 8.94824 120C8.94824 118.343 10.2837 117 11.931 117H20.8793C22.5266 117 23.862 118.343 23.862 120C23.862 121.657 22.5266 123 20.8793 123Z" fill="#65DDB9"/>
<path fill-rule="evenodd" clip-rule="evenodd" d="M20.8793 135H11.931C10.2837 135 8.94824 133.657 8.94824 132C8.94824 130.343 10.2837 129 11.931 129H20.8793C22.5266 129 23.862 130.343 23.862 132C23.862 133.657 22.5266 135 20.8793 135Z" fill="#65DDB9"/>
<path fill-rule="evenodd" clip-rule="evenodd" d="M20.8793 147H11.931C10.2837 147 8.94824 145.657 8.94824 144C8.94824 142.343 10.2837 141 11.931 141H20.8793C22.5266 141 23.862 142.343 23.862 144C23.862 145.657 22.5266 147 20.8793 147Z" fill="#65DDB9"/>
<path fill-rule="evenodd" clip-rule="evenodd" d="M68.6035 63H32.8104C31.1631 63 29.8276 61.6569 29.8276 60C29.8276 58.3431 31.1631 57 32.8104 57H68.6035C70.2508 57 71.5863 58.3431 71.5863 60C71.5863 61.6569 70.2508 63 68.6035 63Z" fill="#65DDB9"/>
<path fill-rule="evenodd" clip-rule="evenodd" d="M62.6383 75.0005H38.7762C37.1289 75.0005 35.7935 73.6573 35.7935 72.0005C35.7935 70.3436 37.1289 69.0005 38.7762 69.0005H62.6383C64.2856 69.0005 65.621 70.3436 65.621 72.0005C65.621 73.6573 64.2856 75.0005 62.6383 75.0005Z" fill="#65DDB9"/>
<path fill-rule="evenodd" clip-rule="evenodd" d="M68.6035 87H32.8104C31.1631 87 29.8276 85.6568 29.8276 84C29.8276 82.3431 31.1631 81 32.8104 81H68.6035C70.2508 81 71.5863 82.3431 71.5863 84C71.5863 85.6568 70.2508 87 68.6035 87Z" fill="#65DDB9"/>
<path fill-rule="evenodd" clip-rule="evenodd" d="M62.6383 99H38.7762C37.1289 99 35.7935 97.6568 35.7935 96C35.7935 94.3431 37.1289 93 38.7762 93H62.6383C64.2856 93 65.621 94.3431 65.621 96C65.621 97.6568 64.2856 99 62.6383 99Z" fill="#65DDB9"/>
<path fill-rule="evenodd" clip-rule="evenodd" d="M68.6035 111H32.8104C31.1631 111 29.8276 109.657 29.8276 108C29.8276 106.343 31.1631 105 32.8104 105H68.6035C70.2508 105 71.5863 106.343 71.5863 108C71.5863 109.657 70.2508 111 68.6035 111Z" fill="#65DDB9"/>
<path fill-rule="evenodd" clip-rule="evenodd" d="M62.6383 123H38.7762C37.1289 123 35.7935 121.657 35.7935 120C35.7935 118.343 37.1289 117 38.7762 117H62.6383C64.2856 117 65.621 118.343 65.621 120C65.621 121.657 64.2856 123 62.6383 123Z" fill="#65DDB9"/>
<path fill-rule="evenodd" clip-rule="evenodd" d="M68.6035 135H32.8104C31.1631 135 29.8276 133.657 29.8276 132C29.8276 130.343 31.1631 129 32.8104 129H68.6035C70.2508 129 71.5863 130.343 71.5863 132C71.5863 133.657 70.2508 135 68.6035 135Z" fill="#65DDB9"/>
<path fill-rule="evenodd" clip-rule="evenodd" d="M62.6383 147H38.7762C37.1289 147 35.7935 145.657 35.7935 144C35.7935 142.343 37.1289 141 38.7762 141H62.6383C64.2856 141 65.621 142.343 65.621 144C65.621 145.657 64.2856 147 62.6383 147Z" fill="#65DDB9"/>
<path fill-rule="evenodd" clip-rule="evenodd" d="M146.155 27H120.802C119.154 27 117.819 25.6569 117.819 24C117.819 22.3431 119.154 21 120.802 21H146.155C147.802 21 149.138 19.6569 149.138 18V6C149.138 4.34315 150.473 3 152.121 3C153.768 3 155.103 4.34315 155.103 6V18C155.103 22.9706 151.097 27 146.155 27Z" fill="#3B97D3"/>
<path fill-rule="evenodd" clip-rule="evenodd" d="M152.121 172.5C150.473 172.5 149.138 171.157 149.138 169.5V156C149.138 154.343 147.803 153 146.155 153H128.259C126.611 153 125.276 151.657 125.276 150C125.276 148.343 126.611 147 128.259 147H146.155C151.097 147 155.103 151.029 155.103 156V169.5C155.103 170.296 154.789 171.059 154.23 171.621C153.67 172.184 152.912 172.5 152.121 172.5Z" fill="#3B97D3"/>
<path fill-rule="evenodd" clip-rule="evenodd" d="M167.035 156C165.387 156 164.052 154.657 164.052 153V144C164.052 142.343 162.716 141 161.069 141H140.19C138.542 141 137.207 139.657 137.207 138C137.207 136.343 138.542 135 140.19 135H161.069C166.011 135 170.017 139.029 170.017 144V153C170.017 154.657 168.682 156 167.035 156Z" fill="#3B97D3"/>
<path fill-rule="evenodd" clip-rule="evenodd" d="M161.069 39.0001H130.347C128.699 39.0001 127.364 37.657 127.364 36.0001C127.364 34.3432 128.699 33.0001 130.347 33.0001H161.069C162.716 33.0001 164.052 31.657 164.052 30.0001V19.3501C164.052 17.6932 165.387 16.3501 167.034 16.3501C168.682 16.3501 170.017 17.6932 170.017 19.3501V30.0001C170.017 34.9707 166.011 39.0001 161.069 39.0001Z" fill="#3B97D3"/>
<path fill-rule="evenodd" clip-rule="evenodd" d="M159.07 104.07C160.387 106.391 161.076 109.018 161.069 111.69C161.065 119.88 154.783 126.682 146.662 127.29C147.945 129.73 148.611 132.45 148.601 135.21C148.606 139.786 146.8 144.177 143.583 147.413C140.365 150.649 136 152.465 131.45 152.46C127.714 161.411 118.225 166.474 108.761 164.566C99.2981 162.658 92.4822 154.307 92.4653 144.6V23.85C92.4653 23.85 92.4653 0.989962 122.084 19.35C124.5 20.85 127.125 22.62 129.959 24.72L129.988 24.75C130.113 24.787 130.233 24.8373 130.346 24.9C135.713 26.9918 139.246 32.1908 139.235 37.98C139.235 38.5212 139.205 39.062 139.146 39.6C138.887 41.7927 138.132 43.8966 136.938 45.75C136.908 45.78 136.908 45.81 136.879 45.84C146.914 46.2443 154.841 54.5481 154.835 64.65C154.837 66.3536 154.606 68.0495 154.149 69.69C158.362 73.4029 160.861 78.7032 161.053 84.3342C161.245 89.9651 159.113 95.4253 155.163 99.42L155.223 99.48C156.813 100.719 158.125 102.284 159.07 104.07Z" fill="#FF5364"/>
<path fill-rule="evenodd" clip-rule="evenodd" d="M139.146 39.6001C138.887 41.7928 138.132 43.8967 136.939 45.7501C127.483 46.9726 120.398 55.0618 120.384 64.6501C120.384 66.307 119.049 67.6501 117.402 67.6501C115.754 67.6501 114.419 66.307 114.419 64.6501C114.433 50.8914 125.467 39.7137 139.146 39.6001Z" fill="#DF4D60"/>
<path fill-rule="evenodd" clip-rule="evenodd" d="M159.071 104.07C153.852 108.175 147.412 110.394 140.786 110.37C139.139 110.37 137.804 109.027 137.804 107.37C137.804 105.713 139.139 104.37 140.786 104.37C146.004 104.39 151.081 102.67 155.223 99.48C156.814 100.719 158.125 102.284 159.071 104.07Z" fill="#DF4D60"/>
<path fill-rule="evenodd" clip-rule="evenodd" d="M130.346 24.9001C129.407 24.6834 128.447 24.5727 127.483 24.5701C120.123 24.5784 114.158 30.5774 114.15 37.9801C114.15 39.6369 112.815 40.9801 111.167 40.9801C109.52 40.9801 108.185 39.6369 108.185 37.9801C108.19 29.3544 113.851 21.766 122.084 19.3501C124.5 20.8501 127.125 22.6201 129.959 24.7201L129.989 24.7501C130.113 24.7872 130.233 24.8375 130.346 24.9001Z" fill="#DF4D60"/>
<path fill-rule="evenodd" clip-rule="evenodd" d="M135.808 98.8979C135.917 98.9098 136.026 98.9158 136.136 98.9159C137.718 98.9121 139.023 97.666 139.107 96.0766C139.192 94.4872 138.028 93.1079 136.455 92.9339C132.342 92.4564 128.836 89.7133 127.364 85.8209C137.875 83.3473 145.314 73.9264 145.329 63.0688C145.329 61.412 143.993 60.0688 142.346 60.0688C140.699 60.0688 139.363 61.412 139.363 63.0688C139.353 70.0963 135.141 76.4278 128.686 79.1181C122.231 81.8084 114.801 80.3293 109.852 75.3688C108.681 74.2319 106.821 74.2482 105.671 75.4054C104.52 76.5626 104.504 78.4337 105.634 79.6109C109.79 83.8014 115.379 86.2374 121.261 86.4208C123.132 93.1705 128.886 98.105 135.808 98.8979Z" fill="#DF4D60"/>
<path fill-rule="evenodd" clip-rule="evenodd" d="M136.121 127.5C135.022 127.508 133.925 127.6 132.84 127.776C132.84 127.638 132.864 127.503 132.864 127.365C132.852 115.321 123.148 105.559 111.173 105.546C109.526 105.546 108.19 106.889 108.19 108.546C108.19 110.203 109.526 111.546 111.173 111.546C119.855 111.556 126.89 118.633 126.898 127.365C126.892 128.145 126.827 128.923 126.704 129.693C119.21 133.327 114.44 140.951 114.427 149.319C114.427 150.976 115.763 152.319 117.41 152.319C119.057 152.319 120.393 150.976 120.393 149.319C120.401 140.586 127.438 133.508 136.121 133.5C137.768 133.5 139.104 132.157 139.104 130.5C139.104 128.843 137.768 127.5 136.121 127.5Z" fill="#DF4D60"/>
<path fill-rule="evenodd" clip-rule="evenodd" d="M101.831 61.5001C101.831 63.1569 100.496 64.5001 98.8484 64.5001C95.3245 64.5034 92.4686 67.3758 92.4653 70.92V60.3301C94.3793 59.1278 96.5919 58.4935 98.8484 58.5001C100.496 58.5001 101.831 59.8432 101.831 61.5001Z" fill="#DF4D60"/>
<path fill-rule="evenodd" clip-rule="evenodd" d="M112.748 124.23C112.748 125.887 111.413 127.23 109.765 127.23C100.222 127.23 92.4818 135.002 92.4653 144.6V129.03C96.8554 124.058 103.154 121.218 109.765 121.23C111.413 121.23 112.748 122.573 112.748 124.23Z" fill="#DF4D60"/>
<path d="M152.121 12C155.415 12 158.086 9.31371 158.086 6C158.086 2.68629 155.415 0 152.121 0C148.826 0 146.155 2.68629 146.155 6C146.155 9.31371 148.826 12 152.121 12Z" fill="#F0C419"/>
<path d="M167.034 27C170.329 27 173 24.3137 173 21C173 17.6863 170.329 15 167.034 15C163.74 15 161.069 17.6863 161.069 21C161.069 24.3137 163.74 27 167.034 27Z" fill="#F0C419"/>
<path d="M152.121 174C155.415 174 158.086 171.314 158.086 168C158.086 164.686 155.415 162 152.121 162C148.826 162 146.155 164.686 146.155 168C146.155 171.314 148.826 174 152.121 174Z" fill="#F0C419"/>
<path d="M167.034 159C170.329 159 173 156.314 173 153C173 149.686 170.329 147 167.034 147C163.74 147 161.069 149.686 161.069 153C161.069 156.314 163.74 159 167.034 159Z" fill="#F0C419"/>
</svg>
