<svg width="202" height="194" viewBox="0 0 202 194" fill="none" xmlns="http://www.w3.org/2000/svg">
<path d="M127.899 124.346C119.545 132.365 108.67 137.514 96.9596 138.996C85.2492 140.477 73.3568 138.209 63.125 132.541L89.9571 87.9062L127.899 124.346Z" fill="#8ACCE7"/>
<path d="M138.875 60.625H85.2186L58.3865 105.26C50.229 100.737 43.4549 94.232 38.7449 86.398C34.0349 78.5639 31.5551 69.6772 31.5547 60.631C31.5543 51.5848 34.0332 42.6979 38.7424 34.8635C43.4516 27.029 50.2252 20.523 58.3822 15.9995C66.5392 11.476 75.7924 9.09428 85.2116 9.09375C94.6308 9.09322 103.884 11.4739 112.042 15.9965C120.199 20.5191 126.974 27.0243 131.684 34.8582C136.394 42.6922 138.874 51.5788 138.875 60.625Z" fill="#A1616A"/>
<path d="M138.875 60.625H85.2188L58.3867 15.9898C66.5449 11.4701 75.7978 9.09182 85.2161 9.09375C94.6343 9.09569 103.886 11.4778 112.042 16.0009C120.199 20.5239 126.972 27.0286 131.682 34.8615C136.392 42.6944 138.873 51.5798 138.875 60.625Z" fill="#FFADAD"/>
<path d="M154.656 75.7168C154.666 82.4854 153.282 89.1891 150.586 95.4426C147.889 101.696 143.932 107.376 138.942 112.156L101 75.7168H154.656Z" fill="#EEDC9A"/>
<path d="M18.9375 184.906H75.75C78.2613 184.906 80.6697 183.948 82.4454 182.243C84.2212 180.537 85.2188 178.224 85.2188 175.812V93.9688L66.2812 75.7812H18.9375C16.4262 75.7812 14.0178 76.7393 12.2421 78.4447C10.4663 80.1502 9.46875 82.4632 9.46875 84.875V175.812C9.46875 178.224 10.4663 180.537 12.2421 182.243C14.0178 183.948 16.4262 184.906 18.9375 184.906Z" fill="#EEDC9A"/>
<path d="M66.2812 75.7812V93.9688H85.2188L66.2812 75.7812Z" fill="#EEBE33"/>
<path d="M160.969 154.594H129.406C124.177 154.594 119.938 158.665 119.938 163.688V175.812C119.938 180.835 124.177 184.906 129.406 184.906H160.969C166.198 184.906 170.438 180.835 170.438 175.812V163.688C170.438 158.665 166.198 154.594 160.969 154.594Z" fill="#8ACCE7"/>
<path d="M183.062 27.2812H157.812C152.583 27.2812 148.344 31.3527 148.344 36.375V48.5C148.344 53.5223 152.583 57.5938 157.812 57.5938H183.062C188.292 57.5938 192.531 53.5223 192.531 48.5V36.375C192.531 31.3527 188.292 27.2812 183.062 27.2812Z" fill="#2D80B3"/>
<path d="M68.5132 73.6377C67.9212 73.0693 67.1184 72.75 66.2812 72.75H18.9375C15.5903 72.7537 12.3813 74.0323 10.0145 76.3054C7.64769 78.5785 6.31633 81.6604 6.3125 84.875V175.812C6.31633 179.027 7.64769 182.109 10.0145 184.382C12.3813 186.655 15.5903 187.934 18.9375 187.938H75.75C79.0972 187.934 82.3062 186.655 84.673 184.382C87.0398 182.109 88.3712 179.027 88.375 175.812V93.9688C88.375 93.1648 88.0425 92.3938 87.4507 91.8252L68.5132 73.6377ZM69.4375 83.0992L77.599 90.9375H69.4375V83.0992ZM75.75 181.875H18.9375C17.2639 181.873 15.6594 181.234 14.476 180.097C13.2926 178.961 12.6269 177.42 12.625 175.812V84.875C12.6269 83.2677 13.2926 81.7267 14.476 80.5902C15.6594 79.4537 17.2639 78.8143 18.9375 78.8125H63.125V93.9688C63.125 94.7727 63.4576 95.5437 64.0495 96.1121C64.6414 96.6806 65.4442 97 66.2812 97H82.0625V175.812C82.0606 177.42 81.3949 178.961 80.2115 180.097C79.0281 181.234 77.4236 181.873 75.75 181.875Z" fill="black"/>
<path d="M18.9375 84.875H31.5625V90.9375H18.9375V84.875Z" fill="black"/>
<path d="M31.5625 103.062H63.125V109.125H31.5625V103.062Z" fill="black"/>
<path d="M69.4375 103.062H75.75V109.125H69.4375V103.062Z" fill="black"/>
<path d="M63.125 127.312H75.75V133.375H63.125V127.312Z" fill="black"/>
<path d="M18.9375 127.312H56.8125V133.375H18.9375V127.312Z" fill="black"/>
<path d="M50.5 115.188H75.75V121.25H50.5V115.188Z" fill="black"/>
<path d="M18.9375 115.188H44.1875V121.25H18.9375V115.188Z" fill="black"/>
<path d="M18.9375 139.438H37.875V145.5H18.9375V139.438Z" fill="black"/>
<path d="M44.1875 139.438H75.75V145.5H44.1875V139.438Z" fill="black"/>
<path d="M18.9375 151.562H50.5V157.625H18.9375V151.562Z" fill="black"/>
<path d="M57.1274 151.562H69.4376V157.625H57.1274V151.562Z" fill="black"/>
<path d="M60.2837 163.688H72.5939V169.75H60.2837V163.688Z" fill="black"/>
<path d="M91.4404 136.386L91.6223 142.446C93.8588 142.384 96.0897 142.196 98.3035 141.884L97.3842 135.886C95.4148 136.164 93.4301 136.331 91.4404 136.386Z" fill="black"/>
<path d="M115.019 136.887C120.617 134.241 125.722 130.728 130.131 126.489C130.723 125.92 131.055 125.149 131.055 124.345C131.055 123.541 130.723 122.77 130.131 122.202L96.9195 90.3057L92.4556 94.5928L123.367 124.279C120.003 127.134 116.258 129.545 112.231 131.448L115.019 136.887Z" fill="black"/>
<path d="M35.0647 66.3345C34.8343 64.4394 34.7188 62.533 34.7188 60.625C34.7359 52.6281 36.8036 44.7584 40.7391 37.7111C44.6747 30.6637 50.3569 24.6558 57.2838 20.218L81.5741 60.625L75.1964 71.2344L80.6636 74.2656L87.0412 63.6563H138.875C139.712 63.6562 140.515 63.3368 141.107 62.7684C141.699 62.1999 142.031 61.4289 142.031 60.625C142.031 30.539 116.545 6.0625 85.2188 6.0625C77.7571 6.05945 70.368 7.46866 63.4738 10.2096C56.5795 12.9505 50.3153 16.9695 45.0392 22.0367C39.763 27.1039 35.5783 33.12 32.7244 39.7412C29.8704 46.3624 28.4031 53.4589 28.4063 60.625C28.4064 62.7689 28.5363 64.9111 28.7954 67.0405L35.0647 66.3345ZM135.621 57.5938H87.0412L62.7479 17.1817C69.7318 13.8541 77.4226 12.1234 85.2188 12.125C112.004 12.125 133.986 32.2581 135.621 57.5938Z" fill="black"/>
<path d="M123.094 72.6855H101C100.376 72.6856 99.7655 72.8634 99.2465 73.1965C98.7275 73.5296 98.3229 74.003 98.084 74.5569C97.8452 75.1108 97.7826 75.7202 97.9044 76.3082C98.0261 76.8962 98.3266 77.4364 98.768 77.8604L136.71 114.3C137.302 114.868 138.105 115.187 138.942 115.187C139.779 115.187 140.582 114.868 141.174 114.3C146.466 109.245 150.661 103.232 153.517 96.6089C156.373 89.9861 157.833 82.8851 157.812 75.7168C157.812 74.9129 157.48 74.1419 156.888 73.5734C156.296 73.005 155.493 72.6856 154.656 72.6855H148.344V78.748H151.404C150.737 89.5085 146.324 99.7414 138.874 107.804L108.62 78.748H123.094V72.6855Z" fill="black"/>
<path d="M100.076 125.169L95.6118 129.456L114.549 147.644C115.141 148.212 115.944 148.531 116.781 148.531H173.594V142.469H118.089L100.076 125.169Z" fill="black"/>
<path d="M160.969 151.562H129.406C126.059 151.566 122.85 152.845 120.483 155.118C118.116 157.391 116.785 160.473 116.781 163.688V175.812C116.785 179.027 118.116 182.109 120.483 184.382C122.85 186.655 126.059 187.934 129.406 187.938H160.969C164.316 187.934 167.525 186.655 169.892 184.382C172.259 182.109 173.59 179.027 173.594 175.812V163.688C173.59 160.473 172.259 157.391 169.892 155.118C167.525 152.845 164.316 151.566 160.969 151.562ZM167.281 175.812C167.279 177.42 166.614 178.961 165.43 180.097C164.247 181.234 162.642 181.873 160.969 181.875H129.406C127.733 181.873 126.128 181.234 124.945 180.097C123.761 178.961 123.096 177.42 123.094 175.812V163.688C123.096 162.08 123.761 160.539 124.945 159.403C126.128 158.266 127.733 157.627 129.406 157.625H160.969C162.642 157.627 164.247 158.266 165.43 159.403C166.614 160.539 167.279 162.08 167.281 163.688V175.812Z" fill="black"/>
<path d="M132.562 160.656H151.5V166.719H132.562V160.656Z" fill="black"/>
<path d="M157.812 160.656H164.125V166.719H157.812V160.656Z" fill="black"/>
<path d="M126.25 172.781H132.562V178.844H126.25V172.781Z" fill="black"/>
<path d="M138.875 172.781H157.812V178.844H138.875V172.781Z" fill="black"/>
<path d="M183.062 24.25H157.812C154.465 24.2537 151.256 25.5323 148.89 27.8054C146.523 30.0785 145.191 33.1604 145.188 36.375V48.5C145.191 51.7146 146.523 54.7965 148.89 57.0696C151.256 59.3427 154.465 60.6213 157.812 60.625H183.062C186.41 60.6213 189.619 59.3427 191.985 57.0696C194.352 54.7965 195.684 51.7146 195.688 48.5V36.375C195.684 33.1604 194.352 30.0785 191.985 27.8054C189.619 25.5323 186.41 24.2537 183.062 24.25ZM189.375 48.5C189.373 50.1073 188.707 51.6483 187.524 52.7848C186.341 53.9213 184.736 54.5607 183.062 54.5625H157.812C156.139 54.5607 154.534 53.9213 153.351 52.7848C152.168 51.6483 151.502 50.1073 151.5 48.5V36.375C151.502 34.7677 152.168 33.2267 153.351 32.0902C154.534 30.9537 156.139 30.3143 157.812 30.3125H183.062C184.736 30.3143 186.341 30.9537 187.524 32.0902C188.707 33.2267 189.373 34.7677 189.375 36.375V48.5Z" fill="black"/>
<path d="M160.969 33.3438H173.594V39.4062H160.969V33.3438Z" fill="black"/>
<path d="M179.906 33.3438H186.219V39.4062H179.906V33.3438Z" fill="black"/>
<path d="M154.656 45.4688H160.969V51.5312H154.656V45.4688Z" fill="black"/>
<path d="M167.281 45.4688H179.906V51.5312H167.281V45.4688Z" fill="black"/>
<path d="M142.956 64.5439L127.174 79.7002L131.638 83.9873L146.495 69.7187H195.688V63.6562H145.188C144.35 63.6563 143.548 63.9756 142.956 64.5439Z" fill="black"/>
</svg>
