<svg width="287" height="202" viewBox="0 0 287 202" fill="none" xmlns="http://www.w3.org/2000/svg">
<path d="M121.078 154.656V192.531H13.4531V158.578C13.454 155.027 15.4587 151.621 19.0264 149.11C22.594 146.599 27.4326 145.188 32.4781 145.188H98.3367C101.282 145.187 104.198 145.596 106.919 146.389C109.64 147.182 112.112 148.345 114.195 149.811L121.078 154.656Z" fill="#FFCCD9"/>
<path d="M76.2344 154.656L71.75 160.969L76.2344 176.75L67.2656 183.062L58.2969 176.75L62.7812 160.969L58.2969 154.656L67.2656 148.344L76.2344 154.656Z" fill="#F5714F"/>
<path d="M71.75 164.125H62.7812C61.5919 164.125 60.4513 163.792 59.6103 163.201C58.7693 162.609 58.2969 161.806 58.2969 160.969C58.2969 160.132 58.7693 159.329 59.6103 158.737C60.4513 158.145 61.5919 157.812 62.7812 157.812H71.75C72.9393 157.812 74.08 158.145 74.9209 158.737C75.7619 159.329 76.2344 160.132 76.2344 160.969C76.2344 161.806 75.7619 162.609 74.9209 163.201C74.08 163.792 72.9393 164.125 71.75 164.125Z" fill="#EF5E3B"/>
<path d="M183.859 192.531H201.797V186.219C201.797 183.707 200.379 181.299 197.857 179.523C195.334 177.748 191.912 176.75 188.344 176.75H183.859V192.531Z" fill="#FFCEB6"/>
<path d="M24.2501 167.266C22.4991 166.033 19.6602 166.033 17.9092 167.266C16.1582 168.498 16.1582 170.496 17.9092 171.729L31.7451 181.467C33.4961 182.699 36.335 182.699 38.086 181.467C39.837 180.234 39.837 178.236 38.086 177.004L24.2501 167.266Z" fill="#FFB8B8"/>
<path d="M121.078 175.44V184.372L98.6562 168.587C98.2395 168.294 97.9088 167.946 97.683 167.564C97.4573 167.181 97.341 166.77 97.3408 166.356C97.3406 165.941 97.4564 165.531 97.6817 165.148C97.907 164.765 98.2374 164.416 98.6538 164.123C99.0703 163.83 99.5648 163.598 100.109 163.439C100.653 163.281 101.236 163.199 101.825 163.199C102.414 163.199 102.998 163.281 103.542 163.44C104.086 163.599 104.58 163.832 104.996 164.125L121.078 175.44Z" fill="#FFB8B8"/>
<path d="M85.2031 154.402L70.067 145.879C69.2718 145.431 68.2839 145.188 67.2656 145.188C66.2474 145.188 65.2595 145.431 64.4643 145.879L49.3281 154.402V145.188H40.3594V160.969C40.3608 161.383 40.4781 161.793 40.7047 162.175C40.9313 162.557 41.2628 162.904 41.68 163.196L41.6729 163.201L49.713 168.859C50.1294 169.152 50.6237 169.385 51.1678 169.544C51.7118 169.702 52.2949 169.784 52.8838 169.784C53.4727 169.784 54.0558 169.702 54.5999 169.544C55.1439 169.385 55.6383 169.152 56.0547 168.859C56.8957 168.267 57.3681 167.465 57.3681 166.628C57.3681 165.791 56.8957 164.988 56.0547 164.396L51.5574 161.231L67.2656 152.386L86.8861 163.433C87.5987 163.835 88.4681 164.073 89.3784 164.118C90.2887 164.162 91.1965 164.01 91.9806 163.681C92.6621 163.382 93.2221 162.964 93.6061 162.468C93.99 161.971 94.185 161.413 94.1719 160.848V145.188H85.2031V154.402Z" fill="#FFB8B8"/>
<path d="M112.109 154.656H183.859V192.531H112.109V154.656Z" fill="#FFC431"/>
<path d="M147.984 179.906C152.938 179.906 156.953 177.08 156.953 173.594C156.953 170.107 152.938 167.281 147.984 167.281C143.031 167.281 139.016 170.107 139.016 173.594C139.016 177.08 143.031 179.906 147.984 179.906Z" fill="#FFE28F"/>
<path d="M71.75 123.094V28.4062H273.547V123.094C273.547 124.768 272.602 126.374 270.92 127.557C269.238 128.741 266.957 129.406 264.578 129.406H80.7188C78.3401 129.406 76.0589 128.741 74.3769 127.557C72.6949 126.374 71.75 124.768 71.75 123.094Z" fill="#E0EDFF"/>
<path d="M273.547 28.4062H71.75V15.7812C71.75 14.1071 72.6949 12.5015 74.3769 11.3176C76.0589 10.1338 78.3401 9.46875 80.7188 9.46875H264.578C266.957 9.46875 269.238 10.1338 270.92 11.3176C272.602 12.5015 273.547 14.1071 273.547 15.7812V28.4062Z" fill="#C5DAFA"/>
<path d="M85.2031 22.0938C87.6798 22.0938 89.6875 20.6806 89.6875 18.9375C89.6875 17.1944 87.6798 15.7812 85.2031 15.7812C82.7265 15.7812 80.7188 17.1944 80.7188 18.9375C80.7188 20.6806 82.7265 22.0938 85.2031 22.0938Z" fill="#E8F2FF"/>
<path d="M98.6562 22.0938C101.133 22.0938 103.141 20.6806 103.141 18.9375C103.141 17.1944 101.133 15.7812 98.6562 15.7812C96.1796 15.7812 94.1719 17.1944 94.1719 18.9375C94.1719 20.6806 96.1796 22.0938 98.6562 22.0938Z" fill="#E8F2FF"/>
<path d="M112.109 22.0938C114.586 22.0938 116.594 20.6806 116.594 18.9375C116.594 17.1944 114.586 15.7812 112.109 15.7812C109.633 15.7812 107.625 17.1944 107.625 18.9375C107.625 20.6806 109.633 22.0938 112.109 22.0938Z" fill="#E8F2FF"/>
<path d="M94.1719 44.1875H121.078V63.125H94.1719V44.1875Z" fill="#FFB8B8"/>
<path d="M121.078 66.2812H94.1719C93.583 66.2813 92.9998 66.1996 92.4558 66.041C91.9117 65.8824 91.4173 65.6499 91.0009 65.3568C90.5845 65.0637 90.2542 64.7158 90.0288 64.3329C89.8035 63.9499 89.6875 63.5395 89.6875 63.125V44.1875C89.6875 43.773 89.8035 43.3626 90.0288 42.9796C90.2542 42.5967 90.5845 42.2488 91.0009 41.9557C91.4173 41.6626 91.9117 41.4301 92.4558 41.2715C92.9998 41.1129 93.583 41.0312 94.1719 41.0313H121.078C121.667 41.0312 122.25 41.1129 122.794 41.2715C123.338 41.4301 123.833 41.6626 124.249 41.9557C124.666 42.2488 124.996 42.5967 125.221 42.9796C125.447 43.3626 125.563 43.773 125.562 44.1875V63.125C125.563 63.5395 125.447 63.9499 125.221 64.3329C124.996 64.7158 124.666 65.0637 124.249 65.3568C123.833 65.6499 123.338 65.8824 122.794 66.041C122.25 66.1996 121.667 66.2813 121.078 66.2812ZM98.6562 59.9688H116.594V47.3438H98.6562V59.9688Z" fill="#FFCCD9"/>
<path d="M139.016 44.1875H161.438V50.5H139.016V44.1875Z" fill="#C5DAFA"/>
<path d="M170.406 44.1875H215.25V50.5H170.406V44.1875Z" fill="#C5DAFA"/>
<path d="M139.016 56.8125H179.375V63.125H139.016V56.8125Z" fill="#C5DAFA"/>
<path d="M100.222 93.958L105.962 89.11L132.86 104.887L127.12 109.735L100.222 93.958Z" fill="#548AFF"/>
<path d="M146.58 104.374L173.495 98.0661L176.329 104.057L149.414 110.365L146.58 104.374Z" fill="#548AFF"/>
<path d="M184.84 92.6816L207.255 73.7496L214.143 77.7896L191.728 96.7216L184.84 92.6816Z" fill="#548AFF"/>
<path d="M216.121 77.6426L223.421 73.975L245.834 96.0761L238.533 99.7437L216.121 77.6426Z" fill="#548AFF"/>
<path d="M67.2656 148.344C63.6976 148.344 60.2758 147.346 57.7528 145.57C55.2299 143.795 53.8125 141.386 53.8125 138.875V135.719L62.7812 129.406H80.7188V138.875C80.7188 141.386 79.3014 143.795 76.7784 145.57C74.2555 147.346 70.8336 148.344 67.2656 148.344Z" fill="#FFCEB6"/>
<path d="M80.7188 129.406L84.4371 124.172C84.9409 123.463 85.2031 122.681 85.2031 121.888C85.2031 121.218 85.0154 120.553 84.6508 119.934C84.2862 119.314 83.7517 118.751 83.0779 118.277C82.4042 117.803 81.6043 117.427 80.724 117.17C79.8436 116.913 78.9001 116.781 77.9473 116.781H67.2656C63.6976 116.781 60.2758 117.779 57.7528 119.555C55.2299 121.33 53.8125 123.739 53.8125 126.25V135.719L62.7812 129.406H80.7188Z" fill="#B1712C"/>
<path d="M116.594 186.219V192.531H61.2397C56.484 192.531 51.9232 191.201 48.5602 188.834L38.1172 181.484L56.0547 168.859L67.2656 176.75H103.141C106.708 176.751 110.13 177.748 112.652 179.524C115.175 181.3 116.593 183.708 116.594 186.219Z" fill="#FFCEB6"/>
<path d="M98.6562 94.6875C103.61 94.6875 107.625 91.8613 107.625 88.375C107.625 84.8887 103.61 82.0625 98.6562 82.0625C93.7029 82.0625 89.6875 84.8887 89.6875 88.375C89.6875 91.8613 93.7029 94.6875 98.6562 94.6875Z" fill="#548AFF"/>
<path d="M98.6563 97.8438C95.9955 97.8438 93.3945 97.2884 91.1821 96.248C88.9697 95.2075 87.2454 93.7287 86.2272 91.9985C85.209 90.2683 84.9425 88.3645 85.4616 86.5277C85.9807 84.691 87.262 83.0038 89.1435 81.6796C91.0249 80.3554 93.422 79.4535 96.0317 79.0882C98.6413 78.7228 101.346 78.9104 103.805 79.627C106.263 80.3437 108.364 81.5573 109.842 83.1145C111.32 84.6716 112.109 86.5023 112.109 88.375C112.105 90.8854 110.687 93.2922 108.165 95.0673C105.643 96.8424 102.223 97.8409 98.6563 97.8438ZM98.6563 85.2188C97.7693 85.2188 96.9023 85.4039 96.1649 85.7507C95.4274 86.0975 94.8526 86.5904 94.5132 87.1672C94.1738 87.7439 94.085 88.3785 94.258 88.9908C94.4311 89.603 94.8582 90.1654 95.4853 90.6068C96.1125 91.0482 96.9115 91.3488 97.7814 91.4706C98.6513 91.5924 99.5529 91.5299 100.372 91.291C101.192 91.0521 101.892 90.6476 102.385 90.1285C102.878 89.6095 103.141 88.9993 103.141 88.375C103.139 87.5382 102.666 86.736 101.826 86.1443C100.985 85.5526 99.8452 85.2197 98.6563 85.2188Z" fill="#7DAFFF"/>
<path d="M139.016 113.625C143.969 113.625 147.984 110.799 147.984 107.312C147.984 103.826 143.969 101 139.016 101C134.062 101 130.047 103.826 130.047 107.312C130.047 110.799 134.062 113.625 139.016 113.625Z" fill="#548AFF"/>
<path d="M139.016 116.781C136.355 116.781 133.754 116.226 131.541 115.185C129.329 114.145 127.605 112.666 126.587 110.936C125.568 109.206 125.302 107.302 125.821 105.465C126.34 103.628 127.621 101.941 129.503 100.617C131.384 99.2929 133.781 98.391 136.391 98.0257C139.001 97.6603 141.706 97.8479 144.164 98.5645C146.622 99.2812 148.723 100.495 150.201 102.052C151.68 103.609 152.469 105.44 152.469 107.313C152.465 109.823 151.046 112.23 148.524 114.005C146.002 115.78 142.582 116.778 139.016 116.781ZM139.016 104.156C138.129 104.156 137.262 104.341 136.524 104.688C135.787 105.035 135.212 105.528 134.873 106.105C134.533 106.681 134.444 107.316 134.617 107.928C134.79 108.541 135.218 109.103 135.845 109.544C136.472 109.986 137.271 110.286 138.141 110.408C139.011 110.53 139.912 110.467 140.732 110.229C141.551 109.99 142.252 109.585 142.744 109.066C143.237 108.547 143.5 107.937 143.5 107.313C143.499 106.476 143.026 105.673 142.185 105.082C141.344 104.49 140.205 104.157 139.016 104.156Z" fill="#7DAFFF"/>
<path d="M183.859 104.156C188.813 104.156 192.828 101.33 192.828 97.8438C192.828 94.3575 188.813 91.5312 183.859 91.5312C178.906 91.5312 174.891 94.3575 174.891 97.8438C174.891 101.33 178.906 104.156 183.859 104.156Z" fill="#548AFF"/>
<path d="M183.859 107.313C181.199 107.313 178.598 106.757 176.385 105.717C174.173 104.676 172.449 103.197 171.43 101.467C170.412 99.7371 170.146 97.8333 170.665 95.9965C171.184 94.1597 172.465 92.4726 174.347 91.1483C176.228 89.8241 178.625 88.9223 181.235 88.5569C183.844 88.1916 186.549 88.3791 189.008 89.0958C191.466 89.8124 193.567 91.0261 195.045 92.5832C196.523 94.1403 197.313 95.971 197.313 97.8438C197.309 100.354 195.89 102.761 193.368 104.536C190.846 106.311 187.426 107.31 183.859 107.313ZM183.859 94.6875C182.972 94.6875 182.105 94.8726 181.368 95.2194C180.631 95.5662 180.056 96.0592 179.716 96.6359C179.377 97.2126 179.288 97.8473 179.461 98.4595C179.634 99.0718 180.061 99.6342 180.688 100.076C181.316 100.517 182.115 100.818 182.985 100.939C183.854 101.061 184.756 100.999 185.575 100.76C186.395 100.521 187.095 100.116 187.588 99.5973C188.081 99.0782 188.344 98.468 188.344 97.8438C188.342 97.007 187.869 96.2047 187.029 95.613C186.188 95.0213 185.048 94.6885 183.859 94.6875Z" fill="#7DAFFF"/>
<path d="M215.25 78.9062C220.203 78.9062 224.219 76.08 224.219 72.5938C224.219 69.1075 220.203 66.2812 215.25 66.2812C210.297 66.2812 206.281 69.1075 206.281 72.5938C206.281 76.08 210.297 78.9062 215.25 78.9062Z" fill="#548AFF"/>
<path d="M215.25 82.0625C212.589 82.0625 209.988 81.5072 207.776 80.4667C205.563 79.4263 203.839 77.9475 202.821 76.2173C201.803 74.4871 201.536 72.5832 202.055 70.7465C202.574 68.9097 203.856 67.2226 205.737 65.8983C207.619 64.5741 210.016 63.6723 212.625 63.3069C215.235 62.9416 217.94 63.1291 220.398 63.8458C222.857 64.5624 224.958 65.7761 226.436 67.3332C227.914 68.8903 228.703 70.721 228.703 72.5938C228.699 75.1042 227.28 77.5109 224.758 79.2861C222.236 81.0612 218.817 82.0597 215.25 82.0625ZM215.25 69.4375C214.363 69.4375 213.496 69.6226 212.759 69.9694C212.021 70.3162 211.446 70.8092 211.107 71.3859C210.768 71.9626 210.679 72.5973 210.852 73.2095C211.025 73.8218 211.452 74.3842 212.079 74.8256C212.706 75.267 213.505 75.5676 214.375 75.6894C215.245 75.8111 216.147 75.7486 216.966 75.5097C217.786 75.2709 218.486 74.8663 218.979 74.3473C219.471 73.8282 219.734 73.218 219.734 72.5938C219.733 71.757 219.26 70.9547 218.419 70.363C217.579 69.7713 216.439 69.4385 215.25 69.4375Z" fill="#7DAFFF"/>
<path d="M246.641 107.312C251.594 107.312 255.609 104.486 255.609 101C255.609 97.5137 251.594 94.6875 246.641 94.6875C241.687 94.6875 237.672 97.5137 237.672 101C237.672 104.486 241.687 107.312 246.641 107.312Z" fill="#548AFF"/>
<path d="M246.641 110.469C243.98 110.469 241.379 109.913 239.166 108.873C236.954 107.833 235.23 106.354 234.212 104.624C233.193 102.893 232.927 100.99 233.446 99.1527C233.965 97.316 235.246 95.6288 237.128 94.3046C239.009 92.9804 241.406 92.0785 244.016 91.7132C246.626 91.3478 249.331 91.5354 251.789 92.252C254.247 92.9687 256.348 94.1823 257.826 95.7395C259.305 97.2966 260.094 99.1273 260.094 101C260.09 103.51 258.671 105.917 256.149 107.692C253.627 109.467 250.207 110.466 246.641 110.469ZM246.641 97.8438C245.754 97.8438 244.887 98.0289 244.149 98.3757C243.412 98.7225 242.837 99.2154 242.498 99.7922C242.158 100.369 242.069 101.004 242.242 101.616C242.415 102.228 242.843 102.79 243.47 103.232C244.097 103.673 244.896 103.974 245.766 104.096C246.636 104.217 247.537 104.155 248.357 103.916C249.176 103.677 249.877 103.273 250.369 102.754C250.862 102.234 251.125 101.624 251.125 101C251.124 100.163 250.651 99.361 249.81 98.7693C248.969 98.1776 247.83 97.8447 246.641 97.8438Z" fill="#7DAFFF"/>
</svg>
