<svg width="168" height="136" viewBox="0 0 168 136" fill="none" xmlns="http://www.w3.org/2000/svg">
<g clip-path="url(#clip0)">
<path d="M146.364 131.078V117.601C146.364 117.601 152.063 127.156 146.364 131.078Z" fill="#F1F1F1"/>
<path d="M146.716 131.076L135.942 121.962C135.942 121.962 147.435 124.554 146.716 131.076Z" fill="#F1F1F1"/>
<path d="M21.5223 131.078V117.601C21.5223 117.601 15.8229 127.156 21.5223 131.078Z" fill="#F1F1F1"/>
<path d="M21.1701 131.076L31.9434 121.962C31.9434 121.962 20.4512 124.554 21.1701 131.076Z" fill="#F1F1F1"/>
<path d="M119.431 31.1218H118.65V11.4091C118.65 9.91087 118.33 8.42727 117.708 7.04305C117.086 5.65883 116.174 4.4011 115.024 3.34166C113.874 2.28223 112.509 1.44184 111.007 0.868472C109.505 0.295108 107.895 1.22332e-06 106.27 0H60.9499C59.324 -3.18053e-06 57.7141 0.2951 56.2121 0.868459C54.71 1.44182 53.3452 2.28221 52.1955 3.34164C51.0459 4.40107 50.1339 5.6588 49.5118 7.04302C48.8896 8.42724 48.5693 9.91084 48.5693 11.4091V119.554C48.5693 122.58 49.8737 125.482 52.1955 127.622C54.5173 129.761 57.6663 130.963 60.9498 130.963H106.27C109.553 130.963 112.702 129.761 115.024 127.622C117.346 125.482 118.65 122.58 118.65 119.554V45.1535H119.431V31.1218Z" fill="#3F3D56"/>
<path d="M106.769 2.96821H100.853C101.125 3.58285 101.229 4.24972 101.156 4.91006C101.082 5.5704 100.833 6.20395 100.432 6.75489C100.03 7.30584 99.4872 7.75728 98.8515 8.06943C98.2158 8.38159 97.5066 8.54488 96.7862 8.54493H70.8232C70.1029 8.54489 69.3936 8.38159 68.7579 8.06943C68.1222 7.75728 67.5796 7.30584 67.1778 6.75489C66.776 6.20395 66.5274 5.5704 66.4539 4.91005C66.3804 4.24971 66.4842 3.58284 66.7563 2.9682H61.231C58.7789 2.9682 56.4272 3.86586 54.6933 5.46371C52.9594 7.06155 51.9854 9.2287 51.9854 11.4884V119.475C51.9854 120.594 52.2245 121.702 52.6891 122.735C53.1538 123.769 53.8348 124.708 54.6933 125.499C55.5519 126.291 56.5711 126.918 57.6928 127.346C58.8146 127.775 60.0168 127.995 61.231 127.995H106.769C107.983 127.995 109.185 127.775 110.307 127.346C111.429 126.918 112.448 126.291 113.307 125.499C114.165 124.708 114.846 123.769 115.311 122.735C115.775 121.702 116.015 120.594 116.015 119.475V11.4884C116.015 10.3695 115.775 9.26158 115.311 8.22787C114.846 7.19415 114.165 6.25488 113.307 5.46371C112.448 4.67254 111.429 4.04494 110.307 3.61676C109.185 3.18858 107.983 2.9682 106.769 2.96821Z" fill="white"/>
<path d="M105.628 126.141H62.3718C57.4015 126.141 53.3579 122.815 53.3579 118.727V113.359C53.3579 110.101 56.5782 107.45 60.5364 107.45H107.464C111.422 107.45 114.642 110.101 114.642 113.359V118.727C114.642 122.815 110.599 126.141 105.628 126.141Z" fill="#E5E5E5"/>
<path d="M66.919 35.9278H57.2701C57.0973 35.9276 56.9316 35.8642 56.8093 35.7516C56.6871 35.639 56.6184 35.4862 56.6182 35.327V26.4351C56.6184 26.2759 56.6871 26.1232 56.8093 26.0105C56.9316 25.8979 57.0973 25.8345 57.2701 25.8344H66.919C67.0918 25.8345 67.2575 25.8979 67.3798 26.0105C67.502 26.1232 67.5707 26.2759 67.5709 26.4351V35.327C67.5707 35.4862 67.502 35.639 67.3798 35.7516C67.2575 35.8642 67.0918 35.9276 66.919 35.9278Z" fill="#FFCCD9"/>
<path d="M81.5225 35.9278H71.8736C71.7008 35.9276 71.5351 35.8642 71.4129 35.7516C71.2906 35.639 71.2219 35.4862 71.2217 35.327V26.4351C71.2219 26.2759 71.2906 26.1232 71.4129 26.0105C71.5351 25.8979 71.7008 25.8345 71.8736 25.8344H81.5225C81.6954 25.8345 81.8611 25.8979 81.9833 26.0105C82.1055 26.1232 82.1743 26.2759 82.1745 26.4351V35.327C82.1743 35.4862 82.1055 35.639 81.9833 35.7516C81.8611 35.8642 81.6954 35.9276 81.5225 35.9278Z" fill="#E5E5E5"/>
<path d="M96.1266 35.9278H86.4776C86.3048 35.9276 86.1391 35.8642 86.0169 35.7516C85.8946 35.639 85.8259 35.4862 85.8257 35.327V26.4351C85.8259 26.2759 85.8946 26.1232 86.0169 26.0105C86.1391 25.8979 86.3048 25.8345 86.4776 25.8344H96.1266C96.2994 25.8345 96.4651 25.8979 96.5873 26.0105C96.7096 26.1232 96.7783 26.2759 96.7785 26.4351V35.327C96.7783 35.4862 96.7096 35.639 96.5873 35.7516C96.4651 35.8642 96.2994 35.9276 96.1266 35.9278Z" fill="#E5E5E5"/>
<path d="M110.73 35.9278H101.081C100.908 35.9276 100.743 35.8642 100.62 35.7516C100.498 35.639 100.429 35.4862 100.429 35.327V26.4351C100.429 26.2759 100.498 26.1232 100.62 26.0105C100.743 25.8979 100.908 25.8345 101.081 25.8344H110.73C110.903 25.8345 111.069 25.8979 111.191 26.0105C111.313 26.1232 111.382 26.2759 111.382 26.4351V35.327C111.382 35.4862 111.313 35.639 111.191 35.7516C111.069 35.8642 110.903 35.9276 110.73 35.9278Z" fill="#E5E5E5"/>
<path d="M66.8843 52.3897H57.2354C57.0626 52.3895 56.8969 52.3262 56.7747 52.2135C56.6525 52.1009 56.5837 51.9482 56.5835 51.7889V42.8971C56.5837 42.7378 56.6525 42.5851 56.7747 42.4724C56.8969 42.3598 57.0626 42.2965 57.2354 42.2963H66.8843C67.0572 42.2965 67.2229 42.3598 67.3451 42.4724C67.4673 42.5851 67.5361 42.7378 67.5363 42.8971V51.7889C67.5361 51.9482 67.4673 52.1009 67.3451 52.2135C67.2229 52.3262 67.0572 52.3895 66.8843 52.3897Z" fill="#E5E5E5"/>
<path d="M81.4883 52.3897H71.8394C71.6666 52.3895 71.5009 52.3262 71.3787 52.2135C71.2565 52.1009 71.1877 51.9482 71.1875 51.7889V42.8971C71.1877 42.7378 71.2565 42.5851 71.3787 42.4724C71.5009 42.3598 71.6666 42.2965 71.8394 42.2963H81.4883C81.6612 42.2965 81.8269 42.3598 81.9491 42.4724C82.0713 42.5851 82.1401 42.7378 82.1403 42.8971V51.7889C82.1401 51.9482 82.0713 52.1009 81.9491 52.2135C81.8269 52.3262 81.6612 52.3895 81.4883 52.3897Z" fill="#E5E5E5"/>
<path d="M96.0918 52.3897H86.443C86.2701 52.3895 86.1044 52.3262 85.9822 52.2135C85.86 52.1009 85.7912 51.9482 85.791 51.7889V42.8971C85.7912 42.7378 85.86 42.5851 85.9822 42.4724C86.1044 42.3598 86.2701 42.2965 86.443 42.2963H96.0918C96.2647 42.2965 96.4304 42.3598 96.5526 42.4724C96.6748 42.5851 96.7436 42.7378 96.7438 42.8971V51.7889C96.7436 51.9482 96.6748 52.1009 96.5526 52.2135C96.4304 52.3262 96.2647 52.3895 96.0918 52.3897Z" fill="#FFCCD9"/>
<path d="M110.695 52.3897H101.046C100.874 52.3895 100.708 52.3262 100.586 52.2135C100.463 52.1009 100.395 51.9482 100.395 51.7889V42.8971C100.395 42.7378 100.463 42.5851 100.586 42.4724C100.708 42.3598 100.874 42.2965 101.046 42.2963H110.695C110.868 42.2965 111.034 42.3598 111.156 42.4724C111.278 42.5851 111.347 42.7378 111.347 42.8971V51.7889C111.347 51.9482 111.278 52.1009 111.156 52.2135C111.034 52.3262 110.868 52.3895 110.695 52.3897Z" fill="#FFCCD9"/>
<path d="M66.8497 68.8516H57.2008C57.0279 68.8515 56.8622 68.7881 56.74 68.6755C56.6178 68.5628 56.549 68.4101 56.5488 68.2508V59.359C56.549 59.1997 56.6178 59.047 56.74 58.9344C56.8622 58.8217 57.0279 58.7584 57.2008 58.7582H66.8497C67.0225 58.7584 67.1882 58.8217 67.3104 58.9344C67.4327 59.047 67.5014 59.1997 67.5016 59.359V68.2508C67.5014 68.4101 67.4327 68.5628 67.3104 68.6755C67.1882 68.7881 67.0225 68.8515 66.8497 68.8516Z" fill="#E5E5E5"/>
<path d="M81.4532 68.8516H71.8043C71.6314 68.8515 71.4657 68.7881 71.3435 68.6755C71.2213 68.5628 71.1525 68.4101 71.1523 68.2508V59.359C71.1525 59.1997 71.2213 59.047 71.3435 58.9344C71.4657 58.8217 71.6314 58.7584 71.8043 58.7582H81.4532C81.626 58.7584 81.7917 58.8217 81.9139 58.9344C82.0362 59.047 82.1049 59.1997 82.1051 59.359V68.2508C82.1049 68.4101 82.0362 68.5628 81.9139 68.6755C81.7917 68.7881 81.626 68.8515 81.4532 68.8516Z" fill="#E5E5E5"/>
<path d="M96.0576 68.8516H86.4088C86.2359 68.8515 86.0702 68.7881 85.948 68.6755C85.8258 68.5628 85.757 68.4101 85.7568 68.2508V59.359C85.757 59.1997 85.8258 59.047 85.948 58.9344C86.0702 58.8217 86.2359 58.7584 86.4088 58.7582H96.0576C96.2305 58.7584 96.3962 58.8217 96.5184 58.9344C96.6406 59.047 96.7094 59.1997 96.7096 59.359V68.2508C96.7094 68.4101 96.6406 68.5628 96.5184 68.6755C96.3962 68.7881 96.2305 68.8515 96.0576 68.8516Z" fill="#E5E5E5"/>
<path d="M110.661 68.8516H101.012C100.839 68.8515 100.674 68.7881 100.552 68.6755C100.429 68.5628 100.361 68.4101 100.36 68.2508V59.359C100.361 59.1997 100.429 59.047 100.552 58.9344C100.674 58.8217 100.839 58.7584 101.012 58.7582H110.661C110.834 58.7584 111 58.8217 111.122 58.9344C111.244 59.047 111.313 59.1997 111.313 59.359V68.2508C111.313 68.4101 111.244 68.5628 111.122 68.6755C111 68.7881 110.834 68.8515 110.661 68.8516Z" fill="#E5E5E5"/>
<path d="M66.8155 85.3134H57.1666C56.9938 85.3132 56.828 85.2498 56.7058 85.1372C56.5836 85.0246 56.5149 84.8719 56.5146 84.7126V75.8208C56.5149 75.6615 56.5836 75.5088 56.7058 75.3961C56.828 75.2835 56.9938 75.2202 57.1666 75.22H66.8155C66.9883 75.2202 67.154 75.2835 67.2763 75.3961C67.3985 75.5088 67.4672 75.6615 67.4674 75.8208V84.7126C67.4672 84.8719 67.3985 85.0246 67.2763 85.1372C67.154 85.2498 66.9883 85.3132 66.8155 85.3134Z" fill="#E5E5E5"/>
<path d="M81.419 85.3134H71.7701C71.5973 85.3132 71.4316 85.2498 71.3093 85.1372C71.1871 85.0246 71.1184 84.8719 71.1182 84.7126V75.8208C71.1184 75.6615 71.1871 75.5088 71.3093 75.3961C71.4316 75.2835 71.5973 75.2202 71.7701 75.22H81.419C81.5919 75.2202 81.7576 75.2835 81.8798 75.3961C82.002 75.5088 82.0708 75.6615 82.071 75.8208V84.7126C82.0708 84.8719 82.002 85.0246 81.8798 85.1372C81.7576 85.2498 81.5919 85.3132 81.419 85.3134Z" fill="#E5E5E5"/>
<path d="M96.0225 85.3134H86.3736C86.2008 85.3132 86.0351 85.2498 85.9129 85.1372C85.7906 85.0246 85.7219 84.8719 85.7217 84.7126V75.8208C85.7219 75.6615 85.7906 75.5088 85.9129 75.3961C86.0351 75.2835 86.2008 75.2202 86.3736 75.22H96.0225C96.1954 75.2202 96.3611 75.2835 96.4833 75.3961C96.6055 75.5088 96.6743 75.6615 96.6745 75.8208V84.7126C96.6743 84.8719 96.6055 85.0246 96.4833 85.1372C96.3611 85.2498 96.1954 85.3132 96.0225 85.3134Z" fill="#E5E5E5"/>
<path d="M110.627 85.3134H100.978C100.805 85.3132 100.639 85.2498 100.517 85.1372C100.395 85.0246 100.326 84.8719 100.326 84.7126V75.8208C100.326 75.6615 100.395 75.5088 100.517 75.3961C100.639 75.2835 100.805 75.2202 100.978 75.22H110.627C110.799 75.2202 110.965 75.2835 111.087 75.3961C111.21 75.5088 111.278 75.6615 111.279 75.8208V84.7126C111.278 84.8719 111.21 85.0246 111.087 85.1372C110.965 85.2498 110.799 85.3132 110.627 85.3134Z" fill="#E5E5E5"/>
<path d="M66.919 122.082H57.2701C57.0973 122.082 56.9316 122.019 56.8093 121.906C56.6871 121.794 56.6184 121.641 56.6182 121.482V112.59C56.6184 112.43 56.6871 112.278 56.8093 112.165C56.9316 112.052 57.0973 111.989 57.2701 111.989H66.919C67.0918 111.989 67.2575 112.052 67.3798 112.165C67.502 112.278 67.5707 112.43 67.5709 112.59V121.482C67.5707 121.641 67.502 121.794 67.3798 121.906C67.2575 122.019 67.0918 122.082 66.919 122.082Z" fill="white"/>
<path d="M81.5225 122.082H71.8736C71.7008 122.082 71.5351 122.019 71.4129 121.906C71.2906 121.794 71.2219 121.641 71.2217 121.482V112.59C71.2219 112.43 71.2906 112.278 71.4129 112.165C71.5351 112.052 71.7008 111.989 71.8736 111.989H81.5225C81.6954 111.989 81.8611 112.052 81.9833 112.165C82.1055 112.278 82.1743 112.43 82.1745 112.59V121.482C82.1743 121.641 82.1055 121.794 81.9833 121.906C81.8611 122.019 81.6954 122.082 81.5225 122.082Z" fill="white"/>
<path d="M96.1266 122.082H86.4776C86.3048 122.082 86.1391 122.019 86.0169 121.906C85.8946 121.794 85.8259 121.641 85.8257 121.482V112.59C85.8259 112.43 85.8946 112.278 86.0169 112.165C86.1391 112.052 86.3048 111.989 86.4776 111.989H96.1266C96.2994 111.989 96.4651 112.052 96.5873 112.165C96.7096 112.278 96.7783 112.43 96.7785 112.59V121.482C96.7783 121.641 96.7096 121.794 96.5873 121.906C96.4651 122.019 96.2994 122.082 96.1266 122.082Z" fill="white"/>
<path d="M110.73 122.082H101.081C100.908 122.082 100.743 122.019 100.62 121.906C100.498 121.794 100.429 121.641 100.429 121.482V112.59C100.429 112.43 100.498 112.278 100.62 112.165C100.743 112.052 100.908 111.989 101.081 111.989H110.73C110.903 111.989 111.069 112.052 111.191 112.165C111.313 112.278 111.382 112.43 111.382 112.59V121.482C111.382 121.641 111.313 121.794 111.191 121.906C111.069 122.019 110.903 122.082 110.73 122.082Z" fill="white"/>
<path d="M79.2717 103.337C79.9918 103.337 80.5756 102.799 80.5756 102.136C80.5756 101.472 79.9918 100.934 79.2717 100.934C78.5516 100.934 77.9678 101.472 77.9678 102.136C77.9678 102.799 78.5516 103.337 79.2717 103.337Z" fill="#E5E5E5"/>
<path d="M83.965 103.337C84.6852 103.337 85.2689 102.799 85.2689 102.136C85.2689 101.472 84.6852 100.934 83.965 100.934C83.2449 100.934 82.6611 101.472 82.6611 102.136C82.6611 102.799 83.2449 103.337 83.965 103.337Z" fill="#E5E5E5"/>
<path d="M88.6594 103.337C89.3795 103.337 89.9633 102.799 89.9633 102.136C89.9633 101.472 89.3795 100.934 88.6594 100.934C87.9392 100.934 87.3555 101.472 87.3555 102.136C87.3555 102.799 87.9392 103.337 88.6594 103.337Z" fill="#E5E5E5"/>
<path d="M167.798 131.158H0.202166C0.148548 131.158 0.0971264 131.138 0.0592129 131.103C0.0212994 131.069 0 131.021 0 130.972C0 130.922 0.0212994 130.875 0.0592129 130.84C0.0971264 130.805 0.148548 130.785 0.202166 130.785H167.798C167.851 130.785 167.903 130.805 167.941 130.84C167.979 130.875 168 130.922 168 130.972C168 131.021 167.979 131.069 167.941 131.103C167.903 131.138 167.851 131.158 167.798 131.158Z" fill="#CBCBCB"/>
<path d="M65.9796 94.4751C66.2524 94.2238 66.462 93.9205 66.5938 93.5865C66.7256 93.2525 66.7764 92.8959 66.7424 92.5419C66.7085 92.1878 66.5908 91.8449 66.3975 91.5374C66.2042 91.2298 65.9401 90.965 65.6238 90.7617L68.1702 82.4471L63.5276 83.8078L61.8213 91.4948C61.4859 92.0072 61.366 92.6151 61.4845 93.2035C61.6029 93.7918 61.9514 94.3197 62.464 94.687C62.9766 95.0544 63.6175 95.2357 64.2655 95.1966C64.9134 95.1576 65.5233 94.9008 65.9796 94.4751Z" fill="#FFB7B7"/>
<path d="M67.2997 89.3787C67.2168 89.3933 67.1325 89.3999 67.048 89.3983L62.5944 89.3161C62.4268 89.313 62.2618 89.277 62.1104 89.2106C61.9591 89.1442 61.8248 89.0488 61.7166 88.9308C61.6083 88.8129 61.5286 88.675 61.4827 88.5264C61.4367 88.3778 61.4257 88.222 61.4502 88.0691L65.9682 59.9389C66.103 59.1253 66.5492 58.3829 67.2261 57.8459C67.903 57.3089 68.766 57.0127 69.6592 57.0109C70.2231 57.0122 70.7794 57.1315 71.286 57.36C71.7926 57.5884 72.2362 57.9199 72.5833 58.3295C72.9305 58.7391 73.1722 59.216 73.2901 59.7242C73.4079 60.2325 73.399 60.7587 73.2638 61.2633L70.0614 73.2159L68.2453 88.4297C68.2189 88.6604 68.1128 88.8772 67.9425 89.048C67.7723 89.2189 67.5469 89.3348 67.2997 89.3787Z" fill="#3F3D56"/>
<path d="M69.162 133.786H71.6406L72.8198 124.976L69.1616 124.976L69.162 133.786Z" fill="#FFB7B7"/>
<path d="M68.5298 133.04L73.4109 133.04H73.4111C74.2361 133.04 75.0272 133.342 75.6106 133.88C76.1939 134.417 76.5217 135.146 76.5217 135.907V136L68.5299 136L68.5298 133.04Z" fill="#2F2E41"/>
<path d="M79.731 133.044L82.194 133.299L84.4313 124.665L80.796 124.289L79.731 133.044Z" fill="#FFB7B7"/>
<path d="M79.1923 132.238L84.043 132.739L84.0432 132.739C84.863 132.824 85.6127 133.206 86.1274 133.8C86.6421 134.394 86.8796 135.152 86.7877 135.908L86.7765 136L78.8345 135.18L79.1923 132.238Z" fill="#2F2E41"/>
<path d="M66.8359 84.76C66.8359 84.76 63.4379 91.6922 66.4386 96.1948L68.2263 131.251H72.3309L76.313 102.933L83.3888 111.317L79.0778 130.884L84.0979 131.143L91.0711 111.317C91.0711 111.317 85.7141 89.4542 83.9449 88.9278L82.7823 83.9301L66.8359 84.76Z" fill="#2F2E41"/>
<path d="M65.3237 90.846C65.3237 90.846 62.2625 94.0835 70.3492 95.2014C78.4358 96.3192 86.9268 94.6425 87.129 92.4068C87.3312 90.1712 65.3237 90.846 65.3237 90.846Z" fill="#CBCBCB"/>
<path d="M105.861 50.6846C105.848 51.0006 105.761 51.3103 105.604 51.5917C105.448 51.8732 105.226 52.1197 104.955 52.3137C104.684 52.5078 104.371 52.6447 104.036 52.7149C103.701 52.7851 103.354 52.7868 103.019 52.7199L99.9619 56.7822L96.8301 55.6724L101.234 49.9916C101.393 49.4798 101.751 49.0396 102.239 48.7544C102.727 48.4692 103.311 48.3589 103.881 48.4443C104.452 48.5297 104.968 48.805 105.333 49.2178C105.698 49.6307 105.886 50.1526 105.861 50.6846Z" fill="#FFB7B7"/>
<path d="M80.0101 55.9111L75.6884 54.1094L70.1511 54.4742C70.1511 54.4742 63.4755 61.6667 66.1037 68.5599L64.4863 92.5931C74.7968 95.2014 79.4836 90.3095 86.9268 92.4068L84.6277 65.6966L80.0101 55.9111Z" fill="#3F3D56"/>
<path d="M77.1216 57.6611L80.01 55.9111C80.01 55.9111 84.0223 55.3521 85.6261 56.7861C85.6261 56.7861 91.0698 57.2059 92.3845 58.4582L93.8321 58.7589L98.641 53.0204L101.584 54.4939L97.3382 65.1132L84.6276 65.6965L77.1216 57.6611Z" fill="#3F3D56"/>
<path d="M78.118 52.0882C81.424 50.4227 82.639 46.6029 80.8318 43.5563C79.0245 40.5096 74.8795 39.39 71.5735 41.0554C68.2675 42.7208 67.0524 46.5407 68.8597 49.5873C70.6669 52.6339 74.812 53.7536 78.118 52.0882Z" fill="#FFB7B7"/>
<path d="M68.9457 41.6567C70.1634 39.6384 71.6851 38.3315 74.1905 38.3787C76.696 38.4258 78.8632 38.3346 79.9904 40.3971C80.2884 39.883 80.4376 39.3069 80.4237 38.7242C80.7641 38.9279 81.0323 39.2189 81.1954 39.5613C81.3585 39.9038 81.4092 40.2828 81.3414 40.6515C81.5606 40.5331 81.7442 40.366 81.8751 40.1653C82.0061 39.9646 82.0803 39.7368 82.0909 39.5029C82.9271 39.7593 83.1445 40.8452 82.7214 41.5576C82.2983 42.27 81.4686 42.6819 80.6724 43.0301C79.8763 43.3784 80.2439 45.2202 79.724 45.8759C79.3612 46.3336 79.1952 46.8944 78.9508 47.4145C78.9405 47.435 78.9231 47.4518 78.9013 47.4621C78.3407 47.7501 77.9869 48.2648 78.0858 48.8492C78.0976 48.893 78.0948 48.939 78.0779 48.9814C77.3682 50.2134 76.6022 51.5024 75.3159 52.2376C74.2838 52.812 73.0475 52.9881 71.8753 52.7277C70.5605 52.438 69.4239 51.6347 68.6043 50.644C67.7846 49.6533 67.2574 48.4824 66.8613 47.2913C66.5099 46.2347 66.2543 45.105 66.5329 44.0301C66.8116 42.9552 67.7555 41.9599 68.9513 41.8769" fill="#2F2E41"/>
</g>
<defs>
<clipPath id="clip0">
<rect width="168" height="136" fill="white"/>
</clipPath>
</defs>
</svg>
