<svg width="426" height="253" viewBox="0 0 426 253" fill="none" xmlns="http://www.w3.org/2000/svg">
<path d="M71.2681 165.589C71.2681 165.589 76.4513 173.055 74.6002 175.076C72.7491 177.098 88.4882 177.148 88.4882 177.148C88.4882 177.148 86.124 166.288 86.8198 163.788L71.2681 165.589Z" fill="#FFB8B8"/>
<path d="M79.5514 168.295C88.5277 168.295 95.8044 161.686 95.8044 153.535C95.8044 145.383 88.5277 138.775 79.5514 138.775C70.5751 138.775 63.2983 145.383 63.2983 153.535C63.2983 161.686 70.5751 168.295 79.5514 168.295Z" fill="#2F2E41"/>
<path d="M117.778 233.538V242.289L127.413 240.465L126.611 234.268L117.778 233.538Z" fill="#FFB8B8"/>
<path d="M151.903 234.997L178.801 239.007L171.976 248.122C171.976 248.122 153.107 242.288 148.29 242.288C143.472 242.288 151.903 234.997 151.903 234.997Z" fill="#FFB8B8"/>
<path d="M90.8805 217.497C90.8805 217.497 110.954 196.351 117.377 197.444C123.801 198.538 126.611 205.101 126.611 205.101L130.224 237.549C130.224 237.549 117.377 238.643 117.377 237.549C117.377 236.455 114.968 213.122 114.968 213.122C114.968 213.122 96.0996 251.038 86.063 225.882L90.8805 217.497Z" fill="#D0CDE1"/>
<path d="M58.3618 231.715C58.3618 231.715 58.7633 250.816 70.8072 251.91C82.8511 253.004 96.0993 243.747 96.0993 243.747L117.778 234.315C117.778 234.315 143.472 246.663 151.1 243.382C151.1 243.382 159.129 235.726 153.91 233.538C148.691 231.351 153.509 233.538 153.509 233.538L122.596 218.955C122.596 218.955 116.574 217.497 106.136 221.507C95.6979 225.518 81.6467 227.34 81.6467 227.34L58.3618 231.715Z" fill="#D0CDE1"/>
<path d="M78.435 169.371C85.0867 169.371 90.4789 164.474 90.4789 158.434C90.4789 152.393 85.0867 147.496 78.435 147.496C71.7833 147.496 66.3911 152.393 66.3911 158.434C66.3911 164.474 71.7833 169.371 78.435 169.371Z" fill="#FFB8B8"/>
<path d="M95.6979 189.059L94.8949 204.371C94.8949 204.371 95.2964 224.424 91.6832 225.882C89.8566 226.618 86.1872 228.099 82.7948 229.717C80.2496 230.928 77.8609 232.211 76.528 233.316C76.1746 233.589 75.8699 233.91 75.6247 234.268C74.0189 236.82 63.5808 236.455 61.172 234.632C58.7633 232.809 60.3691 236.82 58.3618 237.549C56.4187 238.256 53.7249 232.474 55.3749 223.84C55.4271 223.552 55.4873 223.261 55.5515 222.965C57.3943 214.598 54.4997 194.557 54.9453 186.813C54.9713 186.221 55.0397 185.632 55.1501 185.048C56.3545 179.215 71.7225 167.344 74.5969 172.401C78.1378 178.643 86.2715 172.94 87.6686 170.1C95.6978 169.736 98.5081 178.486 98.5081 178.486L95.6979 189.059Z" fill="#84D9EF"/>
<path d="M128.216 239.007C128.216 239.007 121.793 241.195 119.786 240.83C117.778 240.465 115.771 241.924 115.771 244.111C115.771 246.299 113.362 251.403 116.975 251.768C120.588 252.132 135.443 251.403 138.654 252.497C138.654 252.497 153.107 252.861 151.903 247.393C150.698 241.924 144.676 242.288 144.676 242.288C144.676 242.288 128.216 241.559 128.216 239.007Z" fill="#2F2E41"/>
<path d="M175.188 240.101C175.188 240.101 175.991 237.913 177.195 237.913C178.399 237.913 188.035 239.372 189.239 239.007C190.443 238.643 204.495 237.913 202.086 244.111C199.677 250.309 191.648 251.038 191.648 251.038C191.648 251.038 177.195 249.58 175.188 249.945C173.18 250.309 165.954 249.945 167.158 248.122C168.363 246.299 175.991 243.018 175.188 240.101Z" fill="#2F2E41"/>
<path d="M138.644 187.733L140.847 195.984C140.871 196.076 140.867 196.172 140.836 196.262L130.845 224.616C130.805 224.728 130.724 224.825 130.616 224.89C130.507 224.954 130.378 224.983 130.248 224.972C130.119 224.96 129.998 224.909 129.906 224.826C129.813 224.743 129.755 224.634 129.74 224.517L128.358 213.472C128.349 213.398 128.357 213.324 128.382 213.254L137.553 187.695C137.591 187.588 137.667 187.496 137.768 187.432C137.869 187.368 137.991 187.335 138.114 187.339C138.238 187.344 138.356 187.385 138.452 187.456C138.548 187.527 138.615 187.624 138.644 187.733Z" fill="#3F3D56"/>
<path d="M137.834 188.43L139.868 195.509L131.056 221.363L129.022 213.361L137.834 188.43Z" fill="white"/>
<path d="M93.4356 226.903C93.7745 227.826 128.683 226.595 129.022 226.287C129.317 225.902 129.567 225.489 129.767 225.056C130.086 224.441 130.378 223.825 130.378 223.825L129.022 213.859L94.4523 212.745C94.4523 212.745 93.5881 221.19 93.4118 225.056C93.3518 225.671 93.3598 226.29 93.4356 226.903Z" fill="#3F3D56"/>
<path opacity="0.1" d="M124.616 215.207L125.294 223.825H110.043V215.207H124.616Z" fill="black"/>
<path opacity="0.1" d="M104.959 217.977L105.05 217.961L104.62 221.67H96.147V217.977H104.959Z" fill="black"/>
<path opacity="0.1" d="M93.4356 226.903C93.7745 227.826 128.683 226.595 129.022 226.287C129.317 225.902 129.567 225.489 129.767 225.056H93.4118C93.3518 225.671 93.3598 226.29 93.4356 226.903Z" fill="black"/>
<path d="M82.2444 141.513C84.746 141.513 86.7739 139.671 86.7739 137.399C86.7739 135.127 84.746 133.286 82.2444 133.286C79.7428 133.286 77.7148 135.127 77.7148 137.399C77.7148 139.671 79.7428 141.513 82.2444 141.513Z" fill="#2F2E41"/>
<path d="M80.8821 141.877C80.8821 141.877 76.2543 148.867 65.4931 151.484C54.732 154.101 65.4052 168.786 65.4052 168.786C65.4052 168.786 61.5241 163.446 67.1221 157.791C72.7202 152.135 81.729 148.269 80.8821 141.877Z" fill="#2F2E41"/>
<path opacity="0.1" d="M82.7948 229.718C81.8032 231.42 80.6389 233.188 80.4422 233.903C80.3097 234.388 78.8404 234.107 76.5279 233.316C71.891 231.723 63.8537 228.073 56.3544 224.424C56.0087 224.257 55.6808 224.062 55.3749 223.84C55.427 223.552 55.4873 223.261 55.5515 222.965C57.3942 214.598 54.4997 194.557 54.9453 186.813L58.3617 185.778L65.1866 191.611V216.403C65.1866 216.403 82.851 225.153 84.0554 225.882C84.6696 226.254 83.8225 227.949 82.7948 229.718Z" fill="black"/>
<path d="M97.7055 209.84L108.545 214.944C108.545 214.944 114.968 208.746 118.983 213.486C122.998 218.226 107.341 219.684 107.341 219.684C107.341 219.684 93.6908 216.767 93.2894 212.757C92.8879 208.746 97.7055 209.84 97.7055 209.84Z" fill="#FFB8B8"/>
<path d="M79.6394 223.33L86.0628 224.788C86.0628 224.788 93.2892 216.767 100.917 219.684C108.545 222.601 91.2819 228.434 91.2819 228.434C91.2819 228.434 82.0482 232.809 78.4351 229.163C74.8219 225.517 79.6394 223.33 79.6394 223.33Z" fill="#FFB8B8"/>
<path d="M93.6904 175.205C94.0919 175.569 98.508 178.486 98.508 178.486C98.508 178.486 99.7124 192.34 98.1065 195.257C96.5007 198.173 95.2962 198.173 96.5007 199.632C97.7051 201.09 99.3109 199.996 97.705 202.549C96.0992 205.101 94.4933 204.736 95.6977 205.83C96.9021 206.924 96.5007 207.288 96.5007 207.288L101.318 210.934C101.318 210.934 98.3625 215.209 94.6213 214.895C90.8802 214.58 87.6685 198.173 87.6685 198.173L93.6904 175.205Z" fill="#84D9EF"/>
<path d="M58.3618 183.955L54.7486 185.048C54.7486 185.048 45.1135 217.132 56.3545 222.601C67.5955 228.069 80.0408 233.538 80.4423 232.08C80.8438 230.622 85.2599 224.788 84.0555 224.059C82.851 223.33 65.1867 214.58 65.1867 214.58V189.788L58.3618 183.955Z" fill="#84D9EF"/>
<path opacity="0.1" d="M63.7816 197.262L62.979 214.762L84.2565 223.877L64.5847 214.762L63.7816 197.262Z" fill="black"/>
<path d="M373.422 58.2743V86.8887C373.421 87.1531 373.305 87.4064 373.099 87.5934C372.893 87.7803 372.614 87.8857 372.323 87.8864H371.541V236.949C371.541 241.074 369.736 245.029 366.525 247.946C363.313 250.863 358.957 252.502 354.415 252.502H251.853C249.605 252.502 247.378 252.099 245.3 251.317C243.223 250.536 241.335 249.39 239.745 247.946C238.155 246.501 236.894 244.787 236.034 242.9C235.174 241.013 234.731 238.991 234.732 236.949V93.1143H234.166C233.96 93.1146 233.763 93.041 233.617 92.9095C233.472 92.778 233.389 92.5994 233.388 92.4129V76.1278C233.388 76.0352 233.409 75.9434 233.448 75.8577C233.487 75.7721 233.544 75.6943 233.616 75.6287C233.688 75.5632 233.774 75.5112 233.868 75.4757C233.962 75.4403 234.064 75.422 234.166 75.422H234.732V69.2879H234.161C233.945 69.2872 233.739 69.2088 233.587 69.0699C233.435 68.931 233.35 68.7431 233.35 68.5473V52.4844C233.351 52.2893 233.436 52.1023 233.588 51.9643C233.74 51.8264 233.946 51.7486 234.161 51.7481H234.732V43.3747H234.151C234.057 43.3748 233.963 43.358 233.876 43.3251C233.788 43.2924 233.709 43.2442 233.642 43.1835C233.575 43.1228 233.522 43.0507 233.486 42.9714C233.45 42.892 233.431 42.807 233.432 42.7212V33.9556C233.431 33.7818 233.507 33.6149 233.642 33.4916C233.777 33.3682 233.96 33.2985 234.151 33.2978H234.732V15.5488C234.732 11.4251 236.536 7.47025 239.747 4.55431C242.958 1.63837 247.312 0.000150199 251.853 1.59137e-10H354.415C358.956 -1.86427e-05 363.312 1.63801 366.523 4.55386C369.735 7.46971 371.54 11.4246 371.541 15.5488V57.2767H372.323C372.614 57.2774 372.893 57.3827 373.099 57.5697C373.305 57.7566 373.421 58.0099 373.422 58.2743Z" fill="#3F3D56"/>
<path d="M308.075 7.97559H291.409C290.736 7.97559 290.19 8.47139 290.19 9.08299V10.3911C290.19 11.0027 290.736 11.4985 291.409 11.4985H308.075C308.748 11.4985 309.294 11.0027 309.294 10.3911V9.08299C309.294 8.47139 308.748 7.97559 308.075 7.97559Z" fill="#E6E8EC"/>
<path d="M314.383 11.7353C315.599 11.7353 316.584 10.8407 316.584 9.73707C316.584 8.63347 315.599 7.73883 314.383 7.73883C313.168 7.73883 312.183 8.63347 312.183 9.73707C312.183 10.8407 313.168 11.7353 314.383 11.7353Z" fill="#E6E8EC"/>
<path d="M363.34 18.6246V238.238C363.339 240.855 362.193 243.363 360.156 245.213C358.118 247.062 355.355 248.102 352.474 248.102H254.298C252.87 248.104 251.457 247.85 250.138 247.355C248.818 246.861 247.62 246.134 246.61 245.218C245.601 244.302 244.801 243.213 244.255 242.016C243.71 240.818 243.43 239.534 243.432 238.238V18.6246C243.432 17.3287 243.713 16.0455 244.259 14.8483C244.805 13.651 245.605 12.5632 246.614 11.6469C247.623 10.7305 248.821 10.0037 250.139 9.50781C251.458 9.01192 252.871 8.75672 254.298 8.75678H268.992V10.4689C268.992 12.6238 269.934 14.6905 271.612 16.2142C273.29 17.738 275.566 18.594 277.939 18.5941H327.869C330.242 18.594 332.517 17.738 334.195 16.2143C335.873 14.6905 336.816 12.6238 336.816 10.4689V8.75678H352.474C353.901 8.75636 355.314 9.01131 356.633 9.50706C357.951 10.0028 359.15 10.7297 360.159 11.646C361.168 12.5624 361.968 13.6504 362.514 14.8478C363.06 16.0452 363.341 17.3286 363.34 18.6246Z" fill="white"/>
<path d="M353.478 153.336H253.694V165.099H353.478V153.336Z" fill="#E6E6E6"/>
<path d="M353.478 174.247H253.694V186.01H353.478V174.247Z" fill="#E6E6E6"/>
<path d="M353.478 195.159H253.694V206.922H353.478V195.159Z" fill="#E6E6E6"/>
<path d="M342.444 48.3407C347.743 48.3407 352.039 44.4397 352.039 39.6275C352.039 34.8152 347.743 30.9142 342.444 30.9142C337.145 30.9142 332.85 34.8152 332.85 39.6275C332.85 44.4397 337.145 48.3407 342.444 48.3407Z" fill="#FFD3E0"/>
<path d="M353.277 68.8169H253.494V128.938H353.277V68.8169Z" fill="#E6E6E6"/>
<path d="M293.228 102.62C296.141 112.401 306.121 118.458 306.121 118.458C306.121 118.458 311.376 108.658 308.463 98.8776C305.549 89.097 295.57 83.0396 295.57 83.0396C295.57 83.0396 290.314 92.8398 293.228 102.62Z" fill="#3F3D56"/>
<path d="M297.509 100.518C305.503 107.586 306.48 118.451 306.48 118.451C306.48 118.451 294.495 117.856 286.5 110.789C278.505 103.721 277.529 92.8566 277.529 92.8566C277.529 92.8566 289.514 93.4509 297.509 100.518Z" fill="#FFD3E0"/>
<path d="M319.733 102.62C316.819 112.401 306.84 118.458 306.84 118.458C306.84 118.458 301.584 108.658 304.498 98.8776C307.411 89.0969 317.39 83.0396 317.39 83.0396C317.39 83.0396 322.646 92.8397 319.733 102.62Z" fill="#3F3D56"/>
<path d="M315.451 100.518C307.456 107.586 306.48 118.451 306.48 118.451C306.48 118.451 318.465 117.856 326.46 110.789C334.455 103.721 335.431 92.8566 335.431 92.8566C335.431 92.8566 323.446 93.4509 315.451 100.518Z" fill="#FFD3E0"/>
<path d="M426 252.024H0V253H426V252.024Z" fill="#3F3D56"/>
</svg>
