<svg width="121" height="119" viewBox="0 0 121 119" fill="none" xmlns="http://www.w3.org/2000/svg">
<path d="M20.7969 113.422H35.9219V107.844V85.5312V79.9531H20.7969V83.6719V109.703V113.422Z" fill="#006DF0"/>
<path d="M5.67188 83.6719H20.7969V109.703H5.67188V83.6719Z" fill="#004FAC"/>
<path d="M111.547 31.6094H51.0469C48.9585 31.6094 47.2656 33.2743 47.2656 35.3281V46.4844C47.2656 48.5382 48.9585 50.2031 51.0469 50.2031H111.547C113.635 50.2031 115.328 48.5382 115.328 46.4844V35.3281C115.328 33.2743 113.635 31.6094 111.547 31.6094Z" fill="#006DF0"/>
<path d="M111.547 57.6406H51.0469C48.9585 57.6406 47.2656 59.3056 47.2656 61.3594V72.5156C47.2656 74.5694 48.9585 76.2344 51.0469 76.2344H111.547C113.635 76.2344 115.328 74.5694 115.328 72.5156V61.3594C115.328 59.3056 113.635 57.6406 111.547 57.6406Z" fill="#005ECE"/>
<path d="M111.547 5.57812H51.0469C48.9585 5.57812 47.2656 7.24307 47.2656 9.29688V20.4531C47.2656 22.5069 48.9585 24.1719 51.0469 24.1719H111.547C113.635 24.1719 115.328 22.5069 115.328 20.4531V9.29688C115.328 7.24307 113.635 5.57812 111.547 5.57812Z" fill="#2488FF"/>
<path d="M54.8281 24.1719H107.766V31.6094H54.8281V24.1719Z" fill="#A7A9AC"/>
<path d="M54.8281 50.2031H107.766V57.6406H54.8281V50.2031Z" fill="#A7A9AC"/>
<path d="M92.6406 11.1562H107.766V18.5938H92.6406V11.1562Z" fill="#FFCD00"/>
<path d="M92.6406 37.1875H107.766V44.625H92.6406V37.1875Z" fill="#FFCD00"/>
<path d="M92.6406 63.2188H107.766V70.6562H92.6406V63.2188Z" fill="#FFCD00"/>
<path d="M54.8281 76.2344H107.766V83.6719H54.8281V76.2344Z" fill="#A7A9AC"/>
<path d="M54.8281 24.1719H107.766V27.8906H54.8281V24.1719Z" fill="#808285"/>
<path d="M54.8281 50.2031H107.766V53.9219H54.8281V50.2031Z" fill="#808285"/>
<path d="M54.8281 76.2344H107.766V79.9531H54.8281V76.2344Z" fill="#808285"/>
<path d="M15.125 83.6719H20.7969V109.703H15.125V83.6719Z" fill="#003F8A"/>
<path d="M52.9375 11.1562H56.7188V18.5938H52.9375V11.1562Z" fill="#F1F2F2"/>
<path d="M60.5 11.1562H64.2812V18.5938H60.5V11.1562Z" fill="#F1F2F2"/>
<path d="M68.0625 11.1562H71.8438V18.5938H68.0625V11.1562Z" fill="#F1F2F2"/>
<path d="M83.1875 11.1562H86.9688V18.5938H83.1875V11.1562Z" fill="#F1F2F2"/>
<path d="M75.625 11.1562H79.4062V18.5938H75.625V11.1562Z" fill="#F1F2F2"/>
<path d="M60.5 37.1875H64.2812V44.625H60.5V37.1875Z" fill="#F1F2F2"/>
<path d="M52.9375 37.1875H56.7188V44.625H52.9375V37.1875Z" fill="#F1F2F2"/>
<path d="M68.0625 37.1875H71.8438V44.625H68.0625V37.1875Z" fill="#F1F2F2"/>
<path d="M75.625 37.1875H79.4062V44.625H75.625V37.1875Z" fill="#F1F2F2"/>
<path d="M83.1875 37.1875H86.9688V44.625H83.1875V37.1875Z" fill="#F1F2F2"/>
<path d="M52.9375 63.2188H56.7188V70.6562H52.9375V63.2188Z" fill="#F1F2F2"/>
<path d="M60.5 63.2188H64.2812V70.6562H60.5V63.2188Z" fill="#F1F2F2"/>
<path d="M68.0625 63.2188H71.8438V70.6562H68.0625V63.2188Z" fill="#F1F2F2"/>
<path d="M75.625 63.2188H79.4062V70.6562H75.625V63.2188Z" fill="#F1F2F2"/>
<path d="M83.1875 63.2188H86.9688V70.6562H83.1875V63.2188Z" fill="#F1F2F2"/>
<path d="M113.967 84.4157C113.596 83.7819 113.101 83.2262 112.512 82.7804C111.923 82.3345 111.25 82.0073 110.531 81.8174C109.813 81.6274 109.064 81.5785 108.327 81.6734C107.59 81.7683 106.878 82.0051 106.234 82.3704L86.0613 93.8241H86.0518C85.783 92.9045 85.2773 92.0687 84.5837 91.3977C83.8902 90.7266 83.0322 90.2431 82.0928 89.9938L53.8847 82.5563C52.0238 82.0661 50.0666 82.0501 48.1977 82.5098L35.9219 85.5313V107.844L41.089 110.386C42.6642 111.159 44.4007 111.562 46.1615 111.563H74.4774C76.4681 111.565 78.4243 111.052 80.1493 110.075L111.912 92.0391C113.212 91.2959 114.159 90.0754 114.544 88.6458C114.93 87.2163 114.722 85.6947 113.967 84.4157Z" fill="#FFBCAB"/>
<path d="M86.1953 94.4116C86.1631 94.5975 86.1537 94.7835 86.1026 94.9694C85.9104 95.6774 85.5782 96.3412 85.125 96.9228C84.6719 97.5045 84.1066 97.9927 83.4616 98.3594C82.8165 98.7262 82.1043 98.9643 81.3656 99.0603C80.6269 99.1563 79.8763 99.1082 79.1565 98.9187L62.8574 94.6236L57.5826 93.2346L57.0778 94.8207L57.0381 94.9508L79.1584 100.778C80.0794 101.026 81.0492 101.04 81.9771 100.818C82.905 100.597 83.7607 100.147 84.4639 99.5123C85.1672 98.8771 85.6951 98.0769 85.9982 97.1864C86.3013 96.296 86.3698 95.3445 86.1972 94.4209L86.1953 94.4116Z" fill="#FF9478"/>
</svg>
