<svg width="404" height="380" viewBox="0 0 404 380" fill="none" xmlns="http://www.w3.org/2000/svg">
<g clip-path="url(#clip0)">
<path d="M330.506 305.554L362.715 300.092C369.398 298.958 373.839 292.944 372.634 286.658L372.63 286.638C371.425 280.352 365.031 276.175 358.348 277.309L326.138 282.771L330.506 305.554Z" fill="#FFD064"/>
<path d="M358.418 358.454L350.709 345.894C345.652 337.656 342.99 328.31 342.99 318.797V271.336C342.99 248.959 323.705 230.82 299.916 230.82C276.126 230.82 256.841 248.959 256.841 271.336V318.797C256.841 328.31 254.179 337.655 249.122 345.894L241.413 358.454C239.285 361.92 241.945 366.253 246.201 366.253H268.89C273.128 366.253 277.033 368.242 279.529 371.463C284.115 377.379 291.536 381.225 299.916 381.225C308.295 381.225 315.716 377.379 320.302 371.463C322.798 368.242 326.703 366.253 330.941 366.253H353.63C357.886 366.254 360.546 361.92 358.418 358.454Z" fill="#FFE07D"/>
<path d="M358.161 351.657L350.452 339.097C345.395 330.859 342.733 321.513 342.733 312V264.539C342.733 242.162 323.448 224.023 299.658 224.023C296.226 224.023 292.891 224.412 289.691 225.125C308.672 229.357 322.798 245.391 322.798 264.539V312C322.798 321.513 325.46 330.858 330.517 339.097L338.226 351.657C340.354 355.123 337.694 359.456 333.438 359.456H353.372C357.629 359.457 360.289 355.123 358.161 351.657Z" fill="#FFD064"/>
<path d="M330.506 305.554L362.715 300.092C369.398 298.958 373.839 292.944 372.634 286.658L372.63 286.638C371.425 280.352 365.031 276.175 358.348 277.309L326.138 282.771L330.506 305.554Z" fill="#FFD064"/>
<path d="M268.811 305.554L236.602 300.092C229.919 298.958 225.478 292.944 226.683 286.658L226.687 286.638C227.892 280.352 234.287 276.175 240.969 277.309L273.179 282.771L268.811 305.554Z" fill="#FFE07D"/>
<path d="M166.577 40.6601H175.743C177.051 40.6601 178.113 39.6626 178.113 38.4313V7.80044C178.113 6.5699 177.052 5.57166 175.743 5.57166H166.577C135.039 5.57166 109.473 29.6193 109.473 59.2838V67.1012C109.473 67.9221 108.766 68.5871 107.893 68.5871H91.936C90.6277 68.5871 89.5664 69.5846 89.5664 70.8159V101.447C89.5664 102.678 90.6269 103.676 91.936 103.676H107.893C108.766 103.676 109.473 104.341 109.473 105.162V165.557C109.473 166.787 110.533 167.786 111.842 167.786H144.409C145.717 167.786 146.778 166.788 146.778 165.557V105.162C146.778 104.341 147.485 103.676 148.358 103.676H164.315C165.623 103.676 166.685 102.679 166.685 101.447V70.8159C166.685 69.5853 165.624 68.5871 164.315 68.5871H148.358C147.485 68.5871 146.778 67.9221 146.778 67.1012V59.283C146.778 48.9978 155.642 40.6601 166.577 40.6601Z" fill="#5766CB"/>
<path d="M135.228 105.161V165.556C135.228 166.787 134.167 167.785 132.858 167.785H144.409C145.717 167.785 146.778 166.787 146.778 165.556V105.161C146.778 104.341 147.485 103.676 148.358 103.676H136.808C135.935 103.676 135.228 104.341 135.228 105.161Z" fill="#3D4FC3"/>
<path d="M164.314 68.587H152.764C154.072 68.587 155.134 69.5845 155.134 70.8158V101.447C155.134 102.678 154.073 103.676 152.764 103.676H164.314C165.623 103.676 166.684 102.679 166.684 101.447V70.8158C166.684 69.5845 165.624 68.587 164.314 68.587Z" fill="#3D4FC3"/>
<path d="M175.744 5.57166H166.578C165.939 5.57166 165.306 5.59763 164.672 5.61693C165.751 5.82474 166.563 6.72353 166.563 7.80044V38.432C166.563 39.6626 165.503 40.6608 164.194 40.6608H155.027C144.092 40.6608 135.228 48.9985 135.228 59.2838V67.1012C135.228 67.9221 135.935 68.5871 136.808 68.5871H148.358C147.485 68.5871 146.778 67.9221 146.778 67.1012V59.283C146.778 48.9978 155.643 40.66 166.577 40.66H175.744C177.052 40.66 178.114 39.6625 178.114 38.4313V7.80044C178.113 6.56916 177.052 5.57166 175.744 5.57166Z" fill="#3D4FC3"/>
<path d="M318.412 196.002H228.108C213.093 196.002 200.922 184.554 200.922 170.431V85.4919C200.922 71.3695 213.093 59.9205 228.108 59.9205H318.412C333.426 59.9205 345.598 71.3688 345.598 85.4919V170.432C345.598 184.554 333.427 196.002 318.412 196.002Z" fill="#EAAADD"/>
<path d="M327.585 61.4235C328.618 64.1265 329.183 67.0381 329.183 70.0751V154.969C329.183 169.104 317.001 180.562 301.973 180.562H211.717C208.488 180.562 205.393 180.03 202.519 179.059C206.291 188.936 216.332 196.002 228.131 196.002H318.387C333.414 196.002 345.597 184.543 345.597 170.409V85.5149C345.598 74.4162 338.086 64.9711 327.585 61.4235Z" fill="#E490D0"/>
<path d="M177.89 285.722C175.321 285.722 172.786 285.586 170.288 285.332C169.311 285.233 168.891 284.126 169.575 283.464C169.581 283.458 169.586 283.453 169.592 283.447C191.385 262.335 195.34 231.151 181.745 206.369C180.905 204.839 178.623 204.712 177.639 206.163C175.098 209.913 172.121 213.48 168.699 216.795C157.005 228.125 142.076 234.701 126.62 236.51C126.162 236.563 125.758 236.232 125.734 235.799C124.654 216.649 107.816 201.431 87.1866 201.431C72.3128 201.431 59.4093 209.344 52.9587 220.935C52.6841 221.429 52.1499 221.744 51.5573 221.744H33.0972C31.9238 221.744 31.1561 222.901 31.68 223.889C32.9165 226.219 35.4588 230.016 40.0181 233.067C40.5104 233.396 40.4426 234.102 39.895 234.342L32.084 237.758C31.0156 238.224 30.8468 239.58 31.7684 240.271C34.5301 242.338 40.2737 245.718 48.2858 245.689C49.0078 245.686 49.6202 246.169 49.8001 246.827C52.6683 257.312 60.3861 265.961 70.5737 270.536C71.2081 270.821 71.6792 271.344 71.8622 271.982C80.0156 300.377 107.591 321.27 140.357 321.27C167.686 321.27 191.403 306.734 203.252 285.435C204.247 283.646 202.411 281.655 200.375 282.295C193.31 284.516 185.751 285.722 177.89 285.722Z" fill="#B1E4F9"/>
<path d="M179.273 285.706C166.595 303.856 144.759 315.841 119.945 315.841C116.925 315.841 113.951 315.659 111.031 315.315C119.969 319.137 129.898 321.271 140.357 321.271C167.684 321.271 191.4 306.736 203.251 285.439C204.233 283.673 202.436 281.646 200.426 282.279C193.761 284.378 186.656 285.572 179.273 285.706Z" fill="#90D8F9"/>
<path d="M299.658 380C289.745 380 280.333 375.494 274.486 367.948C273.048 366.093 270.914 365.029 268.633 365.029H245.944C241.804 365.029 238.096 363.016 236.027 359.643C233.957 356.271 233.956 352.244 236.027 348.872L243.736 336.313C248.267 328.932 250.662 320.525 250.662 312.002V308.138L235.562 305.577C225.67 303.899 219.073 294.965 220.856 285.66C222.64 276.356 232.139 270.147 242.031 271.828L250.661 273.291V264.539C250.661 239.127 272.641 218.453 299.658 218.453C326.676 218.453 348.656 239.128 348.656 264.539V273.291L357.285 271.828C367.182 270.149 376.678 276.356 378.46 285.66C379.324 290.168 378.271 294.721 375.494 298.483C372.716 302.245 368.547 304.765 363.755 305.577L348.655 308.138V312.002C348.655 320.524 351.05 328.93 355.581 336.313L363.29 348.872C365.36 352.244 365.36 356.271 363.29 359.643C361.22 363.015 357.512 365.029 353.372 365.029H330.683C328.402 365.029 326.268 366.093 324.83 367.948C318.984 375.494 309.573 380 299.658 380ZM246.628 353.885H268.634C274.654 353.885 280.42 356.689 284.059 361.384C287.686 366.063 293.517 368.858 299.659 368.858C305.801 368.858 311.633 366.064 315.259 361.384C318.898 356.689 324.665 353.885 330.685 353.885H352.69L345.324 341.883C339.755 332.809 336.811 322.476 336.811 312V303.48C336.811 300.785 338.863 298.476 341.683 297.998L361.654 294.611C365.118 294.023 367.429 290.894 366.804 287.636C366.179 284.377 362.85 282.206 359.388 282.793L343.785 285.439C342.058 285.733 340.282 285.291 338.936 284.232C337.589 283.173 336.811 281.607 336.811 279.957V264.54C336.811 245.272 320.145 229.596 299.659 229.596C279.174 229.596 262.508 245.272 262.508 264.54V279.957C262.508 281.607 261.73 283.173 260.383 284.232C259.037 285.289 257.26 285.732 255.533 285.439L239.929 282.793C236.465 282.206 233.139 284.378 232.515 287.636C231.89 290.894 234.2 294.023 237.664 294.611L257.635 297.998C260.455 298.476 262.507 300.785 262.507 303.48V312.001C262.507 322.477 259.564 332.81 253.995 341.883L246.628 353.885Z" fill="black"/>
<path d="M144.409 173.356H111.842C107.27 173.356 103.55 169.858 103.55 165.557V140.188C103.55 137.111 106.202 134.616 109.474 134.616C112.745 134.616 115.397 137.11 115.397 140.188V162.214H140.856V105.162C140.856 101.271 144.222 98.1053 148.358 98.1053H160.761V74.1579H148.358C144.221 74.1579 140.856 70.9917 140.856 67.1012V59.283C140.856 45.9421 152.394 35.0891 166.577 35.0891H172.19V11.1425H166.578C138.357 11.1425 115.397 32.7379 115.397 59.2837V67.1012C115.397 70.9925 112.031 74.1579 107.895 74.1579H95.4915V98.1038H107.895C112.032 98.1038 115.397 101.27 115.397 105.161V112.132C115.397 115.209 112.745 117.704 109.474 117.704C106.202 117.704 103.55 115.21 103.55 112.132V109.246H91.9368C87.3642 109.246 83.6445 105.748 83.6445 101.447V70.8151C83.6445 66.5141 87.365 63.0154 91.9368 63.0154H103.55V59.2837C103.55 26.5948 131.824 0 166.577 0H175.743C180.316 0 184.035 3.49867 184.035 7.79965V38.4312C184.035 42.7322 180.315 46.2309 175.743 46.2309H166.577C158.925 46.2309 152.701 52.086 152.701 59.2822V63.0147H164.314C168.887 63.0147 172.607 66.5134 172.607 70.8143V101.446C172.607 105.747 168.886 109.246 164.314 109.246H152.701V165.555C152.701 169.858 148.98 173.356 144.409 173.356Z" fill="black"/>
<path d="M318.388 201.574H228.132C209.862 201.574 194.999 187.593 194.999 170.408V85.5148C194.999 68.3302 209.862 54.3489 228.132 54.3489H238.037C241.309 54.3489 243.961 56.8426 243.961 59.9205C243.961 62.9983 241.309 65.4921 238.037 65.4921H228.132C216.394 65.4921 206.845 74.4748 206.845 85.5148V170.408C206.845 181.449 216.394 190.43 228.132 190.43H318.387C330.126 190.43 339.675 181.448 339.675 170.408V85.5148C339.675 74.474 330.126 65.4921 318.387 65.4921H267.932C264.661 65.4921 262.009 62.9983 262.009 59.9205C262.009 56.8426 264.661 54.3489 267.932 54.3489H318.387C336.657 54.3489 351.521 68.3295 351.521 85.5148V170.408C351.522 187.593 336.658 201.574 318.388 201.574Z" fill="black"/>
<path d="M273.26 160.569C254.144 160.569 238.593 145.941 238.593 127.961C238.593 109.981 254.144 95.3533 273.26 95.3533C292.376 95.3533 307.928 109.981 307.928 127.961C307.928 145.941 292.376 160.569 273.26 160.569ZM273.26 106.496C260.677 106.496 250.44 116.126 250.44 127.961C250.44 139.797 260.677 149.425 273.26 149.425C285.843 149.425 296.081 139.797 296.081 127.961C296.081 116.126 285.843 106.496 273.26 106.496Z" fill="black"/>
<path d="M313.913 97.5984C318.536 97.5984 322.285 94.0728 322.285 89.7237C322.285 85.3747 318.536 81.8491 313.913 81.8491C309.289 81.8491 305.541 85.3747 305.541 89.7237C305.541 94.0728 309.289 97.5984 313.913 97.5984Z" fill="black"/>
<path d="M140.358 326.842C106.227 326.842 76.1176 305.553 66.5779 274.886C56.3319 269.852 48.6259 261.35 44.9749 251.111C36.8626 250.345 31.0188 246.831 28.0795 244.631C26.0287 243.096 24.9895 240.719 25.2988 238.272C25.6082 235.827 27.2107 233.747 29.5866 232.707L30.5051 232.305C28.6074 230.163 27.2786 228.069 26.3814 226.378C25.2128 224.176 25.3375 221.613 26.7128 219.52C28.0906 217.425 30.4775 216.173 33.0979 216.173H49.0125C57.0547 203.581 71.448 195.86 87.1882 195.86C108.947 195.86 127.202 210.563 130.991 230.195C143.765 227.744 155.249 221.828 164.45 212.914C167.523 209.939 170.28 206.66 172.645 203.169C174.23 200.83 177.042 199.444 179.994 199.582C182.959 199.709 185.647 201.332 187.009 203.815C190.803 210.732 193.371 218.152 194.641 225.871C195.141 228.911 192.926 231.758 189.694 232.229C186.461 232.696 183.434 230.616 182.934 227.576C182.168 222.924 180.847 218.402 178.99 214.072C177.119 216.385 175.098 218.594 172.948 220.677C160.814 232.432 144.621 240.019 127.351 242.04C125.513 242.254 123.642 241.737 122.219 240.616C120.792 239.492 119.917 237.844 119.819 236.094C118.9 219.783 104.566 207.004 87.1874 207.004C74.9806 207.004 63.8769 213.333 58.2075 223.519C56.9063 225.861 54.3577 227.317 51.5589 227.317H41.8289C42.3292 227.732 42.8697 228.139 43.4528 228.529C45.3923 229.827 46.4631 232.019 46.2453 234.251C46.0307 236.445 44.5985 238.388 42.4965 239.349C44.1953 239.819 46.1246 240.1 48.2629 240.118H48.2953C51.7025 240.118 54.6788 242.302 55.5373 245.438C57.9495 254.257 64.3614 261.572 73.1271 265.51C75.3238 266.494 76.9485 268.325 77.5813 270.532C85.2187 297.126 111.033 315.7 140.358 315.7C161.732 315.7 181.406 305.949 193.5 289.799C185.757 291.304 177.758 291.696 169.652 290.874C166.93 290.596 164.665 288.922 163.738 286.502C162.814 284.09 163.416 281.449 165.308 279.603C165.314 279.596 165.32 279.59 165.325 279.586C172.798 272.345 178.282 263.448 181.201 253.838C182.099 250.879 185.378 249.168 188.524 250.01C191.669 250.856 193.491 253.939 192.592 256.898C190.058 265.241 185.893 273.129 180.374 280.11C186.565 279.89 192.651 278.851 198.499 277.013C201.737 275.994 205.26 276.914 207.471 279.355C209.673 281.786 210.077 285.188 208.501 288.02C195.178 311.965 169.067 326.842 140.358 326.842Z" fill="black"/>
</g>
<defs>
<clipPath id="clip0">
<rect width="404" height="380" fill="white"/>
</clipPath>
</defs>
</svg>
