<svg width="245" height="220" viewBox="0 0 245 220" fill="none" xmlns="http://www.w3.org/2000/svg">
<path d="M88.619 151.235C86.5329 151.235 84.8413 149.716 84.8413 147.842V124.485C84.8413 122.612 86.5329 121.093 88.619 121.093C90.705 121.093 92.3966 122.612 92.3966 124.485V147.842C92.3966 149.716 90.705 151.235 88.619 151.235Z" fill="#F4AF9D"/>
<path d="M234.813 195.088V220H106.223L113.175 195.088C113.175 184.384 122.837 175.708 134.753 175.708H213.231C225.151 175.708 234.813 184.384 234.813 195.088Z" fill="#3B485B"/>
<path d="M234.813 195.088V220H120.569V195.088C120.569 184.384 130.231 175.708 142.151 175.708H213.231C225.151 175.708 234.813 184.384 234.813 195.088Z" fill="#217BCE"/>
<path d="M135.362 175.71L134.052 205.513L148.003 208.645L135.478 219.893H212.51L199.984 208.645L213.936 205.513L212.626 175.71" fill="#3B485B"/>
<path d="M200.589 175.71L186.539 219.998H161.452L147.399 175.71" fill="#F2F2F2"/>
<path d="M156.806 186.583L173.995 205.904L191.014 186.655L173.995 183.8L156.806 186.583Z" fill="#F74866"/>
<path d="M155.295 200.592L173.994 183.801L192.694 200.592L200.589 175.71H147.399L155.295 200.592Z" fill="#E6E6E6"/>
<path d="M189.982 150.829V175.712L173.995 183.801L169.056 181.303L158.007 175.712V150.812L169.056 150.817L189.982 150.829Z" fill="#F9C2AF"/>
<path d="M161.538 219.998L173.994 205.904L186.539 219.998" fill="#F74866"/>
<path d="M169.056 150.817L158.007 150.812V175.712L169.056 181.303V169.789C170.688 169.933 172.342 170.015 174.017 170.015C179.598 170.015 184.969 169.198 189.984 167.687V150.829L169.056 150.817Z" fill="#EA9E8F"/>
<path d="M123.831 124.63C115.507 124.63 108.758 119.205 108.758 112.513C108.758 105.821 115.507 100.396 123.831 100.396H224.205C232.529 100.396 239.279 105.821 239.279 112.513C239.279 119.205 232.529 124.63 224.205 124.63" fill="#EA9E8F"/>
<path d="M224.207 73.8794V118.948C224.207 143.835 201.736 164.011 174.017 164.011C160.161 164.011 147.609 158.968 138.53 150.814C129.45 142.66 123.831 131.389 123.831 118.948V73.8794H224.207Z" fill="#F9C2AF"/>
<path d="M173.662 164.01C159.942 163.927 147.538 158.9 138.53 150.814C129.448 142.656 123.831 131.392 123.831 118.946V73.8794H146.426V118.946C146.426 131.392 149.512 142.656 154.507 150.814C159.423 158.843 166.183 163.854 173.662 164.01Z" fill="#EA9E8F"/>
<path d="M191.872 118.456C190.032 118.456 188.542 117.116 188.542 115.467V109.204C188.542 107.553 190.032 106.215 191.872 106.215C193.709 106.215 195.199 107.553 195.199 109.204V115.467C195.199 117.116 193.709 118.456 191.872 118.456Z" fill="#293544"/>
<path d="M156.164 118.456C154.327 118.456 152.835 117.116 152.835 115.467V109.204C152.835 107.553 154.327 106.215 156.164 106.215C158.004 106.215 159.494 107.553 159.494 109.204V115.467C159.494 117.116 158.004 118.456 156.164 118.456Z" fill="#293544"/>
<path d="M224.207 73.8794V85.1721C220.766 87.3843 216.652 89.3246 211.766 90.9074C193.58 96.7905 175.974 94.8099 163.525 91.693C163.525 91.693 163.52 91.693 163.52 91.6896C152.673 88.9789 145.742 85.4004 145.742 85.4004C145.742 85.4004 141.166 105.179 123.831 105.179V73.8794H224.207Z" fill="#EA9E8F"/>
<path d="M211.766 86.1253C193.58 92.01 175.974 90.0277 163.524 86.9125C163.524 86.9125 163.518 86.9125 163.518 86.9075C152.677 84.1951 145.744 80.6166 145.744 80.6166C145.744 80.6166 141.166 100.396 123.831 100.396C123.831 100.396 112.298 82.0768 112.661 65.1294C112.848 56.3392 120.919 49.7664 130.091 49.7664C131.805 49.7664 133.558 49.993 135.302 50.4831C140.215 38.6364 153.194 31.1387 167.247 31.9075C169.436 32.0283 171.638 32.1844 173.847 32.364C174.27 32.3959 174.698 32.4312 175.12 32.4664C175.165 32.4714 175.208 32.4748 175.251 32.4781C198.188 34.4117 221.422 38.1782 235.073 24.6162C235.073 24.6162 257.636 71.2877 211.766 86.1253Z" fill="#515F75"/>
<path d="M167.247 31.9075C169.436 32.0284 171.638 32.1845 173.847 32.3641C153.609 31.597 137.529 71.6201 163.518 86.9092C152.677 84.1951 145.744 80.6166 145.744 80.6166C145.744 80.6166 141.166 100.396 123.831 100.396C123.831 100.396 112.298 82.0786 112.661 65.1294C112.848 56.341 120.919 49.7664 130.091 49.7664C131.805 49.7664 133.558 49.9947 135.302 50.4831C140.215 38.6365 153.194 31.1388 167.247 31.9075Z" fill="#3B485B"/>
<path d="M175.26 32.4825C175.212 32.4755 175.169 32.4703 175.12 32.4668C175.165 32.4703 175.208 32.4738 175.251 32.479L175.26 32.4825Z" fill="#F4AF9D"/>
<path d="M174.017 142.403C168.707 142.403 163.394 140.588 159.351 136.956C158.052 135.79 158.052 133.898 159.351 132.73C160.652 131.563 162.759 131.563 164.06 132.73C169.55 137.661 178.486 137.661 183.976 132.73C185.277 131.563 187.384 131.563 188.685 132.73C189.984 133.898 189.984 135.79 188.685 136.956C184.64 140.588 179.329 142.403 174.017 142.403Z" fill="#E06E86"/>
<path d="M113.173 147.845V169.047H84.8413V147.845C84.8413 145.501 86.9572 143.606 89.561 143.606H108.453C111.057 143.606 113.173 145.501 113.173 147.845Z" fill="#F4AF9D"/>
<path d="M113.173 147.845V169.047H96.2603V147.845C96.2603 145.501 98.3706 143.606 100.98 143.606H108.453C111.057 143.606 113.173 145.501 113.173 147.845Z" fill="#F9C2AF"/>
<path d="M84.8413 169.045H113.173V219.878H84.8413V169.045Z" fill="#217BCE"/>
<path d="M84.8413 169.045H96.1743V219.878H84.8413V169.045Z" fill="#0071BC"/>
<path d="M85.0896 72.0229V92.7957C85.0896 99.0144 79.8577 104.134 73.123 104.798C72.6351 104.849 72.1361 104.876 71.6314 104.876H61.8499C54.416 104.876 48.3916 99.4659 48.3916 92.7957V72.0229H85.0896Z" fill="#3B485B"/>
<path d="M85.0897 72.0229V92.7957C85.0897 99.0144 79.8579 104.134 73.1231 104.798C66.3884 104.139 61.1509 99.0144 61.1509 92.7957V72.0229H85.0897Z" fill="#515F75"/>
<path d="M101.89 56.0608C101.89 67.4542 95.1667 77.4411 85.088 82.9901H48.39C38.3075 77.4411 31.584 67.4542 31.584 56.0608C31.584 38.6266 47.3227 24.4922 66.7399 24.4922C69.9587 24.4922 73.0709 24.8816 76.0317 25.61C90.9367 29.2641 101.89 41.5152 101.89 56.0608Z" fill="#EAAD18"/>
<path d="M101.892 56.0606C101.892 67.454 95.1684 77.4409 85.0897 82.9899H66.9734C56.889 77.4409 50.1655 67.454 50.1655 56.0606C50.1655 41.5117 61.1247 29.2639 76.0334 25.6099C90.9384 29.2639 101.892 41.5167 101.892 56.0606Z" fill="#FFC627"/>
<path d="M18.6191 59.4531H8.0843C5.99827 59.4531 4.30664 57.9358 4.30664 56.0609C4.30664 54.1877 5.99827 52.6704 8.0843 52.6704H18.6191C20.707 52.6704 22.3968 54.1877 22.3968 56.0609C22.3968 57.9358 20.707 59.4531 18.6191 59.4531Z" fill="#FFC627"/>
<path d="M108.415 37.8493C107.109 37.8493 105.84 37.2417 105.141 36.1524C104.098 34.531 104.716 32.4564 106.522 31.5198L115.645 26.7899C117.453 25.8533 119.763 26.4072 120.806 28.0303C121.849 29.6534 121.231 31.7279 119.423 32.6645L110.3 37.3944C109.705 37.7033 109.055 37.8493 108.415 37.8493Z" fill="#FFC627"/>
<path d="M15.9461 85.7883C14.6395 85.7883 13.3703 85.1807 12.6712 84.0931C11.6282 82.47 12.2469 80.3954 14.0545 79.4588L23.178 74.7289C24.9837 73.7923 27.294 74.3479 28.337 75.971C29.38 77.5924 28.7613 79.667 26.9557 80.6035L17.8321 85.3335C17.2358 85.6423 16.5872 85.7883 15.9461 85.7883Z" fill="#FFC627"/>
<path d="M90.7946 22.0332C90.1534 22.0332 89.5048 21.8872 88.9104 21.5784C87.1029 20.6418 86.4842 18.5672 87.5272 16.9458L92.7946 8.75321C93.8376 7.13013 96.148 6.57456 97.9555 7.51115C99.7611 8.44773 100.38 10.5223 99.3368 12.1454L94.0694 20.338C93.3703 21.4256 92.1011 22.0332 90.7946 22.0332Z" fill="#FFC627"/>
<path d="M66.7377 16.2442C64.6517 16.2442 62.9619 14.7252 62.9619 12.852V3.39218C62.9619 1.51901 64.6517 0 66.7377 0C68.8256 0 70.5154 1.51901 70.5154 3.39218V12.852C70.5154 14.7269 68.8256 16.2442 66.7377 16.2442Z" fill="#FFC627"/>
<path d="M42.6833 22.0332C41.3767 22.0332 40.1075 21.4256 39.4085 20.338L34.141 12.1454C33.098 10.5223 33.7167 8.44773 35.5224 7.51115C37.3299 6.57456 39.6402 7.13013 40.6833 8.75321L45.9507 16.9458C46.9937 18.5672 46.375 20.6418 44.5675 21.5784C43.973 21.8872 43.3244 22.0332 42.6833 22.0332Z" fill="#FFC627"/>
<path d="M25.0622 37.8492C24.4229 37.8492 23.7724 37.7032 23.178 37.3943L14.0545 32.6644C12.2469 31.7278 11.6282 29.6532 12.6712 28.0302C13.7143 26.4088 16.0246 25.8515 17.8321 26.7898L26.9557 31.5197C28.7613 32.4563 29.38 34.5309 28.337 36.1523C27.6379 37.2416 26.3688 37.8492 25.0622 37.8492Z" fill="#FFC627"/>
<path d="M125.394 59.4531H114.859C112.773 59.4531 111.081 57.9358 111.081 56.0609C111.081 54.1877 112.773 52.6704 114.859 52.6704H125.394C127.48 52.6704 129.171 54.1877 129.171 56.0609C129.171 57.9358 127.48 59.4531 125.394 59.4531Z" fill="#FFC627"/>
<path d="M117.531 85.7883C116.89 85.7883 116.242 85.6423 115.645 85.3335L106.522 80.6035C104.716 79.667 104.098 77.5924 105.141 75.971C106.184 74.3479 108.494 73.7923 110.3 74.7289L119.423 79.4588C121.231 80.3954 121.849 82.47 120.806 84.0931C120.107 85.1807 118.836 85.7883 117.531 85.7883Z" fill="#FFC627"/>
<path d="M78.5455 59.8927V82.9901H70.9902V59.8927C70.9902 58.0195 72.6819 56.5005 74.7679 56.5005C76.8577 56.5005 78.5455 58.0195 78.5455 59.8927Z" fill="white"/>
<path d="M62.4835 59.8927V82.9901H54.9282V59.8927C54.9282 58.0195 56.6199 56.5005 58.7059 56.5005C60.7956 56.5005 62.4835 58.0195 62.4835 59.8927Z" fill="white"/>
</svg>
