<svg width="203" height="203" viewBox="0 0 203 203" fill="none" xmlns="http://www.w3.org/2000/svg">
<path d="M19.0312 104.672H107.844V174.453H19.0312V104.672Z" fill="#AAE1F9"/>
<path d="M9.51562 174.453H117.359V180.797C117.359 184.162 116.023 187.389 113.643 189.768C111.264 192.148 108.037 193.484 104.672 193.484H22.2031C18.8382 193.484 15.6111 192.148 13.2317 189.768C10.8523 187.389 9.51563 184.162 9.51562 180.797V174.453Z" fill="#F9E109"/>
<path d="M31.7188 130.047V104.672H19.0312V174.453H107.844V161.766H63.4375C55.0252 161.766 46.9574 158.424 41.009 152.475C35.0605 146.527 31.7188 138.459 31.7188 130.047Z" fill="#57B7EB"/>
<path d="M28.5469 183.969C26.0232 183.969 23.6028 182.966 21.8183 181.182C20.0338 179.397 19.0312 176.977 19.0312 174.453H9.51562V180.797C9.51563 184.162 10.8523 187.389 13.2317 189.768C15.6111 192.148 18.8382 193.484 22.2031 193.484H104.672C107.478 193.475 110.201 192.536 112.416 190.815C114.632 189.093 116.214 186.685 116.915 183.969H28.5469Z" fill="#FCBC04"/>
<path d="M187.141 107.844H149.078C145.575 107.844 142.734 110.684 142.734 114.188V152.25C142.734 155.754 145.575 158.594 149.078 158.594H187.141C190.644 158.594 193.484 155.754 193.484 152.25V114.188C193.484 110.684 190.644 107.844 187.141 107.844Z" fill="#E7EAEE"/>
<path d="M168.109 142.734C173.365 142.734 177.625 138.474 177.625 133.219C177.625 127.963 173.365 123.703 168.109 123.703C162.854 123.703 158.594 127.963 158.594 133.219C158.594 138.474 162.854 142.734 168.109 142.734Z" fill="#57B7EB"/>
<path d="M152.25 123.703V107.844H149.078C147.396 107.844 145.782 108.512 144.592 109.702C143.403 110.891 142.734 112.505 142.734 114.188V152.25C142.734 153.932 143.403 155.546 144.592 156.736C145.782 157.925 147.396 158.594 149.078 158.594H187.141C188.823 158.594 190.437 157.925 191.626 156.736C192.816 155.546 193.484 153.932 193.484 152.25V149.078H177.625C170.895 149.078 164.441 146.405 159.682 141.646C154.923 136.887 152.25 130.433 152.25 123.703Z" fill="#00B0FF"/>
<path d="M171.281 133.219C173.033 133.219 174.453 131.799 174.453 130.047C174.453 128.295 173.033 126.875 171.281 126.875C169.529 126.875 168.109 128.295 168.109 130.047C168.109 131.799 169.529 133.219 171.281 133.219Z" fill="#AAE1F9"/>
<path d="M9.51562 38.0625H47.5781V88.8125H9.51562V38.0625Z" fill="#C4F236"/>
<path d="M85.6406 57.0938C99.6549 57.0938 111.016 45.733 111.016 31.7188C111.016 17.7045 99.6549 6.34375 85.6406 6.34375C71.6264 6.34375 60.2656 17.7045 60.2656 31.7188C60.2656 45.733 71.6264 57.0938 85.6406 57.0938Z" fill="#F89C8D"/>
<path d="M79.2969 41.2344V22.2031L98.3281 31.7188L79.2969 41.2344Z" fill="#AAE1F9"/>
<path d="M95.1561 47.5782C88.4262 47.5782 81.972 44.9048 77.2133 40.1461C72.4545 35.3873 69.7811 28.9331 69.7811 22.2032C69.773 17.8071 70.9216 13.4862 73.1116 9.67432C69.7695 11.6376 66.9217 14.3404 64.7866 17.5754C62.6514 20.8103 61.2858 24.4914 60.7944 28.3362C60.303 32.1809 60.6989 36.0872 61.9517 39.7552C63.2045 43.4231 65.281 46.7554 68.0218 49.4961C70.7626 52.2369 74.0948 54.3134 77.7627 55.5662C81.4307 56.819 85.337 57.215 89.1817 56.7235C93.0265 56.2321 96.7076 54.8665 99.9425 52.7313C103.177 50.5962 105.88 47.7484 107.844 44.4064C103.97 46.5681 99.5915 47.6627 95.1561 47.5782Z" fill="#F8664F"/>
<path d="M187.141 9.51562H149.078C145.575 9.51562 142.734 12.3558 142.734 15.8594V53.9219C142.734 57.4254 145.575 60.2656 149.078 60.2656H187.141C190.644 60.2656 193.484 57.4254 193.484 53.9219V15.8594C193.484 12.3558 190.644 9.51562 187.141 9.51562Z" fill="#AAE1F9"/>
<path d="M152.25 25.375V9.51562H149.078C147.396 9.51563 145.782 10.184 144.592 11.3737C143.403 12.5633 142.734 14.1769 142.734 15.8594V53.9219C142.734 55.6043 143.403 57.2179 144.592 58.4076C145.782 59.5973 147.396 60.2656 149.078 60.2656H187.141C188.823 60.2656 190.437 59.5973 191.626 58.4076C192.816 57.2179 193.484 55.6043 193.484 53.9219V50.75H177.625C170.895 50.75 164.441 48.0766 159.682 43.3178C154.923 38.5591 152.25 32.1049 152.25 25.375Z" fill="#57B7EB"/>
<path d="M19.0312 60.2656V38.0625H9.51562V88.8125H47.5781V79.2969H38.0625C33.0151 79.2969 28.1744 77.2918 24.6054 73.7228C21.0363 70.1537 19.0312 65.313 19.0312 60.2656Z" fill="#A1D51C"/>
<path d="M60.4629 136.915L71.4503 130.571L84.1378 152.546C84.979 154.003 85.207 155.735 84.7716 157.36C84.3361 158.985 83.273 160.37 81.816 161.212C80.3589 162.053 78.6274 162.281 77.0023 161.845C75.3772 161.41 73.9916 160.347 73.1504 158.89L60.4629 136.915Z" fill="#F8664F"/>
<path d="M79.4873 144.479L71.4625 130.554L60.4561 136.898L67.9734 149.903L73.4607 146.731L79.4873 144.479Z" fill="#CC5144"/>
<path d="M127.668 120.087L73.4604 140.387L57.6011 112.919L102.293 76.125L127.668 120.087Z" fill="#FFB8B8"/>
<path d="M43.8802 120.853L57.6144 112.923L73.4738 140.392L59.7396 148.321C57.554 149.583 54.9568 149.925 52.5191 149.272C50.0814 148.619 48.0031 147.024 46.7412 144.838L40.3975 133.851C39.1356 131.666 38.7936 129.068 39.4468 126.631C40.0999 124.193 41.6947 122.115 43.8802 120.853Z" fill="#F89C8D"/>
<path d="M34.8809 137.017L40.3746 133.845L46.7183 144.832L41.2246 148.004C39.7676 148.845 38.0361 149.073 36.411 148.638C34.7859 148.202 33.4003 147.139 32.5591 145.682C31.7178 144.225 31.4899 142.494 31.9253 140.869C32.3607 139.243 33.4239 137.858 34.8809 137.017Z" fill="#CC5144"/>
<path d="M77.1402 130.681C76.8118 130.804 76.4936 130.952 76.1887 131.125L70.1304 134.614L73.4608 140.387L127.668 120.087L123.703 113.236L77.1402 130.681Z" fill="#FFCCD9"/>
<path d="M68.3857 135.629C65.8616 137.074 62.989 137.796 60.0819 137.718C57.1749 137.639 54.3454 136.763 51.9028 135.185C49.4602 133.607 47.4986 131.387 46.2324 128.769C44.9662 126.151 44.4442 123.236 44.7235 120.341L43.8671 120.849C42.7836 121.473 41.8337 122.305 41.0719 123.296C40.31 124.288 39.7511 125.42 39.4271 126.628C39.103 127.836 39.0202 129.095 39.1834 130.335C39.3466 131.575 39.7525 132.77 40.378 133.853L46.7218 144.828C47.3461 145.911 48.1778 146.861 49.1695 147.623C50.1611 148.385 51.2932 148.944 52.5009 149.268C53.7087 149.592 54.9685 149.675 56.2083 149.512C57.4482 149.348 58.6436 148.942 59.7265 148.317L73.4607 140.387L70.1302 134.614L68.3857 135.629Z" fill="#F8664F"/>
<path d="M117.359 171.281H111.016V140.197C111.016 139.356 110.681 138.549 110.087 137.954C109.492 137.359 108.685 137.025 107.844 137.025C107.003 137.025 106.196 137.359 105.601 137.954C105.006 138.549 104.672 139.356 104.672 140.197V171.281H22.2031V107.844H48.5931C49.4344 107.844 50.2411 107.51 50.836 106.915C51.4308 106.32 51.765 105.513 51.765 104.672C51.765 103.831 51.4308 103.024 50.836 102.429C50.2411 101.834 49.4344 101.5 48.5931 101.5H19.0312C18.19 101.5 17.3832 101.834 16.7884 102.429C16.1936 103.024 15.8594 103.831 15.8594 104.672V171.281H9.51562C8.67439 171.281 7.86761 171.615 7.27277 172.21C6.67793 172.805 6.34375 173.612 6.34375 174.453V180.797C6.34375 185.003 8.01464 189.037 10.9889 192.011C13.9631 194.985 17.997 196.656 22.2031 196.656H104.672C108.878 196.656 112.912 194.985 115.886 192.011C118.86 189.037 120.531 185.003 120.531 180.797V174.453C120.531 173.612 120.197 172.805 119.602 172.21C119.007 171.615 118.201 171.281 117.359 171.281ZM114.188 180.797C114.188 183.321 113.185 185.741 111.4 187.525C109.616 189.31 107.196 190.312 104.672 190.312H98.3281V187.141C98.3281 186.299 97.9939 185.493 97.3991 184.898C96.8043 184.303 95.9975 183.969 95.1562 183.969C94.315 183.969 93.5082 184.303 92.9134 184.898C92.3186 185.493 91.9844 186.299 91.9844 187.141V190.312H34.8906V187.141C34.8906 186.299 34.5564 185.493 33.9616 184.898C33.3668 184.303 32.56 183.969 31.7188 183.969C30.8775 183.969 30.0707 184.303 29.4759 184.898C28.8811 185.493 28.5469 186.299 28.5469 187.141V190.312H22.2031C19.6794 190.312 17.2591 189.31 15.4746 187.525C13.69 185.741 12.6875 183.321 12.6875 180.797V177.625H114.188V180.797Z" fill="#39519D"/>
<path d="M171.281 25.375H177.625C178.466 25.375 179.273 25.0408 179.868 24.446C180.463 23.8511 180.797 23.0444 180.797 22.2031C180.797 21.3619 180.463 20.5551 179.868 19.9603C179.273 19.3654 178.466 19.0312 177.625 19.0312H171.281C168.758 19.0312 166.337 20.0338 164.553 21.8183C162.768 23.6028 161.766 26.0232 161.766 28.5469V31.7188H158.594C157.753 31.7188 156.946 32.0529 156.351 32.6478C155.756 33.2426 155.422 34.0494 155.422 34.8906C155.422 35.7319 155.756 36.5386 156.351 37.1335C156.946 37.7283 157.753 38.0625 158.594 38.0625H161.766V47.5781C161.766 48.4194 162.1 49.2261 162.695 49.821C163.289 50.4158 164.096 50.75 164.938 50.75C165.779 50.75 166.586 50.4158 167.18 49.821C167.775 49.2261 168.109 48.4194 168.109 47.5781V38.0625H171.281C172.122 38.0625 172.929 37.7283 173.524 37.1335C174.119 36.5386 174.453 35.7319 174.453 34.8906C174.453 34.0494 174.119 33.2426 173.524 32.6478C172.929 32.0529 172.122 31.7188 171.281 31.7188H168.109V28.5469C168.109 27.7056 168.444 26.8989 169.038 26.304C169.633 25.7092 170.44 25.375 171.281 25.375Z" fill="#39519D"/>
<path d="M187.141 6.34375H149.078C146.554 6.34375 144.134 7.34629 142.35 9.13081C140.565 10.9153 139.562 13.3357 139.562 15.8594V22.2031C139.562 23.0444 139.897 23.8511 140.492 24.446C141.086 25.0408 141.893 25.375 142.734 25.375C143.576 25.375 144.382 25.0408 144.977 24.446C145.572 23.8511 145.906 23.0444 145.906 22.2031V15.8594C145.906 15.0181 146.24 14.2114 146.835 13.6165C147.43 13.0217 148.237 12.6875 149.078 12.6875H187.141C187.982 12.6875 188.789 13.0217 189.383 13.6165C189.978 14.2114 190.312 15.0181 190.312 15.8594V53.9219C190.312 54.7631 189.978 55.5699 189.383 56.1647C188.789 56.7596 187.982 57.0938 187.141 57.0938H149.078C148.237 57.0938 147.43 56.7596 146.835 56.1647C146.24 55.5699 145.906 54.7631 145.906 53.9219V34.8906C145.906 34.0494 145.572 33.2426 144.977 32.6478C144.382 32.0529 143.576 31.7188 142.734 31.7188C141.893 31.7188 141.086 32.0529 140.492 32.6478C139.897 33.2426 139.562 34.0494 139.562 34.8906V53.9219C139.562 56.4456 140.565 58.8659 142.35 60.6504C144.134 62.435 146.554 63.4375 149.078 63.4375H187.141C189.664 63.4375 192.085 62.435 193.869 60.6504C195.654 58.8659 196.656 56.4456 196.656 53.9219V15.8594C196.656 13.3357 195.654 10.9153 193.869 9.13081C192.085 7.34629 189.664 6.34375 187.141 6.34375Z" fill="#39519D"/>
<path d="M155.422 133.219C155.422 135.728 156.166 138.181 157.56 140.268C158.954 142.354 160.936 143.98 163.254 144.94C165.572 145.901 168.123 146.152 170.585 145.662C173.046 145.173 175.306 143.965 177.081 142.19C178.855 140.416 180.064 138.155 180.553 135.694C181.043 133.233 180.791 130.682 179.831 128.363C178.871 126.045 177.245 124.064 175.158 122.669C173.072 121.275 170.619 120.531 168.109 120.531C164.744 120.531 161.517 121.868 159.138 124.247C156.759 126.627 155.422 129.854 155.422 133.219ZM174.453 133.219C174.453 134.473 174.081 135.7 173.384 136.743C172.687 137.786 171.696 138.599 170.537 139.08C169.378 139.56 168.102 139.685 166.872 139.441C165.641 139.196 164.511 138.592 163.624 137.704C162.736 136.817 162.132 135.687 161.888 134.456C161.643 133.226 161.768 131.95 162.249 130.791C162.729 129.632 163.542 128.641 164.585 127.944C165.628 127.247 166.855 126.875 168.109 126.875C169.792 126.875 171.405 127.543 172.595 128.733C173.785 129.923 174.453 131.536 174.453 133.219Z" fill="#39519D"/>
<path d="M187.141 104.672H149.078C146.554 104.672 144.134 105.674 142.35 107.459C140.565 109.243 139.562 111.664 139.562 114.188V152.25C139.562 154.774 140.565 157.194 142.35 158.979C144.134 160.763 146.554 161.766 149.078 161.766H187.141C189.664 161.766 192.085 160.763 193.869 158.979C195.654 157.194 196.656 154.774 196.656 152.25V145.906C196.656 145.065 196.322 144.258 195.727 143.663C195.132 143.069 194.326 142.734 193.484 142.734C192.643 142.734 191.836 143.069 191.242 143.663C190.647 144.258 190.312 145.065 190.312 145.906V152.25C190.312 153.091 189.978 153.898 189.383 154.493C188.789 155.088 187.982 155.422 187.141 155.422H149.078C148.237 155.422 147.43 155.088 146.835 154.493C146.24 153.898 145.906 153.091 145.906 152.25V114.188C145.906 113.346 146.24 112.539 146.835 111.945C147.43 111.35 148.237 111.016 149.078 111.016H187.141C187.982 111.016 188.789 111.35 189.383 111.945C189.978 112.539 190.312 113.346 190.312 114.188V133.219C190.312 134.06 190.647 134.867 191.242 135.462C191.836 136.056 192.643 136.391 193.484 136.391C194.326 136.391 195.132 136.056 195.727 135.462C196.322 134.867 196.656 134.06 196.656 133.219V114.188C196.656 111.664 195.654 109.243 193.869 107.459C192.085 105.674 189.664 104.672 187.141 104.672Z" fill="#39519D"/>
<path d="M77.6158 43.9304C78.1206 44.2432 78.703 44.4081 79.2969 44.4062C79.7934 44.4032 80.2823 44.2837 80.7242 44.0573L99.7555 34.5416C100.275 34.2755 100.711 33.8711 101.016 33.373C101.32 32.8749 101.481 32.3024 101.481 31.7187C101.481 31.1349 101.32 30.5624 101.016 30.0644C100.711 29.5663 100.275 29.1619 99.7555 28.8957L80.7242 19.3801C80.2414 19.1368 79.7043 19.0209 79.1641 19.0436C78.6239 19.0662 78.0984 19.2265 77.6376 19.5094C77.1768 19.7922 76.7959 20.1882 76.5312 20.6596C76.2665 21.1311 76.1266 21.6624 76.125 22.203V41.2343C76.1239 41.7733 76.2602 42.3038 76.5211 42.7755C76.7819 43.2472 77.1587 43.6447 77.6158 43.9304ZM82.4688 27.3415L91.2231 31.7187L82.4688 36.0959V27.3415Z" fill="#39519D"/>
<path d="M85.6406 60.2656C91.2867 60.2656 96.8059 58.5914 101.5 55.4546C106.195 52.3179 109.854 47.8594 112.014 42.6432C114.175 37.4269 114.74 31.6871 113.639 26.1495C112.537 20.612 109.819 15.5254 105.826 11.5331C101.834 7.54072 96.7474 4.8219 91.2099 3.72041C85.6723 2.61892 79.9325 3.18424 74.7162 5.34489C69.5 7.50553 65.0415 11.1645 61.9048 15.859C58.768 20.5535 57.0938 26.0727 57.0938 31.7188C57.0938 39.2899 60.1014 46.5509 65.4549 51.9044C70.8085 57.258 78.0695 60.2656 85.6406 60.2656ZM85.6406 9.51564C90.032 9.51564 94.3247 10.8178 97.976 13.2575C101.627 15.6973 104.473 19.1649 106.154 23.222C107.834 27.2791 108.274 31.7434 107.417 36.0504C106.56 40.3574 104.446 44.3136 101.341 47.4187C98.2354 50.5239 94.2792 52.6385 89.9722 53.4953C85.6653 54.352 81.201 53.9123 77.1439 52.2318C73.0868 50.5513 69.6191 47.7054 67.1794 44.0542C64.7397 40.4029 63.4375 36.1101 63.4375 31.7188C63.4375 25.8301 65.7768 20.1827 69.9406 16.0188C74.1045 11.8549 79.752 9.51564 85.6406 9.51564Z" fill="#39519D"/>
<path d="M117.359 72.9531C117.852 72.9531 118.337 72.8385 118.778 72.6183C119.218 72.3981 119.601 72.0783 119.897 71.6844L129.412 58.9969C129.917 58.3239 130.134 57.478 130.015 56.6452C129.896 55.8124 129.451 55.061 128.778 54.5563C128.105 54.0515 127.259 53.8348 126.426 53.9538C125.594 54.0727 124.842 54.5177 124.337 55.1906L114.822 67.8781C114.317 68.5511 114.1 69.3971 114.219 70.2298C114.338 71.0626 114.783 71.814 115.456 72.3188C116.005 72.7305 116.673 72.9531 117.359 72.9531Z" fill="#39519D"/>
<path d="M124.338 84.3719C124.633 84.7658 125.016 85.0856 125.457 85.3058C125.897 85.526 126.383 85.6406 126.875 85.6406C127.561 85.6406 128.229 85.418 128.778 85.0063L141.466 75.4906C142.139 74.9859 142.583 74.2345 142.702 73.4017C142.821 72.5689 142.605 71.723 142.1 71.05C141.595 70.377 140.844 69.9321 140.011 69.8131C139.178 69.6942 138.332 69.9109 137.659 70.4156L124.972 79.9313C124.299 80.436 123.854 81.1874 123.735 82.0202C123.616 82.853 123.833 83.6989 124.338 84.3719Z" fill="#39519D"/>
<path d="M155.422 91.35C155.346 90.9294 155.187 90.5285 154.953 90.1712C154.719 89.8138 154.415 89.5075 154.059 89.2705C153.704 89.0335 153.304 88.8708 152.884 88.7921C152.464 88.7134 152.033 88.7203 151.616 88.8125L135.756 91.9843C135.34 92.026 134.935 92.1493 134.567 92.3472C134.198 92.545 133.871 92.8136 133.606 93.1376C133.071 93.792 132.817 94.6322 132.902 95.4734C132.986 96.3146 133.401 97.088 134.055 97.6233C134.709 98.1587 135.549 98.4122 136.391 98.3281H137.025L152.884 95.1562C153.305 95.0808 153.706 94.9213 154.063 94.6871C154.42 94.4529 154.727 94.149 154.964 93.7935C155.201 93.4381 155.364 93.0384 155.442 92.6185C155.521 92.1986 155.514 91.7671 155.422 91.35Z" fill="#39519D"/>
<path d="M9.51562 91.9844H47.5781C48.4194 91.9844 49.2261 91.6502 49.821 91.0554C50.4158 90.4605 50.75 89.6537 50.75 88.8125V38.0625C50.75 37.2213 50.4158 36.4145 49.821 35.8196C49.2261 35.2248 48.4194 34.8906 47.5781 34.8906H9.51562C8.67439 34.8906 7.86761 35.2248 7.27277 35.8196C6.67793 36.4145 6.34375 37.2213 6.34375 38.0625V88.8125C6.34375 89.6537 6.67793 90.4605 7.27277 91.0554C7.86761 91.6502 8.67439 91.9844 9.51562 91.9844ZM12.6875 41.2344H44.4062V85.6406H12.6875V41.2344Z" fill="#39519D"/>
<path d="M34.8906 47.5781H28.5469C27.7056 47.5781 26.8989 47.9123 26.304 48.5071C25.7092 49.102 25.375 49.9088 25.375 50.75C25.375 51.5912 25.7092 52.398 26.304 52.9929C26.8989 53.5877 27.7056 53.9219 28.5469 53.9219H34.8906C35.7319 53.9219 36.5386 53.5877 37.1335 52.9929C37.7283 52.398 38.0625 51.5912 38.0625 50.75C38.0625 49.9088 37.7283 49.102 37.1335 48.5071C36.5386 47.9123 35.7319 47.5781 34.8906 47.5781Z" fill="#39519D"/>
<path d="M34.8906 60.2656H22.2031C21.3619 60.2656 20.5551 60.5998 19.9603 61.1946C19.3654 61.7895 19.0312 62.5963 19.0312 63.4375C19.0312 64.2787 19.3654 65.0855 19.9603 65.6804C20.5551 66.2752 21.3619 66.6094 22.2031 66.6094H34.8906C35.7319 66.6094 36.5386 66.2752 37.1335 65.6804C37.7283 65.0855 38.0625 64.2787 38.0625 63.4375C38.0625 62.5963 37.7283 61.7895 37.1335 61.1946C36.5386 60.5998 35.7319 60.2656 34.8906 60.2656Z" fill="#39519D"/>
<path d="M34.8906 72.9531H22.2031C21.3619 72.9531 20.5551 73.2873 19.9603 73.8821C19.3654 74.477 19.0312 75.2838 19.0312 76.125C19.0312 76.9662 19.3654 77.773 19.9603 78.3679C20.5551 78.9627 21.3619 79.2969 22.2031 79.2969H34.8906C35.7319 79.2969 36.5386 78.9627 37.1335 78.3679C37.7283 77.773 38.0625 76.9662 38.0625 76.125C38.0625 75.2838 37.7283 74.477 37.1335 73.8821C36.5386 73.2873 35.7319 72.9531 34.8906 72.9531Z" fill="#39519D"/>
<path d="M114.568 91.0328C114.36 90.6704 114.082 90.3526 113.751 90.0975C113.42 89.8424 113.042 89.655 112.638 89.546C112.235 89.4371 111.814 89.4086 111.399 89.4624C110.985 89.5161 110.585 89.6509 110.222 89.8592C109.86 90.0675 109.542 90.3451 109.287 90.6762C109.032 91.0073 108.845 91.3854 108.736 91.7889C108.627 92.1924 108.598 92.6134 108.652 93.0279C108.706 93.4424 108.841 93.8423 109.049 94.2047L123.037 118.406L72.2867 137.437C72.2867 137.437 72.2867 137.437 72.0647 137.437H71.811L63.5641 142.195L58.0767 145.367C57.3543 145.785 56.5566 146.056 55.7293 146.165C54.902 146.273 54.0614 146.218 53.2555 146.001C51.6366 145.564 50.2567 144.503 49.4175 143.052L43.0738 132.077C42.3275 130.641 42.1581 128.974 42.6003 127.418C43.0425 125.861 44.0629 124.532 45.4527 123.703L56.4274 117.359L64.3571 131.094C64.6365 131.578 65.0389 131.979 65.5235 132.258C66.0081 132.536 66.5577 132.682 67.1166 132.68C67.6744 132.682 68.223 132.537 68.7069 132.259C69.1909 131.982 69.5931 131.582 69.873 131.099C70.1529 130.617 70.3005 130.069 70.3011 129.511C70.3016 128.953 70.155 128.405 69.8761 127.922L61.6927 113.775L101.5 80.9462L102.8 83.1983C103.008 83.5607 103.286 83.8785 103.617 84.1336C103.948 84.3887 104.326 84.5761 104.73 84.685C105.133 84.794 105.554 84.8225 105.969 84.7687C106.383 84.715 106.783 84.5801 107.146 84.3719C107.508 84.1636 107.826 83.886 108.081 83.5549C108.336 83.2238 108.523 82.8457 108.632 82.4422C108.741 82.0387 108.77 81.6176 108.716 81.2031C108.662 80.7886 108.528 80.3888 108.319 80.0264L105.147 74.5391C104.915 74.1416 104.599 73.7996 104.221 73.5367C103.843 73.2738 103.412 73.0963 102.959 73.0166C102.503 72.9306 102.034 72.9457 101.584 73.0608C101.135 73.1759 100.716 73.3882 100.358 73.6826L55.9516 110.286L42.4394 118.089C40.0145 119.501 38.1263 121.678 37.0703 124.278C36.0143 126.878 35.85 129.754 36.6032 132.458L33.4313 134.265C31.797 135.204 30.4782 136.607 29.6421 138.296C28.8059 139.985 28.4902 141.884 28.7348 143.752C28.9794 145.621 29.7734 147.375 31.0161 148.792C32.2588 150.209 33.8942 151.225 35.715 151.711C36.5222 151.925 37.3541 152.031 38.1891 152.028C39.8577 152.021 41.4964 151.584 42.9469 150.759L46.1188 148.951C47.6425 150.525 49.5587 151.664 51.6696 152.25C52.7535 152.553 53.8746 152.703 55 152.694C57.2295 152.699 59.4198 152.108 61.3438 150.981L64.1033 149.395L70.4471 160.402C71.7078 162.581 73.7811 164.173 76.2127 164.827C78.6443 165.481 81.236 165.144 83.42 163.891C84.5035 163.266 85.4534 162.435 86.2152 161.443C86.9771 160.451 87.536 159.319 87.86 158.112C88.1841 156.904 88.2669 155.644 88.1037 154.404C87.9405 153.164 87.5346 151.969 86.9091 150.886L81.1363 140.831L128.714 122.974C129.146 122.811 129.537 122.557 129.86 122.228C130.183 121.9 130.431 121.505 130.586 121.07C130.74 120.641 130.8 120.184 130.762 119.73C130.724 119.276 130.588 118.835 130.364 118.438L114.568 91.0328ZM39.6482 145.24C39.2869 145.449 38.8881 145.584 38.4744 145.639C38.0608 145.693 37.6405 145.666 37.2375 145.557C36.4249 145.346 35.7291 144.822 35.3027 144.098C35.0939 143.737 34.9584 143.338 34.9039 142.925C34.8495 142.511 34.8772 142.091 34.9855 141.688C35.0938 141.283 35.2813 140.903 35.5372 140.571C35.7931 140.239 36.1122 139.961 36.4763 139.753L39.2358 138.167L42.4077 143.654L39.6482 145.24ZM81.39 154.121C81.5988 154.483 81.7343 154.881 81.7888 155.295C81.8432 155.709 81.8155 156.129 81.7072 156.532C81.481 157.338 80.9451 158.022 80.2164 158.435C79.4919 158.851 78.6325 158.965 77.8248 158.751C77.0171 158.537 76.3264 158.013 75.9027 157.293L69.5589 146.287L74.8242 143.274H75.078L81.39 154.121Z" fill="#39519D"/>
<path d="M167.994 143.819C174.062 143.819 178.981 138.961 178.981 132.969C178.981 126.977 174.062 122.119 167.994 122.119C161.927 122.119 157.008 126.977 157.008 132.969C157.008 138.961 161.927 143.819 167.994 143.819Z" fill="#8FD8FA"/>
<path d="M167.994 122.117C167.3 122.117 166.621 122.184 165.962 122.306C171.058 123.248 174.916 127.661 174.916 132.967C174.916 138.273 171.058 142.687 165.962 143.629C166.621 143.751 167.3 143.817 167.994 143.817C174.062 143.817 178.981 138.96 178.981 132.967C178.981 126.975 174.062 122.117 167.994 122.117Z" fill="#6BCDFE"/>
<path d="M171.493 128.807C170.613 127.807 169.08 127.702 168.068 128.571C167.53 129.034 167.225 129.707 167.234 130.412V130.947C165.495 130.992 163.839 130.261 162.714 128.976C162.546 128.783 162.229 128.845 162.156 129.09C161.758 130.426 161.213 133.789 165.066 135.48C164.3 135.994 163.434 136.332 162.53 136.476C162.295 136.513 162.411 136.941 162.471 137.095C162.88 138.149 167.492 138.586 170.318 136.291C172.05 134.884 172.579 132.881 172.76 131.802C173.06 131.497 173.501 130.97 173.814 130.204C173.959 129.847 174.049 129.506 174.103 129.194C174.184 128.73 173.701 128.381 173.273 128.586C173.094 128.671 172.891 128.746 172.664 128.796C172.17 128.904 171.75 128.857 171.493 128.807Z" fill="white"/>
</svg>
