<svg width="121" height="126" viewBox="0 0 121 126" fill="none" xmlns="http://www.w3.org/2000/svg">
<g clip-path="url(#clip0)">
<path d="M70.2095 123.204C69.3105 124.161 68.3359 124.951 67.3075 125.556C67.0381 125.716 66.7672 125.864 66.4918 126H52.4337C52.3769 125.853 52.3215 125.704 52.2646 125.556C51.1242 122.524 50.09 119.376 49.7966 115.951C49.4449 111.84 50.4312 107.184 52.8693 105.164C53.1886 104.9 53.527 104.69 53.878 104.538C54.0232 104.471 54.1714 104.418 54.321 104.371C55.2349 104.07 56.1863 104.136 57.0775 104.561C57.9686 104.987 58.7673 105.758 59.3914 106.794C60.0155 107.83 60.4425 109.094 60.6285 110.456C60.8146 111.818 60.7529 113.229 60.4498 114.544C62.5167 111.398 62.1306 106.296 61.4181 102.031C60.7042 97.7667 59.8392 93.02 61.2924 89.1889C62.0992 87.0578 63.5195 85.7356 65.1119 85.2022C65.1613 85.1867 65.2107 85.1712 65.2586 85.1578C67.1572 84.5868 69.131 85.1003 70.7858 86.5956C73.8329 89.4445 75.3969 94.8511 75.9043 100.144C76.723 108.664 74.912 118.171 70.2095 123.204Z" fill="#F2F2F2"/>
<path d="M55.424 107.087C56.5494 110.479 56.9084 114.32 56.4477 118.04C56.1 120.767 55.3339 123.339 54.2087 125.556C54.1324 125.707 54.0545 125.856 53.9752 126H53.4199C53.5053 125.856 53.589 125.707 53.6684 125.556C54.6904 123.665 55.4313 121.475 55.8425 119.129C56.2537 116.783 56.3258 114.335 56.0541 111.944C55.7317 109.256 54.986 106.718 53.8779 104.538C54.0231 104.471 54.1713 104.418 54.3209 104.371C54.7424 105.226 55.1115 106.134 55.424 107.087Z" fill="white"/>
<path d="M68.8731 109.547C68.753 111.426 68.4489 113.269 67.9706 115.018C67.5297 116.565 66.9354 118.007 66.2075 119.293C64.7214 121.949 62.7548 123.947 60.6191 125.276C60.4634 125.373 60.3063 125.467 60.1476 125.556C59.8722 125.716 59.5938 125.862 59.3139 126H57.7979C58.1556 125.867 58.5118 125.718 58.8635 125.556C59.6998 125.169 60.5157 124.692 61.3045 124.127C63.3097 122.715 65.0509 120.595 66.3752 117.951C67.7955 115.04 68.4226 111.54 68.5304 107.982C68.6441 104.176 68.3104 100.3 67.7252 96.5955C67.128 92.7986 66.2197 89.1245 65.0207 85.6555C64.9939 85.577 64.9884 85.4862 65.0054 85.4018C65.0224 85.3174 65.0606 85.246 65.112 85.2022C65.1552 85.1597 65.2078 85.1438 65.2587 85.1578C65.2836 85.1673 65.3068 85.185 65.3265 85.2096C65.3462 85.2342 65.3619 85.2651 65.3724 85.3C65.5206 85.7289 65.6658 86.1577 65.805 86.5911C66.9672 90.2039 67.8233 94.0166 68.3538 97.9422C68.8671 101.729 69.1425 105.691 68.8731 109.547Z" fill="white"/>
<path d="M6.35626 62.8888C5.11302 62.8888 3.8977 62.3414 2.86398 61.3159C1.83026 60.2903 1.02457 58.8327 0.548803 57.1272C0.0730348 55.4218 -0.0514462 53.5452 0.191099 51.7347C0.433643 49.9242 1.03232 48.2611 1.91143 46.9558C2.79053 45.6506 3.91058 44.7616 5.12994 44.4015C6.34929 44.0414 7.61319 44.2262 8.76179 44.9326C9.9104 45.639 10.8921 46.8353 11.5828 48.3702C12.2735 49.905 12.6422 51.7095 12.6422 53.5555C12.6403 56.03 11.9774 58.4023 10.799 60.1521C9.62058 61.9018 8.02282 62.886 6.35626 62.8888ZM6.35626 44.6666C5.17222 44.6666 4.01477 45.1879 3.03028 46.1647C2.04578 47.1414 1.27846 48.5296 0.82535 50.1539C0.372237 51.7781 0.253682 53.5654 0.484677 55.2896C0.715672 57.0139 1.28584 58.5978 2.12309 59.8409C2.96033 61.084 4.02704 61.9306 5.18833 62.2736C6.34962 62.6166 7.55333 62.4405 8.64724 61.7678C9.74115 61.095 10.6761 59.9557 11.334 58.4939C11.9918 57.0321 12.3429 55.3136 12.3429 53.5555C12.3411 51.1988 11.7098 48.9395 10.5875 47.2731C9.46514 45.6066 7.94346 44.6693 6.35626 44.6666Z" fill="#3F3D56"/>
<path d="M31.7991 32.8888C30.5559 32.8888 29.3406 32.3414 28.3068 31.3159C27.2731 30.2903 26.4674 28.8327 25.9917 27.1272C25.5159 25.4218 25.3914 23.5452 25.634 21.7347C25.8765 19.9242 26.4752 18.2611 27.3543 16.9558C28.2334 15.6506 29.3535 14.7616 30.5728 14.4015C31.7922 14.0414 33.0561 14.2262 34.2047 14.9326C35.3533 15.639 36.335 16.8353 37.0257 18.3702C37.7164 19.905 38.0851 21.7095 38.0851 23.5555C38.0832 26.03 37.4203 28.4023 36.2419 30.1521C35.0635 31.9018 33.4657 32.886 31.7991 32.8888ZM31.7991 14.6666C30.6151 14.6666 29.4576 15.1879 28.4731 16.1647C27.4887 17.1414 26.7213 18.5296 26.2682 20.1539C25.8151 21.7781 25.6966 23.5654 25.9275 25.2896C26.1585 27.0139 26.7287 28.5978 27.566 29.8409C28.4032 31.084 29.4699 31.9306 30.6312 32.2736C31.7925 32.6166 32.9962 32.4405 34.0901 31.7678C35.184 31.095 36.119 29.9557 36.7768 28.4939C37.4346 27.0321 37.7858 25.3136 37.7858 23.5555C37.784 21.1988 37.1527 18.9395 36.0303 17.2731C34.908 15.6066 33.3863 14.6693 31.7991 14.6666Z" fill="#3F3D56"/>
<path d="M59.0384 18.6667C57.7952 18.6667 56.5798 18.1193 55.5461 17.0937C54.5124 16.0682 53.7067 14.6105 53.2309 12.905C52.7552 11.1996 52.6307 9.32298 52.8732 7.5125C53.1158 5.70201 53.7145 4.03896 54.5936 2.73367C55.4727 1.42838 56.5927 0.53947 57.8121 0.179341C59.0314 -0.180787 60.2953 0.00404459 61.4439 0.710463C62.5925 1.41688 63.5743 2.61315 64.265 4.14801C64.9557 5.68287 65.3243 7.48738 65.3243 9.33334C65.3225 11.8078 64.6596 14.1802 63.4811 15.9299C62.3027 17.6796 60.705 18.6639 59.0384 18.6667ZM59.0384 0.444448C57.8544 0.444448 56.6969 0.965771 55.7124 1.94249C54.7279 2.91922 53.9606 4.30747 53.5075 5.9317C53.0544 7.55594 52.9358 9.3432 53.1668 11.0675C53.3978 12.7917 53.968 14.3756 54.8052 15.6187C55.6425 16.8619 56.7092 17.7084 57.8705 18.0514C59.0318 18.3944 60.2355 18.2184 61.3294 17.5456C62.4233 16.8728 63.3583 15.7335 64.0161 14.2717C64.6739 12.81 65.025 11.0914 65.025 9.33334C65.0232 6.97667 64.3919 4.71729 63.2696 3.05088C62.1473 1.38447 60.6256 0.447107 59.0384 0.444448Z" fill="#3F3D56"/>
<path d="M88.0736 33.3333C86.8303 33.3333 85.615 32.7859 84.5813 31.7603C83.5476 30.7348 82.7419 29.2771 82.2661 27.5717C81.7903 25.8662 81.6658 23.9896 81.9084 22.1791C82.1509 20.3686 82.7496 18.7056 83.6287 17.4003C84.5078 16.095 85.6279 15.2061 86.8472 14.846C88.0666 14.4858 89.3305 14.6707 90.4791 15.3771C91.6277 16.0835 92.6094 17.2798 93.3001 18.8146C93.9908 20.3495 94.3595 22.154 94.3595 24C94.3576 26.4745 93.6948 28.8468 92.5163 30.5965C91.3379 32.3463 89.7401 33.3305 88.0736 33.3333ZM88.0736 15.1111C86.8895 15.1111 85.7321 15.6324 84.7476 16.6091C83.7631 17.5858 82.9957 18.9741 82.5426 20.5983C82.0895 22.2226 81.971 24.0098 82.202 25.7341C82.433 27.4584 83.0031 29.0422 83.8404 30.2854C84.6776 31.5285 85.7443 32.3751 86.9056 32.7181C88.0669 33.061 89.2706 32.885 90.3645 32.2122C91.4584 31.5394 92.3934 30.4001 93.0513 28.9384C93.7091 27.4766 94.0602 25.758 94.0602 24C94.0584 21.6433 93.4271 19.3839 92.3048 17.7175C91.1824 16.0511 89.6608 15.1137 88.0736 15.1111Z" fill="#3F3D56"/>
<path d="M114.714 55.7778C113.471 55.7778 112.256 55.2304 111.222 54.2048C110.188 53.1792 109.382 51.7216 108.907 50.0161C108.431 48.3107 108.306 46.4341 108.549 44.6236C108.792 42.8131 109.39 41.1501 110.269 39.8448C111.148 38.5395 112.268 37.6506 113.488 37.2904C114.707 36.9303 115.971 37.1151 117.12 37.8215C118.268 38.528 119.25 39.7242 119.941 41.2591C120.631 42.794 121 44.5985 121 46.4444C120.998 48.9189 120.335 51.2913 119.157 53.041C117.978 54.7907 116.381 55.775 114.714 55.7778ZM114.714 37.5555C113.53 37.5555 112.373 38.0769 111.388 39.0536C110.404 40.0303 109.636 41.4186 109.183 43.0428C108.73 44.667 108.612 46.4543 108.843 48.1786C109.074 49.9028 109.644 51.4867 110.481 52.7298C111.318 53.973 112.385 54.8195 113.546 55.1625C114.708 55.5055 115.911 55.3295 117.005 54.6567C118.099 53.9839 119.034 52.8446 119.692 51.3828C120.35 49.9211 120.701 48.2025 120.701 46.4444C120.699 44.0878 120.068 41.8284 118.945 40.162C117.823 38.4956 116.301 37.5582 114.714 37.5555Z" fill="#3F3D56"/>
<path d="M35.3912 20.9995L36.1395 20.7773C36.1395 20.7773 35.5109 21.8217 35.3912 21.8884C35.38 22.1103 35.38 22.3332 35.3912 22.5551C33.9544 31.7106 28.6562 27.6662 28.6562 27.6662C30.5869 27.7329 30.7516 26.5551 30.7516 26.5551C29.6291 26.3106 29.4046 25.2217 29.4046 25.2217C29.5053 25.3006 29.6221 25.3216 29.7325 25.2806C29.843 25.2396 29.9394 25.1395 30.0032 24.9995C28.7909 24.5329 28.9556 22.7773 28.9556 22.7773C29.1717 23.0089 29.4242 23.1543 29.6889 23.1995C29.5542 22.9551 28.4168 20.9329 29.1052 19.8884C29.1052 19.8884 29.9434 22.1106 32.1435 22.3106L32.2931 22.2662C32.2677 22.1061 32.2576 21.9415 32.2632 21.7773C32.2632 21.1585 32.4288 20.565 32.7235 20.1274C33.0182 19.6898 33.4179 19.444 33.8347 19.444C34.8823 19.444 35.1068 20.3329 35.1068 20.3329L35.8552 19.6662C35.8402 19.6662 35.7654 20.7773 35.3912 20.9995Z" fill="#3F3D56"/>
<path d="M83.1836 119.918L84.8313 121.118L88.7303 112.252L86.2987 110.483L83.1836 119.918Z" fill="#FFADAD"/>
<path d="M83.0275 118.814L86.2721 121.175L86.2722 121.176C86.5438 121.373 86.7865 121.648 86.9864 121.985C87.1863 122.322 87.3396 122.714 87.4375 123.139C87.5353 123.564 87.5759 124.013 87.5568 124.461C87.5378 124.909 87.4594 125.348 87.3263 125.751L87.2934 125.851L81.981 121.984L83.0275 118.814Z" fill="#2F2E41"/>
<path d="M99.5115 124.099L101.346 124.098L102.219 113.59H99.5112L99.5115 124.099Z" fill="#FFADAD"/>
<path d="M99.0435 122.32L102.657 122.32H102.657C102.96 122.32 103.259 122.408 103.538 122.58C103.818 122.752 104.072 123.004 104.285 123.321C104.499 123.639 104.669 124.016 104.785 124.431C104.9 124.845 104.96 125.29 104.96 125.739V125.85L99.0436 125.85L99.0435 122.32Z" fill="#2F2E41"/>
<path d="M95.57 51.5753C97.6001 51.5753 99.2459 49.1317 99.2459 46.1173C99.2459 43.1029 97.6001 40.6593 95.57 40.6593C93.5398 40.6593 91.894 43.1029 91.894 46.1173C91.894 49.1317 93.5398 51.5753 95.57 51.5753Z" fill="#FFADAD"/>
<path d="M99.2309 120.633C99.0575 120.632 98.8908 120.533 98.7656 120.354C98.6405 120.176 98.5664 119.933 98.5588 119.676L97.1379 91.5958C97.1363 91.5223 97.1183 91.4516 97.0868 91.3948C97.0552 91.338 97.0119 91.2983 96.9636 91.2819C96.9152 91.2654 96.8646 91.2732 96.8196 91.304C96.7745 91.3348 96.7376 91.3869 96.7146 91.452L87.6252 117.217C87.5427 117.448 87.4028 117.622 87.2351 117.703C87.0675 117.783 86.8854 117.763 86.7274 117.647L84.1936 115.766C84.0346 115.648 83.9137 115.441 83.857 115.19C83.8003 114.94 83.8125 114.666 83.8909 114.429L89.3146 98.1112L92.9069 85.8878C94.2935 81.8325 95.7659 79.7426 97.4083 79.4988C99.0933 79.249 100.893 80.9692 102.91 84.7582L102.927 84.7891L102.926 84.8285L102.627 119.13C102.628 119.379 102.565 119.62 102.452 119.804C102.339 119.988 102.184 120.102 102.016 120.124L99.2968 120.628C99.2747 120.631 99.2527 120.633 99.2309 120.633Z" fill="#2F2E41"/>
<path d="M91.6906 87.8617C91.8906 87.6785 92.0611 87.4323 92.1902 87.1406C92.3192 86.8489 92.4036 86.5187 92.4374 86.1733C92.4712 85.828 92.4536 85.4758 92.3858 85.1416C92.318 84.8074 92.2017 84.4994 92.0451 84.2392L92.5994 62.4935L89.9054 62.992L89.6782 84.1474C89.4012 84.5671 89.2376 85.1231 89.2182 85.7099C89.1989 86.2968 89.3252 86.8739 89.5733 87.3317C89.8213 87.7895 90.1739 88.0964 90.5641 88.1941C90.9543 88.2918 91.3551 88.1735 91.6906 87.8617Z" fill="#FFADAD"/>
<path d="M93.3945 66.3381L89.7767 65.7277C89.6738 65.7103 89.5746 65.6602 89.4859 65.5808C89.3971 65.5014 89.321 65.3945 89.2626 65.2674C89.2042 65.1404 89.165 64.9961 89.1475 64.8445C89.1301 64.6929 89.1348 64.5374 89.1615 64.3888L90.0955 59.1804C90.1583 58.399 90.4273 57.6865 90.8435 57.1991C91.2596 56.7117 91.7889 56.4892 92.3153 56.5803C92.8418 56.6715 93.3224 57.0688 93.6519 57.6853C93.9813 58.3018 94.1327 59.0871 94.0728 59.8691L94.1964 65.2383C94.1999 65.392 94.181 65.5451 94.1411 65.687C94.1012 65.829 94.0411 65.9565 93.965 66.0608C93.8889 66.1652 93.7986 66.244 93.7001 66.2919C93.6017 66.3397 93.4974 66.3555 93.3945 66.3381V66.3381Z" fill="#FFCCD9"/>
<path d="M108.979 52.6493C108.961 52.7692 108.949 52.891 108.943 53.0137L102.514 58.5209L100.951 57.1851L99.2852 60.4234L101.897 63.1873C102.108 63.4106 102.362 63.5262 102.621 63.5168C102.88 63.5075 103.13 63.3736 103.333 63.1353L109.963 55.3696C110.262 55.534 110.588 55.5593 110.897 55.4421C111.206 55.3249 111.484 55.0707 111.693 54.7134C111.903 54.3561 112.034 53.9125 112.07 53.4418C112.105 52.971 112.043 52.4954 111.892 52.0781C111.741 51.6608 111.508 51.3216 111.225 51.1057C110.941 50.8897 110.619 50.8073 110.303 50.8693C109.986 50.9313 109.69 51.1348 109.454 51.4528C109.217 51.7707 109.052 52.1881 108.979 52.6493Z" fill="#FFADAD"/>
<path d="M102.299 58.7818L100.221 62.7805C100.162 62.8942 100.087 62.9877 100.001 63.0546C99.9154 63.1215 99.8211 63.1602 99.7244 63.1681C99.6278 63.1759 99.5312 63.1528 99.4411 63.1002C99.351 63.0476 99.2696 62.9668 99.2025 62.8633L96.8502 59.2363C96.4595 58.7841 96.2057 58.1202 96.1443 57.3903C96.0829 56.6605 96.2191 55.9243 96.5228 55.3433C96.8266 54.7623 97.2731 54.3839 97.7646 54.2912C98.256 54.1985 98.7521 54.399 99.144 54.8488L102.094 57.2983C102.179 57.3684 102.252 57.4648 102.309 57.5808C102.366 57.6968 102.406 57.8298 102.425 57.9706C102.445 58.1113 102.443 58.2567 102.422 58.3967C102.4 58.5367 102.358 58.668 102.299 58.7818H102.299Z" fill="#F88D8D"/>
<path d="M103.994 86.4585L100.005 57.6076C99.8151 56.2363 99.2749 55.0276 98.4976 54.2353C97.7203 53.4431 96.7665 53.129 95.8365 53.3591L94.5061 53.6884C94.0439 53.8027 93.6015 54.0511 93.204 54.4194C92.8065 54.7877 92.4617 55.2686 92.1894 55.8347C91.7567 56.7341 91.4652 57.7661 91.3364 58.8548C91.2076 59.9435 91.2447 61.0612 91.4451 62.1258L93.647 73.8269L92.0129 86.3629C91.9946 86.5019 91.999 86.6454 92.0257 86.7814C92.0525 86.9174 92.1007 87.0419 92.1664 87.1446C92.2321 87.2473 92.3134 87.3251 92.4036 87.3716C92.4937 87.4181 92.59 87.4319 92.6844 87.4119C93.5025 87.2381 94.851 86.99 96.3999 86.8548L97.239 82.0491L97.5802 86.7785C99.4829 86.6994 101.548 86.8379 103.252 87.4951C103.351 87.5342 103.454 87.5353 103.553 87.4983C103.652 87.4613 103.743 87.3873 103.817 87.2835C103.892 87.1797 103.947 87.0494 103.978 86.905C104.009 86.7607 104.014 86.607 103.994 86.4585Z" fill="#FC8383"/>
<path d="M96.9849 44.9031C97.9297 45.8632 99.1702 46.8501 100.135 45.8277C100.769 45.1563 100.968 43.9131 100.711 42.8222C100.249 40.8602 98.9799 39.9965 97.766 39.3345C96.1879 38.4738 94.4695 37.7891 92.8403 38.4055C91.2112 39.0218 89.7713 41.3639 90.0654 43.8217C90.3019 45.7982 91.5576 47.4428 91.3794 49.4327C91.2 51.4354 89.6831 52.4895 88.3439 52.8475C87.0048 53.2054 85.5062 53.3204 84.5438 54.7486C83.3161 56.5706 83.6227 59.8271 84.7779 61.7508C85.9331 63.6744 87.6764 64.5463 89.3657 65.1391C91.6039 65.9245 94.0247 66.3372 96.1504 65.0338C98.2761 63.7304 99.9303 60.2217 99.3145 56.9316C99.0544 55.5419 98.4416 54.3674 97.8495 53.224C97.2573 52.0806 96.6577 50.8849 96.4318 49.482C96.2436 48.313 96.3829 46.9556 96.905 46.0787C97 45.9252 97.0597 45.731 97.0757 45.5239C97.0917 45.3168 97.0631 45.1076 96.994 44.9262L96.9849 44.9031Z" fill="#2F2E41"/>
<path d="M60.7508 4.71609C61.1695 4.71795 61.5707 4.96575 61.8668 5.40537C62.1629 5.84499 62.3298 6.44071 62.331 7.06243V11.7546C62.3298 12.3763 62.1629 12.972 61.8668 13.4117C61.5707 13.8513 61.1695 14.0991 60.7508 14.1009H57.5906C57.1719 14.0991 56.7707 13.8513 56.4746 13.4117C56.1786 12.972 56.0117 12.3763 56.0104 11.7546V7.06243C56.0117 6.44071 56.1786 5.84499 56.4746 5.40537C56.7707 4.96575 57.1719 4.71795 57.5906 4.71609H60.7508ZM60.7508 3.77771H57.5906C57.0045 3.78025 56.4428 4.12713 56.0283 4.74258C55.6137 5.35804 55.3801 6.19204 55.3784 7.06243V11.7546C55.3801 12.625 55.6137 13.459 56.0283 14.0744C56.4428 14.6899 57.0045 15.0368 57.5906 15.0393H60.7508C61.337 15.0368 61.8987 14.6899 62.3132 14.0744C62.7277 13.459 62.9613 12.625 62.963 11.7546V7.06243C62.9613 6.19204 62.7277 5.35804 62.3132 4.74258C61.8987 4.12713 61.337 3.78025 60.7508 3.77771Z" fill="#3F3D56"/>
<path d="M61.2249 7.06239C61.0996 7.06199 60.9794 6.98772 60.8909 6.85588C60.8024 6.72405 60.7528 6.54544 60.7529 6.3593C60.7531 6.17316 60.803 5.99471 60.8917 5.86316C60.9804 5.7316 61.1006 5.65771 61.2259 5.65771C61.3513 5.65771 61.4716 5.7316 61.5602 5.86316C61.6489 5.99471 61.6988 6.17316 61.699 6.3593C61.6991 6.54544 61.6495 6.72405 61.561 6.85588C61.4725 6.98772 61.3523 7.06199 61.227 7.06239C61.2263 7.06239 61.2256 7.06239 61.2249 7.06239Z" fill="#3F3D56"/>
<path d="M59.1706 7.53152C59.4206 7.53152 59.665 7.64161 59.8729 7.84786C60.0808 8.05411 60.2428 8.34725 60.3385 8.69023C60.4342 9.03321 60.4592 9.41062 60.4104 9.77473C60.3617 10.1388 60.2413 10.4733 60.0645 10.7358C59.8877 10.9983 59.6624 11.1771 59.4172 11.2495C59.172 11.3219 58.9178 11.2847 58.6868 11.1427C58.4558 11.0006 58.2584 10.76 58.1195 10.4514C57.9806 10.1427 57.9064 9.77978 57.9064 9.40854C57.9064 8.91072 58.0396 8.43329 58.2767 8.08129C58.5137 7.72928 58.8353 7.53152 59.1706 7.53152ZM59.1706 6.59314C58.7955 6.59314 58.4289 6.75825 58.1171 7.06761C57.8053 7.37697 57.5623 7.81668 57.4187 8.33113C57.2752 8.84557 57.2377 9.41165 57.3108 9.95779C57.384 10.5039 57.5646 11.0056 57.8298 11.3993C58.095 11.7931 58.4328 12.0612 58.8006 12.1698C59.1685 12.2785 59.5497 12.2227 59.8962 12.0096C60.2427 11.7965 60.5388 11.4357 60.7471 10.9727C60.9555 10.5097 61.0667 9.96537 61.0667 9.40854C61.0667 8.66185 60.8669 7.94574 60.5113 7.41776C60.1557 6.88977 59.6735 6.59315 59.1706 6.59314V6.59314Z" fill="#3F3D56"/>
<path d="M24.4207 123.051L22.6348 122.426L23.4078 111.901L26.0437 112.823L24.4207 123.051Z" fill="#FFADAD"/>
<path d="M24.4682 125.781L18.7095 123.767L18.7266 123.659C18.796 123.222 18.9226 122.809 19.0993 122.445C19.276 122.08 19.4993 121.771 19.7565 121.535C20.0137 121.299 20.2996 121.14 20.5981 121.068C20.8966 120.996 21.2017 121.012 21.4961 121.115L21.4962 121.115L25.0134 122.345L24.4682 125.781Z" fill="#2F2E41"/>
<path d="M31.3801 123.14H29.5452L28.6724 112.632L31.3804 112.632L31.3801 123.14Z" fill="#FFADAD"/>
<path d="M31.8485 125.781L25.9321 125.781V125.67C25.9321 125.221 25.9917 124.776 26.1074 124.361C26.2231 123.946 26.3928 123.569 26.6066 123.252C26.8204 122.934 27.0743 122.683 27.3537 122.511C27.6331 122.339 27.9325 122.25 28.235 122.25H28.2351L31.8486 122.251L31.8485 125.781Z" fill="#2F2E41"/>
<path d="M41.2905 81.5814C41.4134 81.2839 41.4909 80.95 41.5175 80.6033C41.5441 80.2565 41.5192 79.9053 41.4445 79.5744C41.3698 79.2435 41.2471 78.9409 41.0851 78.688C40.9232 78.4351 40.7258 78.238 40.507 78.1105L35.1349 57.8832L32.146 60.5772L38.3665 79.6129C38.2467 80.1729 38.2694 80.7787 38.4303 81.3156C38.5912 81.8524 38.8792 82.2829 39.2396 82.5255C39.6 82.7682 40.0079 82.8061 40.3858 82.6321C40.7638 82.458 41.0857 82.0842 41.2905 81.5814Z" fill="#FFADAD"/>
<path d="M36.2766 61.2282L32.862 63.105C32.7648 63.1584 32.6611 63.18 32.5578 63.1685C32.4545 63.157 32.354 63.1126 32.2633 63.0382C32.1727 62.9639 32.0938 62.8614 32.0322 62.7378C31.9706 62.6141 31.9276 62.4722 31.9063 62.3217L31.1586 57.0474C30.9775 56.3078 31.0013 55.4918 31.2247 54.7782C31.4482 54.0645 31.8531 53.5116 32.3507 53.2406C32.8483 52.9695 33.398 53.0025 33.8792 53.3323C34.3604 53.6621 34.734 54.2617 34.9179 54.9998L36.6585 59.7097C36.7083 59.8446 36.7379 59.9939 36.7454 60.1473C36.7528 60.3007 36.7379 60.4547 36.7017 60.5988C36.6655 60.7429 36.6087 60.8737 36.5354 60.9823C36.462 61.091 36.3738 61.1748 36.2766 61.2282V61.2282Z" fill="#00B0FF"/>
<path d="M31.2582 119.368C31.2493 119.368 31.2403 119.368 31.2313 119.367L28.6304 119.213C28.4547 119.204 28.2884 119.092 28.1674 118.903C28.0464 118.713 27.9805 118.461 27.984 118.2L28.1835 96.8664C28.1843 96.7805 28.1628 96.6976 28.1235 96.6347C28.0842 96.5718 28.03 96.5339 27.9723 96.5288C27.9146 96.5237 27.8579 96.5519 27.8138 96.6074C27.7697 96.6629 27.7418 96.7415 27.7357 96.8269L26.227 118.184C26.2113 118.401 26.1482 118.605 26.0473 118.764C25.9463 118.923 25.8131 119.029 25.6679 119.066L25.6589 119.068L23.2173 118.783C23.121 118.805 23.0228 118.795 22.9292 118.755C22.8357 118.715 22.7491 118.646 22.6755 118.551C22.6018 118.457 22.5428 118.339 22.5026 118.208C22.4624 118.076 22.4418 117.933 22.4424 117.789L22.5884 81.6155L34.5692 82.7413L31.9277 118.477C31.9091 118.722 31.8306 118.947 31.7072 119.112C31.5837 119.276 31.424 119.367 31.2582 119.368Z" fill="#2F2E41"/>
<path d="M29.0685 50.0378C31.0987 50.0378 32.7444 47.5942 32.7444 44.5798C32.7444 41.5655 31.0987 39.1218 29.0685 39.1218C27.0383 39.1218 25.3926 41.5655 25.3926 44.5798C25.3926 47.5942 27.0383 50.0378 29.0685 50.0378Z" fill="#FFADAD"/>
<path d="M33.9741 84.334C33.9572 84.334 33.9403 84.3331 33.9233 84.3314L22.8505 83.1284C22.6783 83.1098 22.5176 82.9938 22.4014 82.8042C22.2853 82.6147 22.2225 82.3662 22.2262 82.11L22.5182 61.4646C22.4986 60.1979 22.6534 58.9385 22.9729 57.7636C23.2925 56.5887 23.7702 55.523 24.3767 54.6317C24.9833 53.7404 25.7059 53.0422 26.5005 52.5799C27.2951 52.1176 28.1448 51.901 28.9977 51.9432C29.8506 51.9853 30.6887 52.2855 31.4608 52.8253C32.2329 53.365 32.9227 54.133 33.4879 55.0823C34.0532 56.0316 34.482 57.1421 34.7483 58.346C35.0145 59.5499 35.1124 60.8217 35.0361 62.0838C34.8425 65.2656 34.6885 79.166 34.6459 83.3504C34.6431 83.6124 34.5712 83.8623 34.4456 84.0463C34.3199 84.2303 34.1506 84.3336 33.9741 84.334Z" fill="#00B0FF"/>
<path d="M14.2412 50.7093C14.2596 50.8292 14.2716 50.9511 14.277 51.0738L20.7063 56.5809L22.269 55.2451L23.935 58.4834L21.3232 61.2473C21.1123 61.4706 20.8582 61.5863 20.5992 61.5769C20.3401 61.5675 20.0901 61.4336 19.8867 61.1954L13.2571 53.4296C12.9579 53.5941 12.632 53.6194 12.3229 53.5021C12.0138 53.3849 11.7361 53.1308 11.5266 52.7734C11.3172 52.4161 11.1859 51.9726 11.1504 51.5018C11.1149 51.0311 11.1767 50.5554 11.3277 50.1381C11.4786 49.7208 11.7116 49.3816 11.9956 49.1657C12.2795 48.9498 12.601 48.8674 12.9173 48.9294C13.2336 48.9914 13.5297 49.1949 13.7662 49.5129C14.0027 49.8308 14.1684 50.2481 14.2412 50.7093Z" fill="#FFADAD"/>
<path d="M20.7945 56.0304C20.8138 55.8896 20.8534 55.7567 20.9105 55.6406C20.9677 55.5246 21.041 55.4283 21.1254 55.3582L24.0758 52.9087C24.4678 52.4597 24.9637 52.2599 25.4548 52.3529C25.9458 52.4459 26.3921 52.8242 26.6956 53.4048C26.9992 53.9855 27.1353 54.7211 27.0742 55.4506C27.0131 56.18 26.7598 56.8437 26.3697 57.2963L24.0173 60.9232C23.9502 61.0267 23.8688 61.1075 23.7787 61.1601C23.6887 61.2127 23.592 61.2359 23.4954 61.228C23.3987 61.2201 23.3044 61.1814 23.2187 61.1146C23.1331 61.0477 23.0581 60.9541 22.999 60.8404L20.9211 56.8417C20.8619 56.728 20.82 56.5966 20.7981 56.4566C20.7763 56.3166 20.775 56.1712 20.7945 56.0304Z" fill="#00B0FF"/>
<path d="M30.9684 48.9009C30.4026 48.8947 29.8472 48.6757 29.3539 48.2644C28.8606 47.8531 28.4455 47.2629 28.1475 46.5489C28.1151 46.4736 27.9382 46.0878 27.7333 45.6412C27.1576 44.3859 27.0226 44.0873 27.0111 44.0435C26.8553 43.4467 26.3608 43.2162 25.9735 43.1279C25.9012 43.1114 25.8279 43.0969 25.7543 43.0821C25.2087 42.9736 24.6446 42.8614 24.3352 41.971C24.1083 41.3176 23.7373 38.6568 24.0223 38.0066C24.3795 37.1911 25.0655 37.4558 25.729 37.7121C26.1535 37.8757 26.5924 38.0452 26.9421 37.9372C28.4581 37.4688 30.1764 36.938 31.6938 38.3102C32.9016 39.402 33.628 41.4641 33.5896 43.6917C33.5484 46.0839 32.8458 47.9721 31.71 48.7429L31.4736 48.8452L31.3406 48.8695C31.217 48.8904 31.0927 48.9009 30.9684 48.9009Z" fill="#2F2E41"/>
<path d="M114.934 40.3998C113.988 40.3999 113.07 40.8836 112.335 41.7697C111.601 42.6558 111.094 43.8903 110.9 45.2658C110.706 46.6413 110.836 48.0741 111.27 49.3235C111.703 50.5728 112.413 51.5627 113.28 52.1268C113.262 51.656 113.287 51.1839 113.351 50.7224C113.431 50.2251 113.881 47.3863 113.881 47.3863C113.791 47.0815 113.746 46.7518 113.749 46.419C113.749 45.5119 114.102 44.8343 114.544 44.8343C114.919 44.8343 115.1 45.2523 115.1 45.7524C115.1 46.3125 114.859 47.1486 114.735 47.9245C114.711 48.0683 114.709 48.2186 114.731 48.3633C114.753 48.5081 114.797 48.6432 114.861 48.7578C114.924 48.8724 115.005 48.9633 115.096 49.0231C115.187 49.0829 115.287 49.11 115.387 49.1022C116.167 49.1022 116.693 47.613 116.693 45.848C116.693 44.5064 116.084 43.5037 114.978 43.5037C113.729 43.5037 112.948 44.8889 112.948 46.4354C112.936 46.8715 113.033 47.2989 113.221 47.6349C113.254 47.6752 113.277 47.7301 113.288 47.7914C113.298 47.8528 113.296 47.9176 113.28 47.9764C113.259 48.0885 113.215 48.359 113.195 48.4683C113.192 48.5013 113.183 48.5326 113.169 48.5596C113.156 48.5866 113.139 48.6085 113.119 48.6235C113.098 48.6384 113.076 48.646 113.054 48.6457C113.031 48.6453 113.009 48.6369 112.989 48.6213C112.413 48.2715 112.144 47.3371 112.144 46.2824C112.144 44.5447 113.132 42.4599 115.09 42.4599C116.664 42.4599 117.7 44.1512 117.7 45.9655C117.7 48.3672 116.8 50.1596 115.475 50.1596C115.03 50.1596 114.612 49.8016 114.468 49.3972C114.468 49.3972 114.229 50.8071 114.178 51.0803C114.083 51.5446 113.943 51.9862 113.764 52.3918C114.331 52.6405 114.927 52.7052 115.512 52.5815C116.097 52.4579 116.658 52.1488 117.156 51.6753C117.653 51.2017 118.077 50.5748 118.397 49.837C118.717 49.0991 118.927 48.2677 119.012 47.399C119.096 46.5304 119.054 45.6448 118.888 44.8024C118.722 43.9599 118.436 43.1803 118.05 42.5165C117.663 41.8527 117.184 41.3201 116.647 40.9548C116.109 40.5896 115.525 40.4003 114.934 40.3998Z" fill="#3F3D56"/>
<path d="M91.7221 20.326L86.4203 17.9041C86.3531 17.868 86.2818 17.852 86.2105 17.857C86.1392 17.8619 86.0692 17.8878 86.0047 17.933C85.9401 17.9782 85.8821 18.0419 85.8342 18.1204C85.7862 18.199 85.7492 18.2908 85.7252 18.3907L84.0905 26.2803C84.0502 26.4942 84.0666 26.7229 84.1364 26.9194C84.2062 27.1159 84.3241 27.2652 84.4658 27.3365L89.7661 29.7577C89.9072 29.8133 90.0574 29.7841 90.1842 29.6763C90.3109 29.5686 90.404 29.3911 90.4432 29.1822L92.0779 21.2926C92.0995 21.1945 92.1073 21.0909 92.1009 20.9882C92.0945 20.8854 92.074 20.7857 92.0406 20.6952C92.0073 20.6046 91.9618 20.5252 91.9071 20.4617C91.8523 20.3982 91.7893 20.352 91.7221 20.326ZM86.2175 26.418L85.3074 26.0023L86.178 21.8009L87.0881 22.2166L86.2175 26.418ZM86.7969 21.3843L86.7903 21.3813C86.6597 21.3202 86.5506 21.1847 86.4871 21.0045C86.4236 20.8242 86.4108 20.614 86.4515 20.4197C86.4922 20.2255 86.5831 20.0632 86.7043 19.9683C86.8255 19.8734 86.9671 19.8537 87.098 19.9135C87.229 19.9733 87.3386 20.1078 87.4029 20.2874C87.4672 20.467 87.481 20.6771 87.4411 20.8718C87.4013 21.0664 87.3111 21.2296 87.1903 21.3257C87.0696 21.4218 86.9281 21.4429 86.7969 21.3843ZM89.5436 27.9374L88.6335 27.5217L89.1095 25.2244C89.2236 24.6741 89.169 24.2375 88.8398 24.0871C88.7365 24.0413 88.6263 24.0441 88.5242 24.0953C88.4221 24.1465 88.3332 24.2434 88.2698 24.3727C88.2234 24.4684 88.1894 24.5761 88.1695 24.6902L87.6737 27.0832L86.7636 26.6675L87.6341 22.4661L88.5442 22.8818L88.4231 23.4665C88.55 23.2915 88.7064 23.1706 88.8757 23.1164C89.0451 23.0621 89.2211 23.0767 89.3853 23.1584C89.9828 23.4313 90.3135 24.2224 90.0523 25.483L89.5436 27.9374Z" fill="#3F3D56"/>
<path fill-rule="evenodd" clip-rule="evenodd" d="M10.4656 53.5922C10.4654 52.4262 10.2403 51.2848 9.81678 50.3029C9.3933 49.321 8.7892 48.5399 8.076 48.0519C7.36281 47.564 6.57039 47.3897 5.79255 47.5496C5.01471 47.7096 4.28402 48.1971 3.687 48.9545C3.08997 49.7119 2.6516 50.7075 2.42379 51.8233C2.19598 52.9391 2.18826 54.1285 2.40156 55.2506C2.61485 56.3727 3.04022 57.3806 3.62731 58.1549C4.2144 58.9292 4.93862 59.4376 5.71424 59.6198V55.3564H4.67061V53.5922H5.71424V52.2477C5.71424 50.7188 6.32788 49.8736 7.2664 49.8736C7.57462 49.88 7.8821 49.9199 8.1864 49.9929V51.4946H7.66797C7.1578 51.4946 6.9982 51.9647 6.9982 52.4479V53.5925H8.13778L7.9558 55.3567H6.9982V59.6203C7.96486 59.393 8.84517 58.661 9.48079 57.5559C10.1164 56.4509 10.4656 55.0454 10.4656 53.5922L10.4656 53.5922Z" fill="#3F3D56"/>
<path d="M120.93 125.778C120.93 125.837 120.914 125.893 120.886 125.935C120.858 125.976 120.82 126 120.78 126H0.149665C0.109972 126 0.0719036 125.976 0.0438359 125.935C0.0157682 125.893 0 125.837 0 125.778C0 125.719 0.0157682 125.662 0.0438359 125.621C0.0719036 125.579 0.109972 125.555 0.149665 125.555H120.78C120.82 125.556 120.858 125.579 120.886 125.621C120.914 125.662 120.93 125.719 120.93 125.778Z" fill="#3F3D56"/>
</g>
<defs>
<clipPath id="clip0">
<rect width="121" height="126" fill="white"/>
</clipPath>
</defs>
</svg>
