<svg width="477" height="308" viewBox="0 0 477 308" fill="none" xmlns="http://www.w3.org/2000/svg">
<g clip-path="url(#clip0)">
<path d="M414.508 241.513C414.402 241.373 414.297 241.232 414.192 241.091C414.088 240.951 413.984 240.809 413.88 240.668C413.776 240.526 413.673 240.384 413.571 240.242C413.468 240.099 413.366 239.956 413.264 239.812C413.093 235.685 413.091 231.594 413.257 227.54C413.418 223.514 413.745 219.537 414.237 215.608C414.724 211.708 415.368 207.869 416.17 204.09C416.965 200.34 417.914 196.66 419.015 193.052C419.14 192.636 419.268 192.221 419.398 191.809C419.528 191.396 419.66 190.986 419.795 190.578C419.93 190.169 420.066 189.762 420.205 189.356C420.344 188.951 420.485 188.546 420.628 188.144C421.688 185.131 422.855 182.191 424.129 179.325C425.394 176.48 426.761 173.713 428.229 171.024C429.685 168.355 431.238 165.768 432.887 163.263C434.524 160.777 436.253 158.377 438.072 156.065L438.359 155.702L438.647 155.341L438.935 154.982L439.225 154.625L439.434 154.369L439.644 154.114C439.715 154.029 439.786 153.945 439.857 153.861C439.928 153.777 440 153.693 440.074 153.611L440.246 153.513L440.418 153.415L440.589 153.317L440.76 153.22L440.77 153.217L440.781 153.211L440.792 153.206L440.803 153.202L440.872 153.163L440.939 153.123L441.006 153.083L441.071 153.044L441.368 152.878L441.664 152.714L441.96 152.551L442.254 152.386L442.03 152.269L441.467 151.978L441.471 151.975C441.519 151.997 441.567 152.019 441.615 152.043C441.662 152.067 441.71 152.09 441.758 152.113C441.807 152.136 441.854 152.159 441.901 152.183C441.948 152.206 441.996 152.23 442.044 152.255L442.098 152.279L442.153 152.303L442.209 152.328C442.227 152.336 442.245 152.345 442.263 152.356C442.278 152.364 442.294 152.372 442.311 152.377L442.36 152.399L442.408 152.42L442.456 152.442C444.507 153.421 446.563 154.415 448.593 155.458C450.622 156.5 452.62 157.587 454.565 158.756C456.504 159.917 458.382 161.182 460.194 162.548C462 163.907 463.71 165.401 465.309 167.017C466.997 168.735 468.507 170.634 469.813 172.681C471.106 174.693 472.168 176.855 472.98 179.123C473.76 181.282 474.226 183.551 474.36 185.854C474.489 188.069 474.19 190.288 473.48 192.381C473.384 192.653 473.281 192.922 473.17 193.188C473.059 193.453 472.941 193.714 472.815 193.971C472.689 194.228 472.556 194.481 472.415 194.729C472.275 194.977 472.127 195.221 471.972 195.46C471.908 195.56 471.842 195.658 471.775 195.756C471.708 195.854 471.64 195.951 471.571 196.047C471.502 196.143 471.432 196.239 471.361 196.334C471.29 196.43 471.218 196.524 471.146 196.618C469.803 198.377 468.096 199.798 466.153 200.774C464.199 201.747 462.075 202.295 459.911 202.387C457.637 202.486 455.366 202.142 453.213 201.373C450.903 200.552 448.757 199.298 446.881 197.673C446.232 197.114 445.617 196.514 445.04 195.876C444.468 195.244 443.934 194.576 443.442 193.875C442.954 193.18 442.508 192.453 442.108 191.7C441.711 190.952 441.36 190.178 441.059 189.383C440.918 191.853 441.285 194.325 442.138 196.635C443.038 199.062 444.26 201.346 445.771 203.418C447.366 205.625 449.135 207.689 451.061 209.587C453 211.525 455.06 213.34 457.094 215.013C459.128 216.685 461.234 218.396 463.273 220.179C465.31 221.933 467.249 223.807 469.081 225.791C470.857 227.708 472.429 229.82 473.767 232.091C475.083 234.333 476.033 236.785 476.581 239.349C477.168 242.143 477.138 245.038 476.494 247.818C476.181 249.17 475.736 250.485 475.164 251.742C474.588 253.01 473.898 254.218 473.103 255.349L473.028 255.453L472.954 255.556L472.878 255.658L472.801 255.761C470.86 258.403 468.425 260.607 465.641 262.237C464.24 263.058 462.764 263.73 461.234 264.243C459.668 264.768 458.055 265.13 456.42 265.322C453.31 265.621 450.174 265.434 447.117 264.767C443.969 264.08 440.908 263.013 437.997 261.588C434.987 260.12 432.11 258.373 429.401 256.369C426.667 254.353 424.08 252.131 421.658 249.721C421.015 249.083 420.383 248.432 419.763 247.769C419.143 247.107 418.534 246.434 417.938 245.749C417.341 245.064 416.756 244.369 416.186 243.663C415.615 242.958 415.056 242.241 414.508 241.513Z" fill="#F2F2F2"/>
<path d="M464.515 193.692C462.592 192.653 460.744 191.471 458.984 190.156C455.468 187.53 452.327 184.398 449.655 180.854C448.33 179.095 447.129 177.238 446.064 175.298C445.174 173.658 444.385 171.962 443.7 170.219C443.032 168.519 442.47 166.775 442.017 164.999C441.576 163.265 441.247 161.501 441.032 159.72C440.822 157.976 440.73 156.218 440.756 154.461C440.759 154.361 440.761 154.263 440.763 154.165C440.765 154.067 440.767 153.969 440.769 153.87C440.772 153.771 440.776 153.673 440.78 153.576L440.794 153.284C440.714 153.35 440.633 153.417 440.553 153.485L440.312 153.689L440.073 153.894L439.834 154.1L439.681 154.232L439.527 154.366L439.374 154.5L439.223 154.634L439.431 154.379L439.646 154.115C439.716 154.03 439.787 153.946 439.858 153.861C439.929 153.777 440.002 153.694 440.075 153.612L440.248 153.513L440.42 153.416L440.587 153.318L440.758 153.221L440.768 153.218L440.779 153.212L440.79 153.207L440.801 153.203L440.869 153.164L440.938 153.124L441.004 153.085L441.069 153.045L441.367 152.879L441.663 152.715L441.959 152.552L442.255 152.389L442.023 152.269L441.46 151.977L441.464 151.974C441.513 151.996 441.561 152.018 441.608 152.042C441.656 152.066 441.703 152.089 441.752 152.112C441.8 152.135 441.848 152.158 441.895 152.182C441.942 152.205 441.989 152.229 442.037 152.254L442.091 152.278L442.146 152.302L442.202 152.327C442.221 152.335 442.239 152.344 442.256 152.354L442.251 152.448L442.244 152.535L442.239 152.622L442.235 152.71C442.027 155.671 442.175 158.647 442.675 161.569C443.19 164.578 444.034 167.515 445.192 170.322C446.389 173.228 447.884 175.99 449.653 178.56C451.48 181.218 453.574 183.666 455.898 185.863C458.238 188.043 460.791 189.962 463.514 191.589C464.859 192.392 466.244 193.12 467.663 193.77C469.07 194.413 470.509 194.977 471.975 195.458C471.91 195.558 471.844 195.657 471.777 195.754C471.71 195.852 471.642 195.949 471.573 196.045C471.504 196.141 471.434 196.237 471.363 196.333C471.292 196.428 471.221 196.523 471.148 196.616C470.583 196.421 470.021 196.214 469.461 195.994C468.902 195.774 468.346 195.542 467.792 195.298C467.239 195.054 466.689 194.798 466.143 194.53C465.597 194.261 465.054 193.982 464.515 193.692Z" fill="white"/>
<path d="M426.464 215.82C425.835 214.841 425.241 213.844 424.682 212.829C424.123 211.813 423.601 210.784 423.115 209.74C422.63 208.696 422.181 207.638 421.77 206.568C421.359 205.498 420.986 204.418 420.652 203.329C420.482 202.751 420.324 202.172 420.18 201.59C420.036 201.008 419.906 200.426 419.789 199.842C419.672 199.259 419.568 198.674 419.478 198.088C419.387 197.502 419.31 196.916 419.248 196.331C419.216 196.058 419.188 195.785 419.163 195.511C419.137 195.237 419.115 194.964 419.095 194.69C419.076 194.417 419.059 194.143 419.046 193.87C419.032 193.597 419.021 193.325 419.013 193.053C419.138 192.637 419.266 192.222 419.396 191.809C419.526 191.397 419.658 190.986 419.792 190.576C419.926 190.167 420.063 189.76 420.202 189.354C420.341 188.948 420.482 188.544 420.626 188.142C420.594 188.479 420.567 188.817 420.545 189.156C420.523 189.495 420.505 189.835 420.492 190.176C420.479 190.517 420.471 190.859 420.467 191.202C420.463 191.545 420.464 191.888 420.469 192.232C420.468 192.42 420.47 192.607 420.473 192.795C420.477 192.982 420.482 193.17 420.488 193.357C420.494 193.545 420.502 193.732 420.511 193.92C420.521 194.107 420.532 194.295 420.544 194.482C420.682 196.587 420.999 198.674 421.49 200.72C421.988 202.79 422.638 204.818 423.433 206.786C424.243 208.791 425.178 210.739 426.231 212.618C427.301 214.529 428.472 216.378 429.737 218.156C431.1 220.075 432.539 221.944 434.057 223.762C435.574 225.58 437.149 227.349 438.782 229.067C440.416 230.784 442.098 232.448 443.828 234.059C445.558 235.67 447.317 237.225 449.105 238.724C450.935 240.263 452.803 241.744 454.708 243.167C456.613 244.589 458.549 245.95 460.516 247.247C462.482 248.545 464.478 249.779 466.503 250.95C468.528 252.121 470.576 253.225 472.647 254.262C472.742 254.31 472.828 254.376 472.9 254.457C472.971 254.536 473.029 254.627 473.07 254.726C473.111 254.823 473.135 254.928 473.141 255.034C473.148 255.142 473.134 255.249 473.102 255.351C473.091 255.395 473.076 255.438 473.057 255.478C473.039 255.518 473.017 255.556 472.991 255.591C472.965 255.626 472.937 255.658 472.905 255.686C472.873 255.715 472.838 255.739 472.802 255.76C472.763 255.778 472.722 255.791 472.68 255.799C472.638 255.807 472.595 255.809 472.552 255.806C472.509 255.803 472.466 255.795 472.424 255.781C472.381 255.768 472.339 255.749 472.3 255.726C472.044 255.598 471.788 255.47 471.532 255.341C471.277 255.212 471.022 255.082 470.767 254.952C470.512 254.821 470.258 254.689 470.004 254.556C469.75 254.423 469.496 254.289 469.242 254.152C467.131 253.022 465.049 251.824 462.994 250.559C460.94 249.294 458.916 247.963 456.923 246.566C454.931 245.169 452.975 243.709 451.055 242.187C449.135 240.664 447.255 239.081 445.416 237.438C443.639 235.856 441.886 234.22 440.174 232.529C438.462 230.838 436.793 229.092 435.187 227.291C433.58 225.489 432.037 223.633 430.576 221.721C429.114 219.809 427.738 217.843 426.464 215.82Z" fill="white"/>
<path d="M466.23 58.652L464.718 58.8567L474.856 19.2105C475.603 16.5632 475.724 13.7669 475.21 11.06C474.764 8.84825 473.661 6.83901 472.057 5.3174C470.377 3.796 468.319 2.80052 466.119 2.44583C463.44 2.01354 460.705 2.14113 458.074 2.82116L389.173 19.1704C386.768 19.7784 384.466 20.765 382.347 22.0964C380.042 23.5244 377.899 25.2179 375.957 27.1448C373.959 29.1097 372.165 31.2888 370.606 33.6458C369.084 35.9272 367.842 38.3991 366.911 41.0033L294.82 247.605C293.622 251.002 292.843 254.544 292.503 258.146C292.188 261.344 292.337 264.573 292.945 267.725C293.453 270.463 294.513 273.057 296.057 275.336C297.472 277.408 299.466 278.975 301.766 279.824L374.565 305.936C377.799 307.084 381.27 307.299 384.612 306.56C388.184 305.749 391.544 304.137 394.457 301.836C397.729 299.274 400.543 296.133 402.769 292.555C405.235 288.624 407.077 284.305 408.226 279.764L457.032 88.9059L458.563 88.7781L466.23 58.652Z" fill="#2F2E41"/>
<path d="M460.963 56.457L459.451 56.6616L469.589 17.0154C470.336 14.3681 470.458 11.5718 469.944 8.86494C469.498 6.65318 468.394 4.64394 466.791 3.12233C465.111 1.60093 463.052 0.60545 460.853 0.250759C458.174 -0.181526 455.439 -0.0539394 452.807 0.626095L383.906 16.9754C381.502 17.5833 379.2 18.57 377.08 19.9013C374.776 21.3294 372.632 23.0228 370.69 24.9497C368.692 26.9146 366.899 29.0937 365.34 31.4507C363.817 33.7321 362.576 36.204 361.645 38.8083L289.554 245.41C288.355 248.807 287.577 252.349 287.237 255.951C286.921 259.149 287.07 262.378 287.678 265.53C288.186 268.268 289.247 270.862 290.79 273.141C292.205 275.213 294.199 276.78 296.5 277.629L369.298 303.741C372.532 304.889 376.003 305.104 379.345 304.365C382.917 303.554 386.277 301.942 389.191 299.641C392.463 297.079 395.276 293.938 397.503 290.36C399.968 286.429 401.811 282.11 402.959 277.568L451.765 86.7109L453.297 86.583L460.963 56.457Z" fill="#3F3D56"/>
<path d="M452.198 5.79916L442.07 8.11102C442.181 9.02405 442.093 9.95132 441.815 10.8246C441.499 11.846 441.041 12.8136 440.456 13.6967C439.139 15.7014 437.382 17.3493 435.33 18.5031C435.084 18.6392 434.839 18.7649 434.595 18.8801C434.351 18.9954 434.107 19.1 433.863 19.194C433.62 19.288 433.379 19.3711 433.139 19.4431C432.899 19.5152 432.662 19.5759 432.428 19.6253L392.829 27.9799C392.094 28.1578 391.329 28.1488 390.599 27.9536C390.01 27.7891 389.491 27.4249 389.124 26.9187C388.754 26.3751 388.544 25.7302 388.523 25.0639C388.492 24.214 388.621 23.3661 388.902 22.5677C388.972 22.3522 389.053 22.1353 389.142 21.9169C389.232 21.6985 389.33 21.4801 389.436 21.2617C389.542 21.0422 389.657 20.8238 389.781 20.6065C389.906 20.3892 390.037 20.172 390.176 19.9551L382.678 21.6666C380.872 22.1079 379.142 22.8372 377.55 23.8287C375.81 24.8965 374.193 26.1668 372.728 27.615C371.218 29.0947 369.864 30.7377 368.689 32.5164C367.543 34.2352 366.611 36.0988 365.916 38.0626L293.96 246.46C293.065 249.02 292.491 251.691 292.251 254.404C292.029 256.8 292.16 259.217 292.639 261.571C293.038 263.606 293.853 265.527 295.028 267.204C296.106 268.726 297.608 269.863 299.33 270.461L372.663 295.285C375.083 296.094 377.666 296.214 380.145 295.635C382.785 295.005 385.265 293.793 387.418 292.079C389.826 290.18 391.899 287.859 393.544 285.22C395.365 282.322 396.732 279.14 397.593 275.794L464.596 18.1684C465.159 16.2018 465.263 14.1239 464.9 12.107C464.586 10.4541 463.783 8.94493 462.606 7.79001C461.372 6.63533 459.848 5.87007 458.212 5.5835C456.214 5.23389 454.168 5.30724 452.198 5.79916Z" fill="white"/>
<path d="M412.87 104.498H266.99V52.9902H412.87V104.498Z" fill="white"/>
<path d="M370.221 122.678H227.248V194.89H370.221V122.678Z" fill="white"/>
<path d="M250.475 157.354C256.186 157.354 260.817 152.53 260.817 146.579C260.817 140.628 256.186 135.803 250.475 135.803C244.763 135.803 240.133 140.628 240.133 146.579C240.133 152.53 244.763 157.354 250.475 157.354Z" fill="#EFB4C2"/>
<path d="M274.359 139.395C273.902 139.395 273.464 139.584 273.141 139.921C272.817 140.258 272.636 140.715 272.636 141.191C272.636 141.667 272.817 142.124 273.141 142.461C273.464 142.798 273.902 142.987 274.359 142.987H355.616C356.072 142.986 356.51 142.796 356.832 142.459C357.154 142.123 357.335 141.666 357.335 141.191C357.335 140.715 357.154 140.259 356.832 139.923C356.51 139.586 356.072 139.396 355.616 139.395H274.359Z" fill="#E6E6E6"/>
<path d="M274.359 150.171C274.133 150.17 273.908 150.216 273.699 150.305C273.489 150.395 273.299 150.527 273.138 150.693C272.977 150.86 272.85 151.057 272.763 151.275C272.675 151.493 272.63 151.727 272.63 151.963C272.629 152.199 272.674 152.433 272.76 152.651C272.846 152.869 272.973 153.067 273.133 153.235C273.293 153.402 273.483 153.534 273.692 153.625C273.901 153.716 274.126 153.762 274.352 153.763H309.324C309.551 153.763 309.775 153.716 309.984 153.626C310.193 153.536 310.383 153.403 310.543 153.237C310.703 153.07 310.83 152.872 310.917 152.654C311.003 152.436 311.048 152.202 311.048 151.967C311.048 151.731 311.003 151.497 310.917 151.279C310.83 151.061 310.703 150.863 310.543 150.697C310.383 150.53 310.193 150.398 309.984 150.307C309.775 150.217 309.551 150.171 309.324 150.171H274.359Z" fill="#E6E6E6"/>
<path d="M242.542 167.398C241.231 167.398 240.164 168.203 240.164 169.194C240.164 170.184 241.231 170.99 242.542 170.99H354.652C355.963 170.99 357.03 170.184 357.03 169.194C357.03 168.203 355.963 167.398 354.652 167.398H242.542Z" fill="#E6E6E6"/>
<path d="M242.542 178.173C241.231 178.173 240.164 178.979 240.164 179.969C240.164 180.959 241.231 181.765 242.542 181.765H328.846C330.157 181.765 331.224 180.959 331.224 179.969C331.224 178.979 330.157 178.173 328.846 178.173H242.542Z" fill="#E6E6E6"/>
<path d="M371.675 196.406H225.794V121.163H371.675V196.406ZM228.702 193.376H368.767V124.193H228.702V193.376Z" fill="#E6E6E6"/>
<path d="M291.67 89.1817C297.382 89.1817 302.012 84.3574 302.012 78.4062C302.012 72.455 297.382 67.6306 291.67 67.6306C285.959 67.6306 281.329 72.455 281.329 78.4062C281.329 84.3574 285.959 89.1817 291.67 89.1817Z" fill="#EFB4C2"/>
<path d="M315.555 71.2224C315.098 71.2224 314.659 71.4116 314.336 71.7484C314.013 72.0852 313.831 72.542 313.831 73.0183C313.831 73.4947 314.013 73.9514 314.336 74.2883C314.659 74.6251 315.098 74.8143 315.555 74.8143H396.811C397.268 74.8131 397.705 74.6234 398.027 74.2867C398.35 73.95 398.531 73.4939 398.531 73.0183C398.531 72.5428 398.35 72.0867 398.027 71.75C397.705 71.4133 397.268 71.2236 396.811 71.2224H315.555Z" fill="#E6E6E6"/>
<path d="M315.555 81.9981C315.328 81.9973 315.104 82.043 314.894 82.1326C314.685 82.2223 314.494 82.3541 314.334 82.5206C314.173 82.687 314.045 82.8848 313.958 83.1027C313.871 83.3205 313.826 83.5542 313.825 83.7902C313.825 84.0262 313.869 84.2601 313.955 84.4783C314.042 84.6965 314.169 84.8949 314.329 85.062C314.488 85.2292 314.678 85.3618 314.888 85.4524C315.097 85.543 315.321 85.5897 315.548 85.5899H379.486C379.943 85.5899 380.381 85.4007 380.705 85.0639C381.028 84.7271 381.209 84.2703 381.209 83.794C381.209 83.3177 381.028 82.8609 380.705 82.5241C380.381 82.1873 379.943 81.9981 379.486 81.9981H315.555Z" fill="#E6E6E6"/>
<path d="M412.87 104.498H266.99V52.9902H412.87V104.498ZM269.898 101.469H409.963V56.0201H269.898V101.469Z" fill="#E6E6E6"/>
<path d="M126.231 300.705H133.584L137.083 271.15L126.229 271.151L126.231 300.705Z" fill="#FFB6B6"/>
<path d="M147.767 307.819L124.655 307.82L124.655 298.516L139.926 298.516C142.006 298.515 144 299.376 145.47 300.908C146.941 302.44 147.767 304.518 147.767 306.684L147.767 307.819Z" fill="#2F2E41"/>
<path d="M52.6968 290.775L59.1409 294.466L75.8727 270.324L66.3619 264.876L52.6968 290.775Z" fill="#FFB6B6"/>
<path d="M68.2791 307.82L48.0262 296.219L52.3282 288.065L65.7107 295.731C67.5328 296.775 68.8824 298.531 69.4625 300.611C70.0425 302.692 69.8056 304.927 68.8039 306.826L68.2791 307.82Z" fill="#2F2E41"/>
<path d="M125.887 284.301C125.232 284.3 124.599 284.051 124.107 283.601C123.615 283.15 123.297 282.528 123.213 281.851L114.016 208.009C113.976 207.682 113.837 207.377 113.62 207.138C113.403 206.898 113.119 206.736 112.809 206.675C112.498 206.613 112.177 206.656 111.891 206.796C111.605 206.936 111.369 207.167 111.216 207.455L72.8878 279.911C72.5716 280.502 72.0621 280.956 71.452 281.189C70.8418 281.423 70.1716 281.42 69.5632 281.182L61.2087 277.866C60.8727 277.732 60.5656 277.53 60.3056 277.272C60.0455 277.013 59.8377 276.702 59.6943 276.359C59.5509 276.015 59.4749 275.645 59.4706 275.271C59.4664 274.896 59.5341 274.524 59.6696 274.177L86.2206 206.218C86.2878 206.045 86.3334 205.864 86.3562 205.679C89.9524 176.678 99.1023 161.929 101.821 158.1C102.019 157.819 102.15 157.491 102.202 157.146C102.254 156.801 102.225 156.448 102.118 156.117L101.745 154.949C101.595 154.485 101.565 153.989 101.656 153.509C101.747 153.029 101.957 152.583 102.264 152.213C112.06 140.587 129.134 146.931 129.305 146.997L129.391 147.03L129.445 147.106C148.59 174.463 141.511 263.319 139.898 280.854C139.837 281.513 139.555 282.128 139.102 282.591C138.648 283.055 138.051 283.336 137.418 283.385L126.097 284.293C126.027 284.299 125.957 284.301 125.887 284.301Z" fill="#2F2E41"/>
<path d="M120.697 79.1224C129.735 79.1224 137.062 71.4879 137.062 62.0702C137.062 52.6526 129.735 45.0181 120.697 45.0181C111.658 45.0181 104.331 52.6526 104.331 62.0702C104.331 71.4879 111.658 79.1224 120.697 79.1224Z" fill="#FFB8B8"/>
<path d="M95.3948 170.577L143.552 175.144C139.353 159.932 135.507 144.774 138.642 129.671C142.624 116.188 142.994 108.718 132.49 102.368L125.399 85.8842L112.564 85.3979L106.305 83.6106C101.249 92.0812 99.1807 102.122 100.455 112.008C103.176 133.507 102.441 153.457 95.3948 170.577Z" fill="#EFB4C2"/>
<path d="M102.704 94.4836L97.8605 71.3184C96.8498 65.835 97.1034 60.1797 98.6004 54.8183C98.7634 54.2689 98.9599 53.7308 99.1887 53.2075C100.529 50.1627 102.638 47.5538 105.289 45.6585C107.94 43.7632 111.034 42.6523 114.243 42.4443C125.252 41.652 126.868 42.8612 127.266 43.4576C133.487 43.1959 138.31 45.7 140.511 50.3341C140.727 50.794 140.843 51.2976 140.852 51.8094C140.86 52.3212 140.761 52.8287 140.561 53.2963C140.361 53.7638 140.065 54.1799 139.694 54.5153C139.323 54.8507 138.885 55.0973 138.413 55.2376C135.339 56.1612 131.017 57.1872 127.777 56.8855C121.28 65.0041 123.936 79.8789 130.527 88.7416L130.786 89.0899L124.256 90.4842L116.668 79.4737C116.518 79.2559 116.3 79.0983 116.052 79.0274C115.804 78.9565 115.539 78.9765 115.304 79.0842C115.068 79.1918 114.875 79.3805 114.756 79.6188C114.638 79.857 114.602 80.1303 114.654 80.393L116.958 92.0544L102.704 94.4836Z" fill="#2F2E41"/>
<path d="M456.651 308H0V306.803H456.859L456.651 308Z" fill="#CACACA"/>
<path d="M196.248 156.86L77.1394 244.622L48.5969 202.566L167.705 114.805L196.248 156.86Z" fill="white"/>
<path d="M88.803 217.268C93.4664 213.832 94.5735 207.107 91.2757 202.248C87.978 197.389 81.5242 196.236 76.8608 199.672C72.1974 203.108 71.0903 209.833 74.3881 214.692C77.6858 219.551 84.1396 220.704 88.803 217.268Z" fill="#EFB4C2"/>
<path d="M98.3525 188.236C97.9792 188.511 97.7261 188.929 97.6488 189.399C97.5716 189.868 97.6764 190.35 97.9404 190.739C98.2043 191.128 98.6057 191.392 99.0563 191.472C99.5068 191.553 99.9696 191.444 100.343 191.169L166.687 142.285C167.059 142.009 167.311 141.591 167.388 141.122C167.464 140.654 167.359 140.172 167.096 139.784C166.832 139.396 166.432 139.132 165.982 139.051C165.532 138.97 165.07 139.079 164.697 139.352L98.3525 188.236Z" fill="#E6E6E6"/>
<path d="M104.323 197.034C103.95 197.308 103.697 197.726 103.619 198.195C103.541 198.664 103.645 199.146 103.908 199.535C104.171 199.924 104.571 200.189 105.021 200.271C105.471 200.352 105.934 200.244 106.308 199.971L106.314 199.967L158.512 161.506C158.885 161.231 159.138 160.813 159.216 160.343C159.293 159.874 159.188 159.392 158.924 159.003C158.793 158.81 158.628 158.646 158.436 158.52C158.245 158.395 158.031 158.309 157.808 158.27C157.358 158.189 156.895 158.298 156.522 158.573L104.323 197.034Z" fill="#E6E6E6"/>
<path d="M196.248 156.86L77.1394 244.622L48.5969 202.566L167.705 114.805L196.248 156.86ZM77.8347 240.398L192.194 156.136L167.01 119.028L52.6502 203.291L77.8347 240.398Z" fill="#E6E6E6"/>
<path d="M468.219 141.279C468.641 141.262 469.062 141.336 469.456 141.498C469.829 141.654 470.167 141.888 470.449 142.187C470.733 142.487 470.954 142.845 471.099 143.238C471.253 143.654 471.322 144.099 471.305 144.545C471.288 145.002 471.186 145.452 471.004 145.868C470.827 146.277 470.58 146.649 470.275 146.966C469.973 147.281 469.617 147.536 469.227 147.719C468.831 147.904 468.403 148.006 467.969 148.018C467.546 148.032 467.125 147.953 466.733 147.787C466.362 147.629 466.026 147.393 465.746 147.093C465.465 146.792 465.246 146.434 465.103 146.042C464.953 145.627 464.884 145.184 464.903 144.741C464.921 144.286 465.022 143.839 465.203 143.424C465.379 143.019 465.624 142.651 465.925 142.336C466.226 142.021 466.578 141.766 466.966 141.583C467.361 141.397 467.786 141.293 468.219 141.279Z" fill="#F2F2F2"/>
<path d="M133.352 184.06L125.606 139.942L126.152 112.658L108.695 112.09L111.968 142.784L123.255 185.346C122.319 186.533 121.745 187.985 121.607 189.514C121.47 191.044 121.776 192.582 122.486 193.928C123.195 195.275 124.276 196.37 125.588 197.07C126.901 197.771 128.384 198.046 129.848 197.859C131.312 197.673 132.688 197.033 133.8 196.024C134.911 195.014 135.707 193.681 136.084 192.195C136.461 190.71 136.402 189.141 135.915 187.691C135.428 186.241 134.535 184.976 133.352 184.06H133.352Z" fill="#FFB8B8"/>
<path d="M107.604 114.932C113.929 112.422 120.918 112.422 127.243 114.932L126.152 92.1955C126.152 91.0012 125.926 89.8186 125.487 88.7152C125.049 87.6118 124.406 86.6093 123.595 85.7648C122.785 84.9203 121.823 84.2504 120.764 83.7933C119.705 83.3363 118.57 83.1011 117.423 83.1011C116.277 83.1011 115.142 83.3363 114.083 83.7933C113.024 84.2504 112.062 84.9203 111.252 85.7648C110.441 86.6093 109.798 87.6118 109.359 88.7152C108.921 89.8186 108.695 91.0012 108.695 92.1955L107.604 114.932Z" fill="#EFB4C2"/>
</g>
<defs>
<clipPath id="clip0">
<rect width="477" height="308" fill="white"/>
</clipPath>
</defs>
</svg>
