<svg width="121" height="119" viewBox="0 0 121 119" fill="none" xmlns="http://www.w3.org/2000/svg">
<path d="M60.5 1.91931H9.75811C5.447 1.91931 1.95166 5.35688 1.95166 9.59673V109.403C1.95166 113.643 5.447 117.081 9.75811 117.081H60.5C64.8112 117.081 68.3065 113.643 68.3065 109.403V74.8548V28.7903V9.59673C68.3065 5.35688 64.8112 1.91931 60.5 1.91931Z" fill="#8C95A4"/>
<path d="M68.3065 17.2742H1.95166V101.726H68.3065V17.2742Z" fill="#FFB8B8"/>
<path d="M68.3065 94.0483H1.95166V101.726H68.3065V94.0483Z" fill="#148CE0"/>
<path d="M44.8869 32.629V61.4193L31.2256 74.8548H115.145C117.301 74.8548 119.048 73.137 119.048 71.0161V32.629C119.048 30.5081 117.301 28.7903 115.145 28.7903H48.7901C46.6336 28.7903 44.8869 30.5081 44.8869 32.629Z" fill="#ECECEC"/>
<path d="M31.2256 74.8549L68.3062 82.5323V74.8549H31.2256Z" fill="#148CE0"/>
<path d="M115.145 26.871H70.2581V9.59677C70.2581 4.30511 65.8806 0 60.5 0H9.75806C4.37747 0 0 4.30511 0 9.59677V109.403C0 114.695 4.37747 119 9.75806 119H60.5C65.8806 119 70.2581 114.695 70.2581 109.403V80.6129H66.3548V99.8064H3.90323V19.1935H66.3548V26.871H48.7903C45.5624 26.871 42.9355 29.4544 42.9355 32.629V60.6247L26.5146 76.7742H115.145C118.373 76.7742 121 74.1907 121 71.0161V32.629C121 29.4544 118.373 26.871 115.145 26.871ZM66.3548 103.645V109.403C66.3548 112.578 63.728 115.161 60.5 115.161H9.75806C6.5301 115.161 3.90323 112.578 3.90323 109.403V103.645H66.3548ZM3.90323 15.3548V9.59677C3.90323 6.42216 6.5301 3.83871 9.75806 3.83871H60.5C63.728 3.83871 66.3548 6.42216 66.3548 9.59677V15.3548H3.90323ZM117.097 71.0161C117.097 72.0756 116.222 72.9355 115.145 72.9355H35.937L46.8387 62.214V32.629C46.8387 31.5695 47.713 30.7097 48.7903 30.7097H115.145C116.222 30.7097 117.097 31.5695 117.097 32.629V71.0161Z" fill="black"/>
<path d="M101.484 42.2258C103.636 42.2258 105.387 43.9475 105.387 46.0645H109.29C109.29 41.8304 105.789 38.3871 101.484 38.3871C97.1784 38.3871 93.6772 41.8304 93.6772 46.0645C93.6772 50.2986 97.1784 53.7419 101.484 53.7419C103.636 53.7419 105.387 55.4636 105.387 57.5806C105.387 59.6977 103.636 61.4193 101.484 61.4193C99.3311 61.4193 97.5805 59.6977 97.5805 57.5806H93.6772C93.6772 61.8147 97.1784 65.2581 101.484 65.2581C105.789 65.2581 109.29 61.8147 109.29 57.5806C109.29 53.3465 105.789 49.9032 101.484 49.9032C99.3311 49.9032 97.5805 48.1816 97.5805 46.0645C97.5805 43.9475 99.3311 42.2258 101.484 42.2258Z" fill="black"/>
<path d="M62.4515 42.2258C64.6041 42.2258 66.3547 43.9475 66.3547 46.0645H70.2579C70.2579 41.8304 66.7567 38.3871 62.4515 38.3871C58.1462 38.3871 54.645 41.8304 54.645 46.0645C54.645 50.2986 58.1462 53.7419 62.4515 53.7419C64.6041 53.7419 66.3547 55.4636 66.3547 57.5806C66.3547 59.6977 64.6041 61.4193 62.4515 61.4193C60.2988 61.4193 58.5482 59.6977 58.5482 57.5806H54.645C54.645 61.8147 58.1462 65.2581 62.4515 65.2581C66.7567 65.2581 70.2579 61.8147 70.2579 57.5806C70.2579 53.3465 66.7567 49.9032 62.4515 49.9032C60.2988 49.9032 58.5482 48.1816 58.5482 46.0645C58.5482 43.9475 60.2988 42.2258 62.4515 42.2258Z" fill="black"/>
<path d="M81.9676 47.7478L79.5886 38.3871H74.1611V63.3387H78.0644V48.2199L81.9676 63.5748L85.8708 48.2199V63.3387H89.774V38.3871H84.3466L81.9676 47.7478Z" fill="black"/>
<path d="M42.9357 107.484H27.3228V111.323H42.9357V107.484Z" fill="black"/>
<path d="M62.4516 80.6129H58.5483V84.4516H62.4516V80.6129Z" fill="black"/>
<path d="M54.6449 80.6129H50.7417V84.4516H54.6449V80.6129Z" fill="black"/>
<path d="M46.8388 80.6129H42.9355V84.4516H46.8388V80.6129Z" fill="black"/>
<path d="M39.0321 80.6129H35.1289V84.4516H39.0321V80.6129Z" fill="black"/>
</svg>
