<svg width="121" height="126" viewBox="0 0 121 126" fill="none" xmlns="http://www.w3.org/2000/svg">
<g clip-path="url(#clip0)">
<path d="M60.5003 0C59.7058 0 58.9186 0.0246094 58.1359 0.0762891C38.3365 1.35105 22.6016 18.521 22.6016 39.4464C22.6016 49.2901 26.1198 58.7254 32.5058 66.0097C38.4854 72.8315 46.4865 77.2267 55.1803 78.5039V120.463C55.1803 122.631 56.3861 124.514 58.1359 125.419C58.8498 125.791 59.6514 126 60.5003 126C63.4346 126 65.8201 123.514 65.8201 120.463V78.5039C74.5139 77.2267 82.515 72.8315 88.4946 66.0097C94.8809 58.7254 98.3988 49.2901 98.3988 39.4464C98.3988 17.6941 81.3967 0 60.5003 0V0ZM31.4679 39.4464C31.4679 22.7834 44.491 9.22852 60.5001 9.22852C76.5094 9.22852 89.5323 22.7834 89.5323 39.4464C89.5323 56.1069 76.5094 69.6642 60.5001 69.6642C44.491 69.6642 31.4679 56.1069 31.4679 39.4464Z" fill="#D9F0F4"/>
<path d="M98.3987 39.4464C98.3987 49.2901 94.8805 58.7254 88.4945 66.0097C82.5149 72.8315 74.5138 77.2267 65.8199 78.5039V120.463C65.8199 123.514 63.4342 126 60.5002 126C59.6513 126 58.8499 125.791 58.1357 125.419C59.8853 124.514 61.0913 122.631 61.0913 120.463V78.5039C69.7851 77.2267 77.7862 72.8315 83.7658 66.0097C90.1521 58.7254 93.67 49.2901 93.67 39.4464C93.67 18.521 77.9351 1.35105 58.1357 0.0762891C58.9185 0.0246094 59.7057 0 60.5002 0C81.3966 0 98.3987 17.6941 98.3987 39.4464Z" fill="#BAE1E5"/>
<path d="M104.861 29.5756V49.3148C104.861 52.354 102.487 54.8273 99.5672 54.8273H21.4905C18.5728 54.8273 16.1968 52.354 16.1968 49.3148V29.5756C16.1968 26.5363 18.5731 24.0656 21.4905 24.0656H99.5672C102.487 24.0656 104.861 26.5363 104.861 29.5756Z" fill="#4DD4F7"/>
<path d="M104.861 29.5756V49.3148C104.861 52.354 102.487 54.8273 99.5671 54.8273H94.8384C97.7608 54.8273 100.132 52.3589 100.132 49.3148V29.5756C100.132 26.5314 97.7606 24.0656 94.8384 24.0656H99.5671C102.487 24.0656 104.861 26.5363 104.861 29.5756Z" fill="#00C2F3"/>
<path d="M114.374 8.73511C114.374 7.71554 113.58 6.8894 112.601 6.8894H95.5359C94.5563 6.8894 93.7627 7.71554 93.7627 8.73511C93.7627 9.75467 94.5565 10.5808 95.5359 10.5808H112.601C113.58 10.5808 114.374 9.75467 114.374 8.73511Z" fill="#90ABBD"/>
<path d="M112.601 15.5027H105.006C104.026 15.5027 103.232 16.3288 103.232 17.3484C103.232 18.368 104.026 19.1941 105.006 19.1941H112.601C113.581 19.1941 114.375 18.368 114.375 17.3484C114.375 16.3288 113.581 15.5027 112.601 15.5027Z" fill="#90ABBD"/>
<path d="M24.5777 77.3293H8.39915C7.4198 77.3293 6.62598 78.1555 6.62598 79.175C6.62598 80.1946 7.4198 81.0208 8.39915 81.0208H24.5777C25.557 81.0208 26.3509 80.1946 26.3509 79.175C26.3509 78.1555 25.557 77.3293 24.5777 77.3293Z" fill="#90ABBD"/>
<path d="M8.39915 72.4075H15.995C16.9743 72.4075 17.7684 71.5813 17.7684 70.5618C17.7684 69.5422 16.9746 68.7161 15.995 68.7161H8.39915C7.4198 68.7161 6.62598 69.5422 6.62598 70.5618C6.62598 71.5813 7.4198 72.4075 8.39915 72.4075Z" fill="#90ABBD"/>
<path d="M45.8077 32.5131C44.9023 32.1255 43.8657 32.5741 43.4923 33.5164L40.9944 39.8263L38.4964 33.5164C38.2227 32.8249 37.5752 32.3738 36.8567 32.3738C36.1383 32.3738 35.4907 32.8249 35.2171 33.5164L32.7191 39.8263L30.2211 33.5164C29.8479 32.5739 28.8112 32.125 27.9058 32.5131C27.0004 32.9015 26.5687 33.9803 26.9418 34.9229L31.0795 45.374C31.3531 46.0655 32.0007 46.5166 32.7191 46.5166C33.4375 46.5166 34.0851 46.0655 34.3587 45.374L36.8567 39.0641L39.3547 45.374C39.6284 46.0655 40.2759 46.5166 40.9944 46.5166C41.7128 46.5166 42.3603 46.0655 42.634 45.374L46.7716 34.9229C47.1448 33.9803 46.713 32.9015 45.8077 32.5131Z" fill="white"/>
<path d="M69.4515 32.5131C68.5463 32.1253 67.5093 32.5741 67.1362 33.5164L64.6382 39.8263L62.1402 33.5164C61.8665 32.8249 61.2192 32.3738 60.5008 32.3738C59.7826 32.3738 59.1348 32.8249 58.8614 33.5164L56.3631 39.8263L53.8649 33.5164C53.4918 32.5739 52.4552 32.125 51.5498 32.5131C50.6445 32.9015 50.2127 33.9803 50.5859 34.9229L54.7235 45.374C54.9972 46.0655 55.6445 46.5166 56.3629 46.5166C57.0813 46.5166 57.7289 46.0655 58.0023 45.374L60.5005 39.0641L62.9985 45.374C63.2724 46.0655 63.9197 46.5166 64.6382 46.5166C65.3564 46.5166 66.0039 46.0655 66.2778 45.374L70.4154 34.9229C70.7886 33.9803 70.3571 32.9015 69.4515 32.5131Z" fill="white"/>
<path d="M93.0953 32.5132C92.1902 32.1254 91.1534 32.5743 90.78 33.5165L88.282 39.8264L85.784 33.5165C85.5101 32.825 84.8628 32.3739 84.1444 32.3739C83.4262 32.3739 82.7786 32.825 82.5047 33.5165L80.0067 39.8264L77.5087 33.5165C77.1353 32.574 76.0986 32.1256 75.1934 32.5132C74.2878 32.9016 73.8563 33.9804 74.2294 34.923L78.3671 45.3741C78.641 46.0656 79.2883 46.5167 80.0067 46.5167C80.7249 46.5167 81.3725 46.0656 81.6464 45.3741L84.1444 39.0642L86.6424 45.3741C86.9163 46.0656 87.5636 46.5167 88.282 46.5167C89.0002 46.5167 89.6477 46.0656 89.9216 45.3741L94.0593 34.923C94.4322 33.9804 94.0007 32.9016 93.0953 32.5132Z" fill="white"/>
<path d="M121 84.8924V115.078C121 115.78 120.617 116.422 120.014 116.732C119.766 116.862 119.496 116.924 119.227 116.924C118.848 116.924 118.47 116.798 118.156 116.547L116.271 115.056L108.809 109.145H85.8227C82.8365 109.145 80.4082 106.613 80.4082 103.502V84.8924C80.4082 81.7818 82.8365 79.2495 85.8227 79.2495H115.586C118.572 79.2495 121 81.7818 121 84.8924Z" fill="#3769FF" fill-opacity="0.72"/>
<path d="M121 84.8924V115.078C121 115.78 120.617 116.422 120.014 116.732C119.766 116.862 119.497 116.924 119.227 116.924C118.849 116.924 118.47 116.798 118.156 116.547L116.271 115.056V84.8924C116.271 81.7818 113.843 79.2495 110.857 79.2495H115.586C118.572 79.2495 121 81.7818 121 84.8924Z" fill="#00F0FF" fill-opacity="0.47"/>
<path d="M91.2644 88.0297H110.144C111.123 88.0297 111.917 88.856 111.917 89.8754C111.917 90.8947 111.123 91.7211 110.144 91.7211H91.2644C90.2855 91.7211 89.4917 90.8947 89.4917 89.8754C89.4917 88.856 90.2855 88.0297 91.2644 88.0297Z" fill="white"/>
<path d="M93.6243 96.3969H110.144C111.123 96.3969 111.917 97.2232 111.917 98.2426C111.917 99.2619 111.123 100.088 110.144 100.088H93.6243C92.6454 100.088 91.8516 99.2619 91.8516 98.2426C91.8516 97.2232 92.6451 96.3969 93.6243 96.3969Z" fill="white"/>
<path d="M40.5929 93.9671V112.577C40.5929 115.687 38.1632 118.22 35.1782 118.22H12.191L2.84588 125.622C2.53156 125.873 2.15344 125.999 1.77295 125.999C1.50353 125.999 1.23412 125.937 0.985976 125.807C0.38334 125.497 0.000488281 124.854 0.000488281 124.153V93.9671C0.000488281 90.8565 2.43018 88.3242 5.41524 88.3242H35.1784C38.1632 88.3242 40.5929 90.8565 40.5929 93.9671Z" fill="#FFB9B9"/>
<path d="M40.593 93.9671V112.577C40.593 115.687 38.1633 118.22 35.1782 118.22H30.4512C33.4362 118.22 35.8659 115.687 35.8659 112.577V93.9671C35.8659 90.8565 33.4362 88.3242 30.4512 88.3242H35.1782C38.1633 88.3242 40.593 90.8565 40.593 93.9671Z" fill="#FF02E6" fill-opacity="0.57"/>
<path d="M29.7365 97.1034H10.8567C9.87781 97.1034 9.08398 97.9298 9.08398 98.9491C9.08398 99.9684 9.87757 100.795 10.8567 100.795H29.7365C30.7153 100.795 31.5092 99.9684 31.5092 98.9491C31.5092 97.9298 30.7153 97.1034 29.7365 97.1034Z" fill="white"/>
<path d="M27.3765 105.471H10.8567C9.87781 105.471 9.08398 106.297 9.08398 107.316C9.08398 108.336 9.87757 109.162 10.8567 109.162H27.3765C28.3554 109.162 29.1492 108.336 29.1492 107.316C29.1492 106.297 28.3556 105.471 27.3765 105.471Z" fill="white"/>
</g>
<defs>
<clipPath id="clip0">
<rect width="121" height="126" fill="white"/>
</clipPath>
</defs>
</svg>
