<svg width="89" height="80" viewBox="0 0 89 80" fill="none" xmlns="http://www.w3.org/2000/svg">
<path d="M82.0334 6.08997H6.9668C4.0809 6.08997 1.7417 8.19247 1.7417 10.7867V54.497C1.7417 57.0911 4.08073 59.1937 6.9668 59.1937H82.0333C84.9193 59.1937 87.2584 57.0912 87.2584 54.497V10.7867C87.2584 8.19247 84.9193 6.08997 82.0334 6.08997ZM79.3163 49.7753C79.3163 50.879 78.3219 51.7729 77.0939 51.7729H11.9063C10.6784 51.7729 9.68391 50.879 9.68391 49.7753V15.5084C9.68391 14.4047 10.6784 13.5107 11.9063 13.5107H77.0939C78.3219 13.5107 79.3163 14.4047 79.3163 15.5084V49.7753Z" fill="#CCF5FC"/>
<path d="M9.68457 49.7797V15.504C9.68457 14.4034 10.6771 13.5112 11.9016 13.5112H77.0986C78.323 13.5112 79.3156 14.4034 79.3156 15.504V49.7797C79.3156 50.8803 78.323 51.7725 77.0986 51.7725H11.9016C10.6771 51.7723 9.68457 50.8801 9.68457 49.7797Z" fill="#FFCCD9" fill-opacity="0.71"/>
<path d="M55.157 73.9108H33.8433C31.9232 73.9108 30.3667 72.5117 30.3667 70.7857V70.7736C30.3667 69.0476 31.9232 67.6486 33.8433 67.6486H55.1572C57.0773 67.6486 58.6338 69.0476 58.6338 70.7736V70.7857C58.6336 72.5115 57.0771 73.9108 55.157 73.9108Z" fill="#66E0F7"/>
<path d="M37.1535 59.1937L34.4355 67.6484H54.5649L51.8469 59.1937H37.1535Z" fill="#66E0F7"/>
<path d="M30.061 29.344H20.6826C19.2426 29.344 18.0752 28.2946 18.0752 27.0002V21.799C18.0752 20.5046 19.2426 19.4552 20.6826 19.4552H30.061C31.501 19.4552 32.6684 20.5046 32.6684 21.799V27.0002C32.6684 28.2946 31.5012 29.344 30.061 29.344Z" fill="#FF9EB1"/>
<path d="M57.0942 31.4487L60.5202 42.9415L62.737 40.9489L68.6164 46.2339L73.5427 41.8058L67.6632 36.5208L69.88 34.5283L57.0942 31.4487Z" fill="#ECF3F3"/>
<path d="M25.3717 44.7259C28.4096 44.7259 30.8723 42.5122 30.8723 39.7815C30.8723 37.0508 28.4096 34.8372 25.3717 34.8372C22.3338 34.8372 19.8711 37.0508 19.8711 39.7815C19.8711 42.5122 22.3338 44.7259 25.3717 44.7259Z" fill="#D1AEE4"/>
<path d="M44.5 53.6173C45.46 53.6173 46.2383 52.9178 46.2383 52.0548C46.2383 51.1919 45.46 50.4923 44.5 50.4923C43.54 50.4923 42.7617 51.1919 42.7617 52.0548C42.7617 52.9178 43.54 53.6173 44.5 53.6173Z" fill="black"/>
<path d="M82.0333 4.52368H6.96668C3.12526 4.52368 0 7.3329 0 10.7859V54.4977C0 57.9507 3.12526 60.7599 6.96668 60.7599H34.9255L32.9759 66.1498C30.5094 66.5248 28.6246 68.4574 28.6246 70.7795C28.6246 73.3692 30.9685 75.4762 33.8497 75.4762H55.1499C58.031 75.4762 60.375 73.3693 60.375 70.7795C60.375 68.4574 58.4902 66.5248 56.0238 66.1498L54.0741 60.7599H82.033C85.8744 60.7599 88.9996 57.9507 88.9996 54.4977V10.7859C89 7.3329 85.8747 4.52368 82.0333 4.52368ZM56.8919 70.7796C56.8919 71.6429 56.1105 72.3453 55.1501 72.3453H33.8499C32.8897 72.3453 32.1081 71.6429 32.1081 70.7796C32.1081 69.9163 32.8895 69.214 33.8499 69.214H55.1501C56.1105 69.214 56.8919 69.9163 56.8919 70.7796ZM52.3369 66.0829H36.6631L38.5885 60.7599H50.4115L52.3369 66.0829ZM85.5167 54.4977C85.5167 56.2242 83.9541 57.6288 82.0333 57.6288H6.96668C5.04588 57.6288 3.48334 56.2242 3.48334 54.4977V10.7859C3.48334 9.05946 5.04588 7.65478 6.96668 7.65478H82.0331C83.9539 7.65478 85.5165 9.05946 85.5165 10.7859V54.4977H85.5167Z" fill="black"/>
<path d="M76.7028 11.6633H12.2971C9.89618 11.6633 7.94287 13.4191 7.94287 15.5772V49.7065C7.94287 51.8646 9.89618 53.6204 12.2971 53.6204H36.6928C37.6546 53.6204 38.4346 52.9194 38.4346 52.0547C38.4346 51.19 37.6548 50.4891 36.6928 50.4891H12.2971C11.817 50.4891 11.4262 50.1379 11.4262 49.7063V15.5772C11.4262 15.1457 11.817 14.7944 12.2971 14.7944H76.703C77.1831 14.7944 77.5739 15.1457 77.5739 15.5772V49.7065C77.5739 50.138 77.1831 50.4893 76.703 50.4893H52.3071C51.3453 50.4893 50.5654 51.1902 50.5654 52.0549C50.5654 52.9196 51.3451 53.6205 52.3071 53.6205H76.7028C79.1038 53.6205 81.0571 51.8647 81.0571 49.7066V15.5772C81.0571 13.4191 79.1038 11.6633 76.7028 11.6633Z" fill="black"/>
<path d="M34.4101 26.9957V21.8037C34.4101 19.6456 32.4568 17.8898 30.0558 17.8898H20.6877C18.2868 17.8898 16.3335 19.6456 16.3335 21.8037V26.9957C16.3335 29.1538 18.2868 30.9096 20.6877 30.9096H30.0558C32.4568 30.9095 34.4101 29.1538 34.4101 26.9957ZM30.9267 26.9957C30.9267 27.4273 30.536 27.7785 30.0558 27.7785H20.6877C20.2076 27.7785 19.8168 27.4273 19.8168 26.9957V21.8037C19.8168 21.3721 20.2076 21.0209 20.6877 21.0209H30.0558C30.536 21.0209 30.9267 21.3721 30.9267 21.8037V26.9957Z" fill="black"/>
<path d="M71.5618 34.1229C71.4007 33.5827 70.9314 33.1605 70.3303 33.0159L57.5445 29.9365C56.9431 29.7913 56.3022 29.9462 55.8622 30.3416C55.4223 30.7371 55.2503 31.3137 55.4115 31.854L58.8373 43.3468C58.9984 43.8869 59.4678 44.309 60.0689 44.4538C60.6705 44.5988 61.3112 44.444 61.7512 44.0487L62.7364 43.163L67.3844 47.341C67.7112 47.6346 68.1541 47.7994 68.616 47.7994C69.0778 47.7994 69.5208 47.6344 69.8475 47.3408L74.7738 42.9127C75.454 42.3013 75.454 41.3101 74.7738 40.6987L70.1257 36.5209L71.1109 35.6352C71.5511 35.2396 71.723 34.6632 71.5618 34.1229ZM71.0791 41.8057L68.6161 44.0198L63.9682 39.8418C63.628 39.5362 63.1823 39.3834 62.7366 39.3834C62.2909 39.3834 61.8452 39.5362 61.505 39.8418L61.4214 39.9171L59.5569 33.6627L66.5149 35.3387L66.4313 35.4138C65.7511 36.0252 65.7511 37.0165 66.4313 37.6279L71.0791 41.8057Z" fill="black"/>
<path d="M38.6119 22.834H49.3548C50.3166 22.834 51.0966 22.1331 51.0966 21.2684C51.0966 20.4037 50.3168 19.7028 49.3548 19.7028H38.6119C37.6501 19.7028 36.8701 20.4037 36.8701 21.2684C36.8701 22.1331 37.6501 22.834 38.6119 22.834Z" fill="black"/>
<path d="M38.6119 29.0962H49.3548C50.3166 29.0962 51.0966 28.3953 51.0966 27.5306C51.0966 26.6659 50.3168 25.965 49.3548 25.965H38.6119C37.6501 25.965 36.8701 26.6659 36.8701 27.5306C36.8701 28.3953 37.6501 29.0962 38.6119 29.0962Z" fill="black"/>
<path d="M38.6119 38.0616H49.3548C50.3166 38.0616 51.0966 37.3606 51.0966 36.4959C51.0966 35.6312 50.3168 34.9303 49.3548 34.9303H38.6119C37.6501 34.9303 36.8701 35.6312 36.8701 36.4959C36.8703 37.3606 37.6501 38.0616 38.6119 38.0616Z" fill="black"/>
<path d="M51.0966 42.7581C51.0966 41.8934 50.3168 41.1925 49.3548 41.1925H38.6119C37.6501 41.1925 36.8701 41.8934 36.8701 42.7581C36.8701 43.6228 37.6499 44.3238 38.6119 44.3238H49.3548C50.3168 44.3236 51.0966 43.6227 51.0966 42.7581Z" fill="black"/>
<path d="M18.1294 39.7815C18.1294 43.371 21.3782 46.2913 25.3716 46.2913C29.365 46.2913 32.6138 43.371 32.6138 39.7815C32.6138 36.1918 29.365 33.2715 25.3716 33.2715C21.3782 33.2715 18.1294 36.192 18.1294 39.7815ZM29.1305 39.7815C29.1305 41.6446 27.4441 43.1602 25.3716 43.1602C23.299 43.1602 21.6127 41.6445 21.6127 39.7815C21.6127 37.9184 23.299 36.4026 25.3716 36.4026C27.4441 36.4026 29.1305 37.9184 29.1305 39.7815Z" fill="black"/>
</svg>
