<svg width="89" height="80" viewBox="0 0 89 80" fill="none" xmlns="http://www.w3.org/2000/svg">
<path d="M86.2188 5V17.5H2.78125V5C2.78125 3.625 4.03281 2.5 5.5625 2.5H83.4375C84.9672 2.5 86.2188 3.625 86.2188 5Z" fill="#84D9EF"/>
<path d="M41.7188 55L40.3281 60H26.4219V49.775C29.6759 49.2375 32.5823 47.7625 34.7656 45.675V46.3C34.7656 49.375 36.5595 52.2125 39.4937 53.8L41.7188 55Z" fill="#FFEAA7"/>
<path d="M2.78125 17.5V60C2.78125 61.375 4.03281 62.5 5.5625 62.5H83.4375C84.9672 62.5 86.2188 61.375 86.2188 60V57.5V17.5H2.78125Z" fill="#FFB8B8"/>
<path d="M58.4062 7.5H80.6562V12.5H58.4062V7.5Z" fill="#E6E9ED"/>
<path d="M30.5938 7.5H36.1562V12.5H30.5938V7.5Z" fill="#E6E9ED"/>
<path d="M19.4688 7.5H25.0312V12.5H19.4688V7.5Z" fill="#E6E9ED"/>
<path d="M8.34375 7.5H13.9062V12.5H8.34375V7.5Z" fill="#E6E9ED"/>
<path d="M23.6406 22.5C32.0956 22.5 38.9375 28.65 38.9375 36.25H23.6406V22.5Z" fill="#E6E9ED"/>
<path d="M23.6406 22.5V36.25L22.25 37.5C19.9416 37.5 18.0781 39.175 18.0781 41.25L12.8355 45.9625C10.0542 43.4875 8.34375 40.05 8.34375 36.25C8.34375 28.65 15.1856 22.5 23.6406 22.5Z" fill="#FF826E"/>
<path d="M18.0781 47.5V49.0625C16.0895 48.3625 14.3095 47.3125 12.8354 45.9625L18.0781 41.25V47.5Z" fill="#5CD6B3"/>
<path d="M23.6406 36.25H38.9375C38.9375 36.725 38.9097 37.1875 38.8541 37.65L38.868 37.675V37.6875C36.5039 38.25 34.7656 40.1875 34.7656 42.5V45.675C32.5823 47.7625 29.6759 49.2375 26.4219 49.775V47.5L28.3827 45.7375C28.9111 45.2625 29.2031 44.625 29.2031 43.9625V43.75C29.2031 43.0625 28.8972 42.4375 28.3827 41.9875C27.882 41.525 27.1867 41.25 26.4219 41.25C26.4358 39.1875 24.5863 37.5 22.2917 37.5H22.25L23.6406 36.25Z" fill="#5CD6B3"/>
<path d="M28.3827 41.9875C28.8972 42.4375 29.2031 43.0625 29.2031 43.75V43.9625C29.2031 44.625 28.9111 45.2625 28.3827 45.7375L26.4219 47.5H18.0781V41.25C18.0781 39.175 19.9416 37.5 22.25 37.5H22.2917C24.5863 37.5 26.4358 39.1875 26.4219 41.25C27.1867 41.25 27.882 41.525 28.3827 41.9875Z" fill="#F0D0B4"/>
<path d="M54.2344 77.5H34.7656V67.5L24.4472 66.725C21.6242 66.525 19.3019 64.8 18.4536 62.5C18.2033 61.875 18.0781 61.2 18.0781 60.5V49.0625V47.5H26.4219V49.775V60H40.3281H48.6719H54.2344C56.6958 60 58.9208 60.9625 60.4505 62.5C61.7716 63.825 62.5781 65.575 62.5781 67.5V77.5H54.2344Z" fill="#4FC1E9"/>
<path d="M47.2812 55L48.6719 60H40.3281L41.7188 55H47.2812Z" fill="#3BAFDA"/>
<path d="M34.7656 45.675V42.5C34.7656 40.1875 36.5039 38.25 38.868 37.6875V37.675C39.3269 37.5625 39.8275 37.5 40.3281 37.5H44.5H48.6719C51.7452 37.5 54.2344 39.7375 54.2344 42.5V46.3C54.2344 49.375 52.4405 52.2125 49.5062 53.8L47.2812 55H41.7188L39.4937 53.8C36.5595 52.2125 34.7656 49.375 34.7656 46.3V45.675Z" fill="#B27946"/>
<path d="M83.4375 1.25H5.5625C3.26241 1.25 1.39062 2.9325 1.39062 5V60C1.39062 62.0675 3.26241 63.75 5.5625 63.75H17.5622C18.8221 66.06 21.3391 67.7475 24.3387 67.9725L33.375 68.65V78.75H63.9688V67.5C63.9688 66.1575 63.6197 64.8887 63.0162 63.75H83.4375C85.7376 63.75 87.6094 62.0675 87.6094 60V5C87.6094 2.9325 85.7376 1.25 83.4375 1.25ZM5.5625 3.75H83.4375C84.2051 3.75 84.8281 4.31 84.8281 5V16.25H4.17188V5C4.17188 4.31 4.79487 3.75 5.5625 3.75ZM33.375 42.5V45.1625C31.8078 46.5425 29.8915 47.5738 27.8125 48.165V48.0175L29.3714 46.6162C30.1599 45.9087 30.5938 44.9663 30.5938 43.965V43.75C30.5938 42.08 29.3742 40.6613 27.6929 40.1788C27.476 39.2563 26.9684 38.4075 26.2119 37.72C26.1201 37.6375 26.013 37.5762 25.9171 37.5H36.2007C34.4958 38.64 33.375 40.4487 33.375 42.5ZM22.2875 38.75C23.0246 38.75 23.7157 39.0088 24.2344 39.48C24.7545 39.9512 25.0368 40.5763 25.0299 41.2388L25.0187 42.5H26.4219C27.1895 42.5 27.8125 43.06 27.8125 43.75V43.965C27.8125 44.2938 27.6651 44.6163 27.405 44.8488L25.8462 46.25H19.4688V41.25C19.4688 39.8713 20.7161 38.75 22.2875 38.75ZM27.8125 50.77C29.9054 50.2825 31.8815 49.4212 33.617 48.2575C34.2316 50.9825 36.0798 53.4175 38.7748 54.87L40.1195 55.595L39.2434 58.75H27.8125V50.77ZM42.8034 56.25H46.1952L46.8905 58.75H42.1081L42.8034 56.25ZM46.896 53.75H42.1053L40.2085 52.7275C37.7082 51.38 36.1562 48.9162 36.1562 46.2962V42.5C36.1562 40.4325 38.028 38.75 40.3281 38.75H48.6719C50.972 38.75 52.8438 40.4325 52.8438 42.5V46.2962C52.8438 48.9162 51.2918 51.3787 48.7929 52.7275L46.896 53.75ZM25.0312 35V23.8138C31.5908 24.4025 36.8224 29.1038 37.476 35H25.0312ZM22.25 35.7325L21.6089 36.3088C19.0585 36.5763 17.0491 38.3825 16.7515 40.675L12.8633 44.17C10.8789 41.99 9.73438 39.2225 9.73438 36.25C9.73438 29.78 15.2329 24.4425 22.25 23.8138V35.7325ZM16.6875 44.2675V47.0813C16.0297 46.7425 15.4123 46.3563 14.8338 45.9338L16.6875 44.2675ZM61.1875 76.25H55.625V66.25H52.8438V76.25H36.1562V66.35L24.5696 65.4825C21.709 65.2675 19.4688 63.0787 19.4688 60.4987V48.75H25.0312V59.2275L23.019 60.1325L24.2636 62.3688L26.7501 61.25H54.2344C58.0683 61.25 61.1875 64.0537 61.1875 67.5V76.25ZM83.4375 61.25H61.0331C59.2768 59.7062 56.878 58.75 54.2344 58.75H49.7566L48.8791 55.5963L50.2238 54.8713C53.5558 53.075 55.625 49.7887 55.625 46.2962V42.5C55.625 39.0537 52.5058 36.25 48.6719 36.25H40.3281C40.3281 27.9788 32.8424 21.25 23.6406 21.25C14.4389 21.25 6.95312 27.9788 6.95312 36.25C6.95312 42.185 10.7454 47.44 16.6875 49.8812V60.4987C16.6875 60.755 16.739 61 16.7682 61.25H5.5625C4.79487 61.25 4.17188 60.69 4.17188 60V18.75H84.8281V60C84.8281 60.69 84.2051 61.25 83.4375 61.25Z" fill="black"/>
<path d="M15.2969 6.25H6.95312V13.75H15.2969V6.25ZM12.5156 11.25H9.73438V8.75H12.5156V11.25Z" fill="black"/>
<path d="M26.4219 6.25H18.0781V13.75H26.4219V6.25ZM23.6406 11.25H20.8594V8.75H23.6406V11.25Z" fill="black"/>
<path d="M37.5469 6.25H29.2031V13.75H37.5469V6.25ZM34.7656 11.25H31.9844V8.75H34.7656V11.25Z" fill="black"/>
<path d="M82.0469 6.25H57.0156V13.75H82.0469V6.25ZM79.2656 11.25H59.7969V8.75H79.2656V11.25Z" fill="black"/>
<path d="M79.2656 38.75H76.4844V56.25H73.7031V46.25H70.9219V56.25H68.1406V41.25H65.3594V56.25H62.5781V36.25H59.7969V58.75H82.0469V56.25H79.2656V38.75Z" fill="black"/>
<path d="M59.7969 21.25H82.0469V23.75H59.7969V21.25Z" fill="black"/>
<path d="M59.7969 26.25H62.5781V28.75H59.7969V26.25Z" fill="black"/>
<path d="M65.3594 26.25H82.0469V28.75H65.3594V26.25Z" fill="black"/>
<path d="M59.7969 31.25H82.0469V33.75H59.7969V31.25Z" fill="black"/>
</svg>
