<svg width="89" height="80" viewBox="0 0 89 80" fill="none" xmlns="http://www.w3.org/2000/svg">
<g clip-path="url(#clip0)">
<rect width="89" height="80" fill="white"/>
<path d="M32.0146 65.2673H56.8823V74.519H32.0146V65.2673Z" fill="#5A5A5A"/>
<path d="M84.3338 66.5631H4.56367C2.04316 66.5631 0 64.7266 0 62.4609V4.10217C0 1.83655 2.04316 0 4.56367 0H84.3338C86.8543 0 88.8975 1.83655 88.8975 4.10217V62.4609C88.8975 64.7266 86.8543 66.5631 84.3338 66.5631Z" fill="#FFCCD9"/>
<path d="M88.8982 4.10303V62.4612C88.8982 64.7268 86.855 66.5633 84.3345 66.5633H78.7598C81.2803 66.5633 83.3234 64.7268 83.3234 62.4612V4.10303C83.3234 1.8374 81.2803 0.000854492 78.7598 0.000854492H84.3345C86.855 0.000854492 88.8982 1.8374 88.8982 4.10303Z" fill="#FFB8B8"/>
<path d="M88.8975 56.6803H0V62.4609C0 64.7266 2.04316 66.5631 4.56367 66.5631H84.3338C86.8543 66.5631 88.8975 64.7266 88.8975 62.4609V56.6803Z" fill="#838383"/>
<path d="M88.8982 56.6797V62.4609C88.8982 64.7266 86.855 66.5631 84.3345 66.5631H78.7598C81.2803 66.5631 83.3234 64.7266 83.3234 62.4609V56.6797H88.8982Z" fill="#5A5A5A"/>
<path d="M88.9978 13.9941H0.0976562V4.10217C0.0976562 1.83655 2.14082 0 4.66064 0H84.4342C86.9547 0 88.9978 1.83655 88.9978 4.10217V13.9941Z" fill="#ACACAC"/>
<path d="M88.9997 4.10181V13.995H83.3232V4.10181C83.3232 1.8374 81.28 0.000854492 78.7588 0.000854492H84.4361C86.9566 0.000854492 88.9997 1.8374 88.9997 4.10181Z" fill="#9C9C9C"/>
<path d="M64.9415 79.9103H23.9568C23.4631 79.9103 23.0625 79.5502 23.0625 79.1064V76.5009C23.0625 74.7339 24.6562 73.3014 26.6219 73.3014H62.2764C64.2421 73.3014 65.8358 74.7339 65.8358 76.5009V79.1064C65.8358 79.5502 65.4352 79.9103 64.9415 79.9103Z" fill="#838383"/>
<path d="M65.835 76.5002V79.1071C65.835 79.5508 65.4344 79.9109 64.9401 79.9109H61.7827V76.5002C61.7827 74.7345 60.189 73.3014 58.2246 73.3014H62.277C64.2421 73.3014 65.835 74.7339 65.835 76.5002Z" fill="#5A5A5A"/>
<path d="M10.1649 29.1406C9.83145 29.1406 9.49738 29.0264 9.24275 28.7975L5.03624 25.0158C4.52698 24.5587 4.52698 23.8165 5.03624 23.3587L9.24275 19.5776C9.75201 19.1198 10.5777 19.1198 11.087 19.5776C11.5962 20.0353 11.5962 20.7769 11.087 21.2347L7.80188 24.1876L11.087 27.1404C11.5962 27.5982 11.5962 28.3398 11.087 28.7975C10.8323 29.0264 10.4982 29.1406 10.1649 29.1406Z" fill="#838383"/>
<path d="M20.222 29.1397C19.8886 29.1397 19.5545 29.0256 19.2999 28.7967C18.7907 28.3389 18.7907 27.5967 19.2999 27.1396L22.585 24.1867L19.2999 21.2338C18.7907 20.7761 18.7907 20.0339 19.2999 19.5767C19.8092 19.119 20.6349 19.119 21.1441 19.5767L25.3506 23.3578C25.8599 23.8156 25.8599 24.5578 25.3506 25.0149L21.1441 28.7967C20.8895 29.0256 20.5554 29.1397 20.222 29.1397Z" fill="#838383"/>
<path d="M13.684 29.14C13.5251 29.14 13.3642 29.1138 13.2073 29.0583C12.5371 28.8221 12.2071 28.1415 12.4706 27.5391L15.776 19.9762C16.0395 19.3744 16.7966 19.0772 17.4661 19.314C18.1363 19.5508 18.4663 20.2314 18.2028 20.8338L14.8974 28.396C14.6957 28.8581 14.2041 29.14 13.684 29.14Z" fill="#838383"/>
<path d="M15.7568 36.2158H6.71777C5.99802 36.2158 5.41406 35.6909 5.41406 35.0439C5.41406 34.3964 5.99802 33.8721 6.71777 33.8721H15.7568C16.4773 33.8721 17.0605 34.3964 17.0605 35.0439C17.0605 35.6909 16.4773 36.2158 15.7568 36.2158Z" fill="#838383"/>
<path d="M36.5769 36.2158H20.6846C19.9648 36.2158 19.3809 35.6909 19.3809 35.0439C19.3809 34.3964 19.9648 33.8721 20.6846 33.8721H36.5769C37.2974 33.8721 37.8806 34.3964 37.8806 35.0439C37.8806 35.6909 37.2974 36.2158 36.5769 36.2158Z" fill="#838383"/>
<path d="M10.5685 41.3025H6.71777C5.99802 41.3025 5.41406 40.7782 5.41406 40.1306C5.41406 39.4836 5.99802 38.9587 6.71777 38.9587H10.5685C11.2889 38.9587 11.8722 39.4836 11.8722 40.1306C11.8722 40.7782 11.2882 41.3025 10.5685 41.3025Z" fill="#838383"/>
<path d="M34.0123 41.3025H31.667C30.9472 41.3025 30.3633 40.7782 30.3633 40.1306C30.3633 39.4836 30.9472 38.9587 31.667 38.9587H34.0123C34.7321 38.9587 35.316 39.4836 35.316 40.1306C35.316 40.7782 34.7321 41.3025 34.0123 41.3025Z" fill="#838383"/>
<path d="M26.7938 41.3025H15.2764C14.5559 41.3025 13.9727 40.7782 13.9727 40.1306C13.9727 39.4836 14.5559 38.9587 15.2764 38.9587H26.7938C27.5143 38.9587 28.0976 39.4836 28.0976 40.1306C28.0976 40.7782 27.5136 41.3025 26.7938 41.3025Z" fill="#838383"/>
<path d="M42.6601 41.3025H38.2676C37.5478 41.3025 36.9639 40.7782 36.9639 40.1306C36.9639 39.4836 37.5478 38.9587 38.2676 38.9587H42.6601C43.3799 38.9587 43.9639 39.4836 43.9639 40.1306C43.9639 40.7782 43.3799 41.3025 42.6601 41.3025Z" fill="#838383"/>
<path d="M34.2511 25.119H29.6182C28.8977 25.119 28.3145 24.5947 28.3145 23.9471C28.3145 23.3002 28.8977 22.7753 29.6182 22.7753H34.2511C34.9715 22.7753 35.5548 23.3002 35.5548 23.9471C35.5548 24.5947 34.9715 25.119 34.2511 25.119Z" fill="#838383"/>
<path d="M67.7069 25.119H39.4395C38.7197 25.119 38.1357 24.5947 38.1357 23.9471C38.1357 23.3002 38.7197 22.7753 39.4395 22.7753H67.7069C68.4267 22.7753 69.0106 23.3002 69.0106 23.9471C69.0106 24.5947 68.4267 25.119 67.7069 25.119Z" fill="#838383"/>
<path d="M63.4125 30.4261H51.9629C51.2425 30.4261 50.6592 29.9019 50.6592 29.2543C50.6592 28.6073 51.2425 28.0824 51.9629 28.0824H63.4125C64.1329 28.0824 64.7162 28.6073 64.7162 29.2543C64.7162 29.9019 64.1329 30.4261 63.4125 30.4261Z" fill="#838383"/>
<path d="M47.6687 30.4261H43.7324C43.0127 30.4261 42.4287 29.9019 42.4287 29.2543C42.4287 28.6073 43.0127 28.0824 43.7324 28.0824H47.6687C48.3891 28.0824 48.9724 28.6073 48.9724 29.2543C48.9724 29.9019 48.3891 30.4261 47.6687 30.4261Z" fill="#838383"/>
<path d="M39.2606 30.4261H29.6172C28.8974 30.4261 28.3135 29.9019 28.3135 29.2543C28.3135 28.6073 28.8974 28.0824 29.6172 28.0824H39.2606C39.9803 28.0824 40.5643 28.6073 40.5643 29.2543C40.5643 29.9019 39.9803 30.4261 39.2606 30.4261Z" fill="#838383"/>
<path d="M26.8105 46.347H17.7715C17.051 46.347 16.4678 45.8221 16.4678 45.1752C16.4678 44.5276 17.051 44.0033 17.7715 44.0033H26.8105C27.531 44.0033 28.1143 44.5276 28.1143 45.1752C28.1143 45.8221 27.531 46.347 26.8105 46.347Z" fill="#838383"/>
<path d="M13.6628 46.347H6.71777C5.99802 46.347 5.41406 45.8221 5.41406 45.1752C5.41406 44.5276 5.99802 44.0033 6.71777 44.0033H13.6628C14.3825 44.0033 14.9665 44.5276 14.9665 45.1752C14.9665 45.8221 14.3825 46.347 13.6628 46.347Z" fill="#838383"/>
<path d="M43.1961 46.347H31.3887C30.6682 46.347 30.085 45.8221 30.085 45.1752C30.085 44.5276 30.6682 44.0033 31.3887 44.0033H43.1961C43.9165 44.0033 44.4998 44.5276 44.4998 45.1752C44.4998 45.8221 43.9165 46.347 43.1961 46.347Z" fill="#838383"/>
<path d="M51.5684 41.1548H80.6241V49.9994H51.5684V41.1548Z" fill="#64DCFC"/>
<path d="M51.5684 54.8236H80.6241V63.0255H51.5684V54.8236Z" fill="#64DCFC"/>
<path d="M77.1885 41.1548H80.6243V49.9994H77.1885V41.1548Z" fill="#00D1FC"/>
<path d="M77.1885 54.8236H80.6243V63.0255H77.1885V54.8236Z" fill="#00D1FC"/>
<path d="M83.0304 43.0762H49.1631C48.4468 43.0762 47.8662 42.5543 47.8662 41.9104V36.0486C47.8662 35.4047 48.4468 34.8828 49.1631 34.8828H83.0304C83.7468 34.8828 84.3273 35.4047 84.3273 36.0486V41.9104C84.3273 42.5543 83.7468 43.0762 83.0304 43.0762Z" fill="#0396FD"/>
<path d="M83.0304 56.2201H49.1631C48.4468 56.2201 47.8662 55.6982 47.8662 55.0543V49.1925C47.8662 48.5486 48.4468 48.0267 49.1631 48.0267H83.0304C83.7468 48.0267 84.3273 48.5486 84.3273 49.1925V55.0543C84.3273 55.6982 83.7468 56.2201 83.0304 56.2201Z" fill="#0396FD"/>
<path d="M83.0304 69.364H49.1631C48.4468 69.364 47.8662 68.8422 47.8662 68.1982V62.3364C47.8662 61.6925 48.4468 61.1707 49.1631 61.1707H83.0304C83.7468 61.1707 84.3273 61.6925 84.3273 62.3364V68.1982C84.3273 68.8422 83.7468 69.364 83.0304 69.364Z" fill="#0396FD"/>
<path d="M84.3268 36.0486V41.9104C84.3268 42.5537 83.7469 43.0762 83.0299 43.0762H80.0205C80.7382 43.0762 81.3174 42.5537 81.3174 41.9104V36.0486C81.3174 35.4053 80.7382 34.8828 80.0205 34.8828H83.0299C83.7469 34.8828 84.3268 35.4053 84.3268 36.0486Z" fill="#0077F0"/>
<path d="M84.3268 49.1919V55.0537C84.3268 55.6988 83.7469 56.2201 83.0299 56.2201H80.0205C80.7382 56.2201 81.3174 55.6988 81.3174 55.0537V49.1919C81.3174 48.5486 80.7382 48.0261 80.0205 48.0261H83.0299C83.7469 48.0261 84.3268 48.5486 84.3268 49.1919Z" fill="#0077F0"/>
<path d="M84.3268 62.337V68.1989C84.3268 68.8422 83.7469 69.3646 83.0299 69.3646H80.0205C80.7382 69.3646 81.3174 68.8422 81.3174 68.1989V62.337C81.3174 61.6925 80.7382 61.1713 80.0205 61.1713H83.0299C83.7469 61.1713 84.3268 61.6925 84.3268 62.337Z" fill="#0077F0"/>
<path d="M59.1648 40.1514H52.708C51.9883 40.1514 51.4043 39.6271 51.4043 38.9795C51.4043 38.3325 51.9883 37.8076 52.708 37.8076H59.1654C59.8852 37.8076 60.4692 38.3325 60.4692 38.9795C60.4692 39.6271 59.8852 40.1514 59.1648 40.1514Z" fill="#E7E7E7"/>
<path d="M79.4849 40.1514H70.3691C69.6494 40.1514 69.0654 39.6271 69.0654 38.9795C69.0654 38.3325 69.6494 37.8076 70.3691 37.8076H79.4843C80.2047 37.8076 80.788 38.3325 80.788 38.9795C80.788 39.6271 80.2047 40.1514 79.4849 40.1514Z" fill="#E7E7E7"/>
<path d="M65.812 40.1514H63.7227C63.0029 40.1514 62.4189 39.6271 62.4189 38.9795C62.4189 38.3325 63.0029 37.8076 63.7227 37.8076H65.812C66.5324 37.8076 67.1157 38.3325 67.1157 38.9795C67.1157 39.6271 66.5317 40.1514 65.812 40.1514Z" fill="#E7E7E7"/>
<path d="M59.1648 53.2953H52.708C51.9883 53.2953 51.4043 52.771 51.4043 52.1234C51.4043 51.4764 51.9883 50.9515 52.708 50.9515H59.1654C59.8852 50.9515 60.4692 51.4764 60.4692 52.1234C60.4692 52.771 59.8852 53.2953 59.1648 53.2953Z" fill="#E7E7E7"/>
<path d="M79.4849 53.2953H70.3691C69.6494 53.2953 69.0654 52.771 69.0654 52.1234C69.0654 51.4764 69.6494 50.9515 70.3691 50.9515H79.4843C80.2047 50.9515 80.788 51.4764 80.788 52.1234C80.788 52.771 80.2047 53.2953 79.4849 53.2953Z" fill="#E7E7E7"/>
<path d="M65.812 53.2953H63.7227C63.0029 53.2953 62.4189 52.771 62.4189 52.1234C62.4189 51.4764 63.0029 50.9515 63.7227 50.9515H65.812C66.5324 50.9515 67.1157 51.4764 67.1157 52.1234C67.1157 52.771 66.5317 53.2953 65.812 53.2953Z" fill="#E7E7E7"/>
<path d="M59.1648 66.4392H52.708C51.9883 66.4392 51.4043 65.9143 51.4043 65.2673C51.4043 64.6204 51.9883 64.0955 52.708 64.0955H59.1654C59.8852 64.0955 60.4692 64.6204 60.4692 65.2673C60.4692 65.9143 59.8852 66.4392 59.1648 66.4392Z" fill="#E7E7E7"/>
<path d="M79.4849 66.4392H70.3691C69.6494 66.4392 69.0654 65.9143 69.0654 65.2673C69.0654 64.6204 69.6494 64.0955 70.3691 64.0955H79.4843C80.2047 64.0955 80.788 64.6204 80.788 65.2673C80.788 65.9143 80.2047 66.4392 79.4849 66.4392Z" fill="#E7E7E7"/>
<path d="M65.812 66.4392H63.7227C63.0029 66.4392 62.4189 65.9143 62.4189 65.2673C62.4189 64.6204 63.0029 64.0955 63.7227 64.0955H65.812C66.5324 64.0955 67.1157 64.6204 67.1157 65.2673C67.1157 65.9143 66.5317 66.4392 65.812 66.4392Z" fill="#E7E7E7"/>
<path d="M11.1504 6.96289C11.1504 8.25195 9.98797 9.29627 8.55457 9.29627C7.12048 9.29627 5.95801 8.25195 5.95801 6.96289C5.95801 5.67444 7.12048 4.62952 8.55457 4.62952C9.98797 4.62952 11.1504 5.67444 11.1504 6.96289Z" fill="#FF5770"/>
<path d="M21.1752 6.96289C21.1752 8.25195 20.0134 9.29627 18.5793 9.29627C17.1459 9.29627 15.9834 8.25195 15.9834 6.96289C15.9834 5.67444 17.1459 4.62952 18.5793 4.62952C20.0134 4.62952 21.1752 5.67444 21.1752 6.96289Z" fill="#FFD86E"/>
<path d="M31.2005 6.96289C31.2005 8.25195 30.0381 9.29627 28.6047 9.29627C27.1706 9.29627 26.0088 8.25195 26.0088 6.96289C26.0088 5.67444 27.1706 4.62952 28.6047 4.62952C30.0381 4.62952 31.2005 5.67444 31.2005 6.96289Z" fill="#80E0DC"/>
<path d="M11.1488 6.9635C11.1488 8.25195 9.98764 9.29566 8.55492 9.29566C7.86028 9.29566 7.2288 9.0509 6.76367 8.65051C8.16788 8.62305 9.29912 7.59094 9.29912 6.32019C9.29912 5.65491 8.98949 5.05615 8.49381 4.63196C8.5135 4.63013 8.53523 4.63013 8.55492 4.63013C9.98764 4.63013 11.1488 5.67383 11.1488 6.9635Z" fill="#FF435F"/>
<path d="M21.1745 6.9635C21.1745 8.25195 20.0134 9.29566 18.5787 9.29566C17.8847 9.29566 17.2552 9.0509 16.7881 8.65051C18.1943 8.62305 19.3249 7.59094 19.3249 6.32019C19.3249 5.65491 19.0153 5.05615 18.5203 4.63196C18.5393 4.63013 18.559 4.63013 18.5793 4.63013C20.0141 4.63013 21.1745 5.67383 21.1745 6.9635Z" fill="#FFB509"/>
<path d="M31.2006 6.9635C31.2006 8.25195 30.0374 9.29566 28.6047 9.29566C27.9101 9.29566 27.2806 9.0509 26.8135 8.65051C28.2197 8.62305 29.3489 7.59094 29.3489 6.32019C29.3489 5.65491 29.0393 5.05615 28.5436 4.63196C28.5633 4.63013 28.585 4.63013 28.6047 4.63013C30.0374 4.63013 31.2006 5.67383 31.2006 6.9635Z" fill="#00A8B0"/>
</g>
<defs>
<clipPath id="clip0">
<rect width="89" height="80" fill="white"/>
</clipPath>
</defs>
</svg>
