<svg width="89" height="80" viewBox="0 0 89 80" fill="none" xmlns="http://www.w3.org/2000/svg">
<path d="M27.8125 63.75V71.25C27.8125 71.9375 27.1867 72.5 26.4219 72.5H23.6406C22.8758 72.5 22.25 71.9375 22.25 71.25V63.75C22.25 63.0625 22.8758 62.5 23.6406 62.5H26.4219C27.1867 62.5 27.8125 63.0625 27.8125 63.75Z" fill="#E6E9ED"/>
<path d="M56.3064 35C54.5681 36.9625 52.4127 38.6125 49.9791 39.8625C46.725 41.5375 42.9564 42.5 38.9375 42.5C34.5709 42.5 30.4964 41.375 27.0616 39.425L16.6875 50.5375V75C16.6875 76.375 17.9391 77.5 19.4688 77.5H38.9375H83.4375C84.9672 77.5 86.2188 76.375 86.2188 75V67.5V35H56.3064Z" fill="#E6E9ED"/>
<path d="M79.2656 40H66.75H50.0625V58.75C50.0625 59.175 50.3128 59.5625 50.6744 59.7875C50.8969 59.925 51.1611 60 51.4531 60H63.9688H79.2656C80.0305 60 80.6562 59.4375 80.6562 58.75V41.25C80.6562 40.5625 80.0305 40 79.2656 40Z" fill="#FFB8B8"/>
<path d="M86.219 30V35H56.3066C58.2535 32.825 59.6859 30.275 60.4924 27.5H83.4377C84.9674 27.5 86.219 28.625 86.219 30Z" fill="#5CD6B3"/>
<path d="M27.0616 39.4249L16.6875 50.5374L14.5042 52.8749C13.2388 54.2249 11.3892 54.9999 9.41453 54.9999C7.59281 54.9999 5.92406 54.3249 4.72813 53.2499C3.53219 52.1749 2.78125 50.6749 2.78125 49.0374C2.78125 47.2624 3.64344 45.5999 5.14531 44.4624L20.1084 33.1749C21.8884 35.6874 24.2664 37.8249 27.0616 39.4249Z" fill="#969FAA"/>
<path d="M27.0616 39.425C24.2664 37.825 21.8884 35.6875 20.1084 33.175C17.9391 30.0875 16.6875 26.425 16.6875 22.5C16.6875 11.45 26.6444 2.5 38.9375 2.5C51.2306 2.5 61.1875 11.45 61.1875 22.5C61.1875 24.225 60.9511 25.9 60.4922 27.5C59.6856 30.275 58.2533 32.825 56.3064 35C54.5681 36.9625 52.4127 38.6125 49.9791 39.8625C46.725 41.5375 42.9564 42.5 38.9375 42.5C34.5709 42.5 30.4964 41.375 27.0616 39.425Z" fill="#FCD770"/>
<path d="M38.9375 7.5C29.7177 7.5 22.25 14.2125 22.25 22.5C22.25 23.5375 22.3612 24.55 22.5837 25.525C24.1412 32.3625 30.8719 37.5 38.9375 37.5C47.0031 37.5 53.7337 32.3625 55.2912 25.525C55.5137 24.55 55.625 23.5375 55.625 22.5C55.625 14.2125 48.1573 7.5 38.9375 7.5Z" fill="#69D6F4"/>
<path d="M79.2656 71.25H82.0469V73.75H79.2656V71.25Z" fill="black"/>
<path d="M73.7031 71.25H76.4844V73.75H73.7031V71.25Z" fill="black"/>
<path d="M31.9844 28.75H34.7656V31.25H31.9844V28.75Z" fill="black"/>
<path d="M43.1094 28.75H45.8906V31.25H43.1094V28.75Z" fill="black"/>
<path d="M37.5469 28.75H40.3281V31.25H37.5469V28.75Z" fill="black"/>
<path d="M83.4375 26.25H62.1874C62.4293 25.03 62.5781 23.7812 62.5781 22.5C62.5781 10.7825 51.9732 1.25 38.9375 1.25C25.9018 1.25 15.2969 10.7825 15.2969 22.5C15.2969 26.2712 16.4066 29.8088 18.3312 32.8825L4.2567 43.5038C2.43498 44.8788 1.39062 46.8938 1.39062 49.0325C1.39062 53.0125 4.99373 56.25 9.42009 56.25C11.6646 56.25 13.7797 55.4062 15.2969 53.935V75C15.2969 77.0675 17.1687 78.75 19.4688 78.75H83.4375C85.7376 78.75 87.6094 77.0675 87.6094 75V30C87.6094 27.9325 85.7376 26.25 83.4375 26.25ZM83.4375 28.75C84.2051 28.75 84.8281 29.3113 84.8281 30V33.75H58.9569C60.0375 32.2013 60.9205 30.5312 61.531 28.75H83.4375ZM38.9375 3.75C50.4394 3.75 59.7969 12.1613 59.7969 22.5C59.7969 29.4475 55.5624 35.5112 49.3004 38.75H48.6719V39.07C45.7627 40.4562 42.453 41.25 38.9375 41.25C27.4356 41.25 18.0781 32.8387 18.0781 22.5C18.0781 12.1613 27.4356 3.75 38.9375 3.75ZM13.4404 52.0662C12.4391 53.1362 10.9762 53.75 9.42009 53.75C6.5262 53.75 4.17188 51.6338 4.17188 49.0325C4.17188 47.635 4.85467 46.3175 6.04505 45.4187L19.8567 34.995C21.3072 36.7788 23.0538 38.35 25.0382 39.6525L13.4404 52.0662ZM83.4375 76.25H19.4688C18.7011 76.25 18.0781 75.6888 18.0781 75V50.9888L21.0791 47.7763C20.9373 48.0763 20.8594 48.405 20.8594 48.75V56.25C20.8594 57.6287 22.1068 58.75 23.6406 58.75H26.4219C27.9557 58.75 29.2031 57.6287 29.2031 56.25V48.75C29.2031 47.3713 27.9557 46.25 26.4219 46.25H23.6406C23.0802 46.25 22.5587 46.4025 22.1221 46.66L27.3884 41.0225C30.8079 42.7525 34.7434 43.75 38.9375 43.75C42.4099 43.75 45.6987 43.0562 48.6719 41.8425V58.75C48.6719 60.1287 49.9193 61.25 51.4531 61.25H79.2656C80.7995 61.25 82.0469 60.1287 82.0469 58.75V41.25C82.0469 39.8713 80.7995 38.75 79.2656 38.75H54.1398C55.1466 37.9888 56.077 37.15 56.9294 36.25H84.8281V75C84.8281 75.6888 84.2051 76.25 83.4375 76.25ZM23.6406 56.25V48.75H26.4219L26.4233 56.25H23.6406ZM51.4531 41.25H79.2656V58.75H51.4531V41.25Z" fill="black"/>
<path d="M12.5806 44.4165L14.5472 42.6487L16.5138 44.4165L14.5472 46.1843L12.5806 44.4165Z" fill="black"/>
<path d="M16.5122 40.8809L18.4788 39.1131L20.4455 40.8809L18.4788 42.6486L16.5122 40.8809Z" fill="black"/>
<path d="M8.74463 47.8618L10.612 46.1833L12.5786 47.9511L10.7113 49.6296L8.74463 47.8618Z" fill="black"/>
<path d="M38.9375 38.75C48.9055 38.75 57.0156 31.46 57.0156 22.5C57.0156 13.54 48.9055 6.25 38.9375 6.25C28.9695 6.25 20.8594 13.54 20.8594 22.5C20.8594 31.46 28.9695 38.75 38.9375 38.75ZM38.9375 8.75C47.3716 8.75 54.2344 14.9187 54.2344 22.5C54.2344 30.0812 47.3716 36.25 38.9375 36.25C30.5034 36.25 23.6406 30.0812 23.6406 22.5C23.6406 14.9187 30.5034 8.75 38.9375 8.75Z" fill="black"/>
<path d="M62.6113 55.9651L65.3909 43.4598L68.1193 43.9498L65.3397 56.4551L62.6113 55.9651Z" fill="black"/>
<path d="M68.7734 47.2437L72.7993 50L68.7734 52.7562L70.4575 54.7437L77.3884 50L70.4575 45.2562L68.7734 47.2437Z" fill="black"/>
<path d="M60.2614 45.2562L53.3306 50L60.2614 54.7437L61.9455 52.7562L57.9196 50L61.9455 47.2437L60.2614 45.2562Z" fill="black"/>
<path d="M31.9844 46.25H34.7656V58.75H31.9844V46.25Z" fill="black"/>
<path d="M26.4219 61.25H23.6406C22.1068 61.25 20.8594 62.3712 20.8594 63.75V71.25C20.8594 72.6287 22.1068 73.75 23.6406 73.75H26.4219C27.9557 73.75 29.2031 72.6287 29.2031 71.25V63.75C29.2031 62.3712 27.9557 61.25 26.4219 61.25ZM26.4219 71.25H23.6406V63.75H26.4219V71.25Z" fill="black"/>
<path d="M31.9844 61.25H34.7656V73.75H31.9844V61.25Z" fill="black"/>
<path d="M48.6719 61.25H45.8906C44.3568 61.25 43.1094 62.3712 43.1094 63.75V71.25C43.1094 72.6287 44.3568 73.75 45.8906 73.75H48.6719C50.2057 73.75 51.4531 72.6287 51.4531 71.25V63.75C51.4531 62.3712 50.2057 61.25 48.6719 61.25ZM45.8906 71.25V63.75H48.6719L48.6733 71.25H45.8906Z" fill="black"/>
<path d="M37.5469 61.25H40.3281V73.75H37.5469V61.25Z" fill="black"/>
<path d="M37.5469 46.25H40.3281V58.75H37.5469V46.25Z" fill="black"/>
<path d="M43.1094 46.25H45.8906V58.75H43.1094V46.25Z" fill="black"/>
<path d="M54.2344 71.25H70.9219V73.75H54.2344V71.25Z" fill="black"/>
<path d="M54.2344 66.25H82.0469V68.75H54.2344V66.25Z" fill="black"/>
<path d="M26.4219 23.75H51.4531V26.25H26.4219V23.75Z" fill="black"/>
<path d="M26.4219 18.75H51.4531V21.25H26.4219V18.75Z" fill="black"/>
<path d="M31.9844 13.75H45.8906V16.25H31.9844V13.75Z" fill="black"/>
</svg>
