<svg width="89" height="79" viewBox="0 0 89 79" fill="none" xmlns="http://www.w3.org/2000/svg">
<path d="M13.9062 6.78403C13.9062 6.14346 14.1993 5.52913 14.7209 5.07619C15.2424 4.62324 15.9499 4.36877 16.6875 4.36877H82.0469C82.7845 4.36877 83.4919 4.62324 84.0135 5.07619C84.5351 5.52913 84.8281 6.14346 84.8281 6.78403V46.6357C84.8281 47.2763 84.5351 47.8906 84.0135 48.3436C83.4919 48.7965 82.7845 49.051 82.0469 49.051H13.9062V6.78403Z" fill="#FFCCD9"/>
<path d="M73.7031 69.5806L82.0469 53.8815H61.1875L52.8438 69.5806H73.7031Z" fill="#8BE0E8"/>
<path d="M41.7188 69.5806H73.7031V71.9958C73.7031 72.6364 73.4101 73.2507 72.8885 73.7037C72.3669 74.1566 71.6595 74.4111 70.9219 74.4111H44.5C43.7624 74.4111 43.0549 74.1566 42.5334 73.7037C42.0118 73.2507 41.7188 72.6364 41.7188 71.9958V69.5806Z" fill="#548AFF"/>
<path d="M11.125 43.0128H20.6908V53.8815H11.125V43.0128Z" fill="#FFCEB6"/>
<path d="M23.6406 36.9746V46.4891C23.6406 46.8255 23.5643 47.1587 23.4161 47.4695C23.2678 47.7803 23.0505 48.0627 22.7766 48.3006C22.5027 48.5384 22.1775 48.7271 21.8196 48.8559C21.4617 48.9846 21.0781 49.0509 20.6907 49.0509C20.3033 49.0509 19.9197 48.9846 19.5618 48.8559C19.2039 48.7271 18.8787 48.5384 18.6047 48.3006L16.6875 46.6356V36.9746H23.6406Z" fill="#FFCEB6"/>
<path d="M11.125 46.6357L7.88426 41.9452C7.27497 41.0634 6.95313 40.0543 6.95312 39.0259V39.0259C6.95312 37.5211 7.64152 36.0778 8.86687 35.0137C10.0922 33.9496 11.7542 33.3518 13.4871 33.3518H23.6406C24.3783 33.3518 25.0857 33.6063 25.6073 34.0592C26.1289 34.5122 26.4219 35.1265 26.4219 35.7671C26.4219 36.4076 26.1289 37.022 25.6073 37.4749C25.0857 37.9279 24.3783 38.1823 23.6406 38.1823H19.4688L16.6875 41.8052V46.6357H11.125Z" fill="#C47220"/>
<path d="M47.2812 71.9958H35.8523C35.0726 71.9958 34.3016 71.8535 33.5893 71.578C32.877 71.3025 32.2394 70.9001 31.7178 70.3968L26.4219 65.2868V75.6187H4.17188V58.7119C4.17188 56.7903 5.05095 54.9473 6.6157 53.5884C8.18046 52.2296 10.3027 51.4662 12.5156 51.4662H21.809C23.2508 51.4662 24.6746 51.7443 25.9775 52.2805C27.2804 52.8167 28.4299 53.5975 29.3429 54.5666L38.9375 64.7501H47.2812V71.9958Z" fill="#84D9EF"/>
<path d="M47.2812 71.9959V64.7501H50.0625L55.625 63.5425L61.8221 66.7714C62.0527 66.8916 62.2435 67.0615 62.376 67.2647C62.5085 67.468 62.5781 67.6975 62.5781 67.931C62.5781 68.1311 62.527 68.3287 62.4284 68.5096C62.3299 68.6904 62.1863 68.85 62.0082 68.9769C61.83 69.1037 61.6216 69.1946 61.3981 69.2431C61.1745 69.2916 60.9414 69.2963 60.7155 69.2571L55.625 68.373L50.8042 71.5128C50.3227 71.8264 49.7372 71.9959 49.1354 71.9959H47.2812Z" fill="#FFCEB6"/>
<path d="M70.9219 74.4111H61.1875C60.4499 74.4111 59.7424 74.1566 59.2209 73.7037C58.6993 73.2507 58.4062 72.6364 58.4062 71.9958V69.5806H73.7031V71.9958C73.7031 72.6364 73.4101 73.2507 72.8885 73.7037C72.3669 74.1566 71.6595 74.4111 70.9219 74.4111Z" fill="#4367E0"/>
<path d="M33.375 38.1823H41.7188V44.2204H33.375V38.1823Z" fill="#FFA100"/>
<path d="M41.7188 33.3518H50.0625V44.2204H41.7188V33.3518Z" fill="#FFB401"/>
<path d="M50.0625 27.3136H58.4062V44.2204H50.0625V27.3136Z" fill="#FFC431"/>
<path d="M58.4062 21.2755H66.75V44.2204H58.4062V21.2755Z" fill="#FFCC4D"/>
<path d="M66.75 16.4449H75.0938V44.2204H66.75V16.4449Z" fill="#FFD873"/>
<path d="M34.7656 30.9365C36.3017 30.9365 37.5469 29.8551 37.5469 28.5212C37.5469 27.1873 36.3017 26.106 34.7656 26.106C33.2296 26.106 31.9844 27.1873 31.9844 28.5212C31.9844 29.8551 33.2296 30.9365 34.7656 30.9365Z" fill="#C5DAFA"/>
<path d="M48.6719 22.4831C50.2079 22.4831 51.4531 21.4017 51.4531 20.0678C51.4531 18.7339 50.2079 17.6526 48.6719 17.6526C47.1358 17.6526 45.8906 18.7339 45.8906 20.0678C45.8906 21.4017 47.1358 22.4831 48.6719 22.4831Z" fill="#C5DAFA"/>
<path d="M61.1875 14.0297C62.7235 14.0297 63.9688 12.9484 63.9688 11.6145C63.9688 10.2806 62.7235 9.19922 61.1875 9.19922C59.6515 9.19922 58.4062 10.2806 58.4062 11.6145C58.4062 12.9484 59.6515 14.0297 61.1875 14.0297Z" fill="#C5DAFA"/>
<path d="M82.0469 52.6738H61.1875C60.9219 52.6738 60.6618 52.7399 60.438 52.8642C60.2143 52.9885 60.0362 53.1659 59.9249 53.3754L55.1251 62.4063L49.8913 63.5425H39.5965L30.4192 53.802C29.4066 52.724 28.1367 51.8495 26.6972 51.2389C25.2577 50.6283 23.6829 50.2961 22.0813 50.2651V50.059C22.9405 49.8057 23.6869 49.3253 24.2159 48.6852C24.7449 48.045 25.03 47.2771 25.0312 46.4892V39.1822C25.9591 38.8974 26.7411 38.3369 27.239 37.5998C27.737 36.8626 27.9188 35.9964 27.7524 35.1541C27.586 34.3118 27.082 33.5477 26.3296 32.9969C25.5772 32.4461 24.6247 32.1441 23.6406 32.1442H13.487C12.0847 32.1442 10.7075 32.4674 9.49594 33.0807C8.28443 33.694 7.28204 34.5756 6.5911 35.6353C5.90017 36.6951 5.54544 37.8951 5.56313 39.1128C5.58081 40.3305 5.97029 41.5223 6.69179 42.5666L9.73438 46.9702V50.612C7.72698 51.134 5.96666 52.2038 4.71427 53.6628C3.46188 55.1217 2.78406 56.8922 2.78125 58.712V75.6187H5.5625V58.712C5.56459 57.1111 6.29783 55.5763 7.60134 54.4444C8.90485 53.3124 10.6722 52.6756 12.5156 52.6738H21.809C23.0452 52.672 24.2663 52.9095 25.3835 53.3693C26.5006 53.829 27.4856 54.4993 28.2667 55.3314L37.8613 65.5149C37.9917 65.6533 38.1559 65.7648 38.342 65.8414C38.5282 65.918 38.7315 65.9577 38.9375 65.9577H45.8906V70.7882H35.8523C35.2676 70.7879 34.6894 70.681 34.1553 70.4744C33.6211 70.2678 33.1429 69.9662 32.7514 69.589L21.893 59.1117L19.8257 60.7274L25.0312 65.7502V75.6187H27.8125V68.4339L30.6841 71.2047C31.3366 71.8334 32.1337 72.3361 33.0239 72.6804C33.9142 73.0247 34.8778 73.2029 35.8523 73.2035H40.5674C40.8557 73.9093 41.3885 74.5203 42.0926 74.9527C42.7967 75.3851 43.6376 75.6178 44.5 75.6187H70.9219C72.0279 75.6176 73.0883 75.2356 73.8704 74.5564C74.6525 73.8772 75.0925 72.9564 75.0938 71.9958V69.8459L83.3095 54.3875C83.4073 54.2035 83.4502 54.0011 83.4342 53.7989C83.4183 53.5967 83.344 53.4013 83.2183 53.2306C83.0925 53.0599 82.9193 52.9194 82.7146 52.8221C82.5098 52.7248 82.2802 52.6738 82.0469 52.6738ZM20.6906 47.8433C20.4858 47.8438 20.2828 47.809 20.0936 47.7409C19.9043 47.6728 19.7325 47.5728 19.588 47.4466L18.0781 46.1354V42.1708L20.213 39.3899H22.25V46.4892C22.2495 46.8482 22.0851 47.1924 21.7927 47.4462C21.5004 47.7001 21.1041 47.8429 20.6906 47.8433ZM8.34375 39.026C8.34528 37.8418 8.88765 36.7065 9.85187 35.8691C10.8161 35.0318 12.1234 34.5608 13.487 34.5594H23.6406C24.0094 34.5594 24.3632 34.6866 24.6239 34.9131C24.8847 35.1396 25.0312 35.4468 25.0312 35.767C25.0312 36.0873 24.8847 36.3945 24.6239 36.621C24.3632 36.8474 24.0094 36.9747 23.6406 36.9747H19.4688C19.2398 36.9747 19.0144 37.0238 18.8126 37.1176C18.6107 37.2114 18.4387 37.347 18.3117 37.5124L15.5305 41.1353C15.3781 41.3337 15.2969 41.5668 15.2969 41.8052V45.4281H11.9123L9.07666 41.3239C8.59714 40.6297 8.34381 39.8354 8.34375 39.026ZM12.5156 47.8433H16.1114L17.6214 49.1546C18.0928 49.5652 18.6674 49.8754 19.3 50.0608V50.2586H12.5156V47.8433ZM48.6719 65.9577H50.0625C50.1762 65.9577 50.2895 65.9456 50.3998 65.9216L55.4035 64.8353L61.1066 67.807C61.1312 67.8199 61.1516 67.8381 61.1658 67.8598C61.18 67.8815 61.1874 67.9061 61.1875 67.931C61.1875 67.9524 61.1821 67.9736 61.1715 67.9929C61.161 68.0123 61.1456 68.0294 61.1265 68.0429C61.1075 68.0565 61.0852 68.0662 61.0612 68.0714C61.0373 68.0766 61.0124 68.0771 60.9882 68.0728L55.8977 67.1888C55.7059 67.1555 55.5082 67.1577 55.3174 67.1953C55.1267 67.2329 54.9472 67.3049 54.7907 67.4068L49.9698 70.5466C49.7288 70.703 49.4362 70.7877 49.1354 70.7882H48.6719V65.9577ZM51.6385 72.4789L54.2344 70.7882H57.0156V71.9958C57.0154 72.4073 57.0963 72.8157 57.2549 73.2035H49.1354C50.0377 73.2018 50.9155 72.9478 51.6385 72.4789ZM72.3125 71.9958C72.3121 72.316 72.1654 72.623 71.9047 72.8494C71.644 73.0758 71.2906 73.2031 70.9219 73.2035H61.1875C60.8188 73.2031 60.4653 73.0758 60.2046 72.8494C59.9439 72.623 59.7973 72.316 59.7969 71.9958V70.7882H72.3125V71.9958ZM72.8134 68.373H63.9205C64.0287 67.8633 63.9542 67.3371 63.7069 66.8654C63.4595 66.3938 63.0513 65.9995 62.5376 65.7359L57.7457 63.2391L62.0773 55.0891H79.8734L72.8134 68.373Z" fill="black"/>
<path d="M82.0469 3.16113H16.6875C15.5814 3.16222 14.521 3.54426 13.7389 4.22345C12.9568 4.90264 12.5169 5.8235 12.5156 6.78401V29.7289H15.2969V6.78401C15.2973 6.46384 15.4439 6.15689 15.7046 5.9305C15.9653 5.7041 16.3188 5.57675 16.6875 5.57639H82.0469C82.4156 5.57675 82.769 5.7041 83.0297 5.9305C83.2904 6.15689 83.4371 6.46384 83.4375 6.78401V46.6357C83.4371 46.9559 83.2904 47.2628 83.0297 47.4892C82.769 47.7156 82.4156 47.843 82.0469 47.8433H27.8125V50.2586H82.0469C83.1529 50.2575 84.2133 49.8755 84.9955 49.1963C85.7776 48.5171 86.2175 47.5962 86.2188 46.6357V6.78401C86.2175 5.8235 85.7776 4.90264 84.9955 4.22345C84.2133 3.54426 83.1529 3.16222 82.0469 3.16113Z" fill="black"/>
<path d="M18.0781 9.19919C18.8461 9.19919 19.4688 8.65852 19.4688 7.99156C19.4688 7.32461 18.8461 6.78394 18.0781 6.78394C17.3101 6.78394 16.6875 7.32461 16.6875 7.99156C16.6875 8.65852 17.3101 9.19919 18.0781 9.19919Z" fill="black"/>
<path d="M22.25 9.19919C23.018 9.19919 23.6406 8.65852 23.6406 7.99156C23.6406 7.32461 23.018 6.78394 22.25 6.78394C21.482 6.78394 20.8594 7.32461 20.8594 7.99156C20.8594 8.65852 21.482 9.19919 22.25 9.19919Z" fill="black"/>
<path d="M26.4219 9.19919C27.1899 9.19919 27.8125 8.65852 27.8125 7.99156C27.8125 7.32461 27.1899 6.78394 26.4219 6.78394C25.6539 6.78394 25.0312 7.32461 25.0312 7.99156C25.0312 8.65852 25.6539 9.19919 26.4219 9.19919Z" fill="black"/>
<path d="M75.0938 15.2374H66.75C66.3812 15.2374 66.0275 15.3647 65.7667 15.5911C65.5059 15.8176 65.3594 16.1248 65.3594 16.4451V20.0679H58.4062C58.0374 20.0679 57.6837 20.1952 57.4229 20.4216C57.1621 20.6481 57.0156 20.9553 57.0156 21.2756V26.1061H50.0625C49.6937 26.1061 49.34 26.2333 49.0792 26.4598C48.8184 26.6863 48.6719 26.9934 48.6719 27.3137V32.1442H41.7188C41.3499 32.1442 40.9962 32.2714 40.7354 32.4979C40.4746 32.7244 40.3281 33.0315 40.3281 33.3518V36.9747H33.375C33.0062 36.9747 32.6525 37.1019 32.3917 37.3284C32.1309 37.5549 31.9844 37.8621 31.9844 38.1823V43.0128H29.2031V45.4281H79.2656V43.0128H76.4844V16.4451C76.4844 16.1248 76.3379 15.8176 76.0771 15.5911C75.8163 15.3647 75.4626 15.2374 75.0938 15.2374ZM34.7656 39.39H40.3281V43.0128H34.7656V39.39ZM43.1094 34.5595H48.6719V43.0128H43.1094V34.5595ZM51.4531 28.5213H57.0156V43.0128H51.4531V28.5213ZM59.7969 22.4832H65.3594V43.0128H59.7969V22.4832ZM73.7031 43.0128H68.1406V17.6527H73.7031V43.0128Z" fill="black"/>
<path d="M25.0312 29.7289H30.833C31.1963 30.6216 31.9477 31.3553 32.9262 31.7729C33.9048 32.1905 35.0327 32.2588 36.0685 31.9632C37.1043 31.6676 37.9657 31.0315 38.4681 30.1912C38.9706 29.3509 39.0743 28.3732 38.7569 27.4674L45.9893 22.8396C46.7057 23.3628 47.604 23.6614 48.5396 23.6875C49.4752 23.7136 50.3937 23.4656 51.1473 22.9834C51.9009 22.5012 52.4457 21.8129 52.6942 21.0291C52.9426 20.2454 52.8802 19.4118 52.517 18.6626L58.8473 14.612C59.3749 14.9232 59.9778 15.1251 60.6094 15.2022C61.241 15.2792 61.8846 15.2294 62.4905 15.0565C63.0965 14.8836 63.6486 14.5922 64.1045 14.2049C64.5604 13.8175 64.9079 13.3444 65.1201 12.8221H73.7031V10.4069H65.1201C64.7568 9.51415 64.0055 8.78044 63.0269 8.36283C62.0484 7.94523 60.9204 7.87693 59.8846 8.17255C58.8488 8.46818 57.9875 9.10423 57.485 9.94453C56.9825 10.7848 56.8788 11.7626 57.1962 12.6684L50.6299 16.87C49.9357 16.5487 49.1509 16.4046 48.3663 16.4542C47.5817 16.5038 46.8293 16.7452 46.196 17.1504C45.5627 17.5557 45.0743 18.1082 44.7873 18.7443C44.5003 19.3804 44.4264 20.074 44.5742 20.745L37.1058 25.5237C36.5782 25.2125 35.9754 25.0106 35.3437 24.9336C34.7121 24.8565 34.0686 24.9064 33.4626 25.0793C32.8567 25.2522 32.3045 25.5435 31.8486 25.9309C31.3927 26.3183 31.0452 26.7913 30.833 27.3136H25.0312V29.7289ZM61.1875 10.4069C61.4625 10.4069 61.7314 10.4777 61.9601 10.6104C62.1888 10.7431 62.367 10.9317 62.4723 11.1524C62.5775 11.373 62.6051 11.6158 62.5514 11.8501C62.4977 12.0843 62.3653 12.2995 62.1708 12.4684C61.9763 12.6373 61.7286 12.7523 61.4588 12.7989C61.189 12.8455 60.9094 12.8216 60.6553 12.7302C60.4012 12.6388 60.184 12.484 60.0312 12.2854C59.8784 12.0868 59.7969 11.8533 59.7969 11.6145C59.7973 11.2943 59.9439 10.9874 60.2046 10.761C60.4653 10.5346 60.8188 10.4072 61.1875 10.4069ZM48.6719 18.8603C48.9469 18.8603 49.2158 18.9311 49.4445 19.0638C49.6731 19.1965 49.8514 19.3851 49.9566 19.6057C50.0619 19.8264 50.0894 20.0692 50.0358 20.3035C49.9821 20.5377 49.8497 20.7529 49.6552 20.9218C49.4607 21.0907 49.2129 21.2057 48.9432 21.2523C48.6734 21.2989 48.3938 21.275 48.1397 21.1836C47.8856 21.0922 47.6684 20.9374 47.5156 20.7388C47.3628 20.5402 47.2812 20.3067 47.2812 20.0679C47.2817 19.7477 47.4283 19.4408 47.689 19.2144C47.9497 18.988 48.3032 18.8606 48.6719 18.8603ZM34.7656 27.3136C35.0407 27.3136 35.3095 27.3845 35.5382 27.5172C35.7669 27.6499 35.9451 27.8385 36.0504 28.0591C36.1556 28.2798 36.1832 28.5226 36.1295 28.7569C36.0759 28.9911 35.9434 29.2063 35.7489 29.3752C35.5545 29.5441 35.3067 29.6591 35.0369 29.7057C34.7672 29.7523 34.4876 29.7284 34.2335 29.637C33.9794 29.5456 33.7622 29.3908 33.6094 29.1922C33.4566 28.9936 33.375 28.7601 33.375 28.5213C33.3754 28.2011 33.5221 27.8941 33.7828 27.6678C34.0435 27.4414 34.3969 27.314 34.7656 27.3136Z" fill="black"/>
<path d="M76.4844 10.4069H79.2656V12.8221H76.4844V10.4069Z" fill="black"/>
<path d="M19.4688 27.3136H22.25V29.7289H19.4688V27.3136Z" fill="black"/>
</svg>
